
<svg width="5351" height="2218" viewBox="0 0 5351 2218" fill="none" xmlns="http://www.w3.org/2000/svg">
<path d="M2405.82 493.917V257.394H2324.47V134.977H2312.08V257.394H2287.32V0H2277.41V257.394H2224.16V204.325H2091.66V257.394H2051.38V588.203H1694.58V505.5H1349.59V422.8H1049.5V564.576H236.649V354.274H131.073V314.605H94.2273V160.209H87.2096V314.605H0V2217.2H2675.18V493.917H2405.82Z" fill="#D9D9D9"/>
<path d="M2944.36 493.917V257.394H3025.71V134.977H3038.09V257.394H3062.86V0H3072.77V257.394H3126.01V204.325H3258.52V257.394H3298.8V588.203H3655.6V505.5H4000.59V422.8H4300.68V564.576H5113.53V354.274H5219.1V314.605H5255.95V160.209H5262.97V314.605H5350.18V2217.2H2675V493.917H2944.36Z" fill="#D9D9D9"/>
</svg>
