<?xml version="1.0" encoding="UTF-8"?>
<svg viewBox="0 0 957 1414" xmlns="http://www.w3.org/2000/svg">
<path d="m209.01 130.86v175.26h113.8l125.3 37.864v-120.99l-239.1-92.129z" fill="#464646"/>
<path d="m706.16 276.11h-113.8v-175.26h-72.566v-100.86h-147.41v100.86h-108.14v80.452h-55.212v-50.48h-91.493v50.48h-67.828v94.807h-49.71v1137.3h706.16v-1137.3z" fill="#4C4C4C"/>
<path d="m831.46 313.97v-120.99l-162.89-62.806v-61.665l-148.78-68.512v100.86h72.565v175.26h113.8v1137.3h250.6v-1061.6l-125.3-37.864z" fill="#848484"/>
<path d="m592.36 100.85v175.26h113.8l125.3 37.86v-120.99l-239.1-92.132z" fill="#676767"/>
<path d="m592.36 100.85h-328.15v175.26h328.15v-175.26z" fill="#535353"/>
<path d="m264.21 181.31h-214.5v94.803h214.5v-94.803z" fill="#484848"/>
<path d="m167.33 332.44h-118.88v52.01h118.88v-52.01z" fill="#464646"/>
<path d="m330.79 332.44h-118.88v52.01h118.88v-52.01z" fill="#464646"/>
<path d="m494.25 332.44h-118.88v52.01h118.88v-52.01z" fill="#464646"/>
<path d="m657.71 332.44h-118.88v52.01h118.88v-52.01z" fill="#464646"/>
<path d="m167.33 416.65h-118.88v52.01h118.88v-52.01z" fill="#464646"/>
<path d="m330.79 416.65h-118.88v52.01h118.88v-52.01z" fill="#464646"/>
<path d="m494.25 416.65h-118.88v52.01h118.88v-52.01z" fill="#464646"/>
<path d="m657.71 416.65h-118.88v52.01h118.88v-52.01z" fill="#464646"/>
<path d="m167.33 500.86h-118.88v52.01h118.88v-52.01z" fill="#464646"/>
<path d="m330.79 500.86h-118.88v52.01h118.88v-52.01z" fill="#464646"/>
<path d="m494.25 500.86h-118.88v52.01h118.88v-52.01z" fill="#464646"/>
<path d="m657.71 500.86h-118.88v52.01h118.88v-52.01z" fill="#464646"/>
<path d="m167.33 585.06h-118.88v52.01h118.88v-52.01z" fill="#464646"/>
<path d="m330.79 585.06h-118.88v52.01h118.88v-52.01z" fill="#464646"/>
<path d="m494.25 585.06h-118.88v52.01h118.88v-52.01z" fill="#464646"/>
<path d="m657.71 585.06h-118.88v52.01h118.88v-52.01z" fill="#464646"/>
<path d="m167.33 669.27h-118.88v52.01h118.88v-52.01z" fill="#464646"/>
<path d="m330.79 669.27h-118.88v52.01h118.88v-52.01z" fill="#464646"/>
<path d="m494.25 669.27h-118.88v52.01h118.88v-52.01z" fill="#464646"/>
<path d="m657.71 669.27h-118.88v52.01h118.88v-52.01z" fill="#464646"/>
<path d="m167.33 753.48h-118.88v52.01h118.88v-52.01z" fill="#464646"/>
<path d="m330.79 753.48h-118.88v52.01h118.88v-52.01z" fill="#464646"/>
<path d="m494.25 753.48h-118.88v52.01h118.88v-52.01z" fill="#464646"/>
<path d="m657.71 753.48h-118.88v52.01h118.88v-52.01z" fill="#464646"/>
<path d="m167.33 837.68h-118.88v52.01h118.88v-52.01z" fill="#464646"/>
<path d="m330.79 837.68h-118.88v52.01h118.88v-52.01z" fill="#464646"/>
<path d="m494.25 837.68h-118.88v52.01h118.88v-52.01z" fill="#464646"/>
<path d="m657.71 837.68h-118.88v52.01h118.88v-52.01z" fill="#464646"/>
<path d="m167.33 921.89h-118.88v52.01h118.88v-52.01z" fill="#464646"/>
<path d="m330.79 921.89h-118.88v52.01h118.88v-52.01z" fill="#464646"/>
<path d="m494.25 921.89h-118.88v52.01h118.88v-52.01z" fill="#464646"/>
<path d="m657.71 921.89h-118.88v52.01h118.88v-52.01z" fill="#464646"/>
<path d="m167.33 1006.1h-118.88v52.01h118.88v-52.01z" fill="#464646"/>
<path d="m330.79 1006.1h-118.88v52.01h118.88v-52.01z" fill="#464646"/>
<path d="m494.25 1006.1h-118.88v52.01h118.88v-52.01z" fill="#464646"/>
<path d="m657.71 1006.1h-118.88v52.01h118.88v-52.01z" fill="#464646"/>
<path d="m167.33 1090.3h-118.88v52.01h118.88v-52.01z" fill="#464646"/>
<path d="m330.79 1090.3h-118.88v52.01h118.88v-52.01z" fill="#464646"/>
<path d="m494.25 1090.3h-118.88v52.01h118.88v-52.01z" fill="#464646"/>
<path d="m657.71 1090.3h-118.88v52.01h118.88v-52.01z" fill="#464646"/>
<path d="m167.33 1174.5h-118.88v52.01h118.88v-52.01z" fill="#464646"/>
<path d="m330.79 1174.5h-118.88v52.01h118.88v-52.01z" fill="#464646"/>
<path d="m494.25 1174.5h-118.88v52.01h118.88v-52.01z" fill="#464646"/>
<path d="m657.71 1174.5h-118.88v52.01h118.88v-52.01z" fill="#464646"/>
<path d="m167.33 1258.7h-118.88v52.01h118.88v-52.01z" fill="#464646"/>
<path d="m330.79 1258.7h-118.88v52.01h118.88v-52.01z" fill="#464646"/>
<path d="m494.25 1258.7h-118.88v52.01h118.88v-52.01z" fill="#464646"/>
<path d="m657.71 1258.7h-118.88v52.01h118.88v-52.01z" fill="#464646"/>
<path d="m917.78 433.05-160.59-48.351v-52.01l160.59 48.351v52.01z" fill="#585858"/>
<path d="m917.78 517.26-160.59-48.351v-52.01l160.59 48.351v52.01z" fill="#585858"/>
<path d="m917.78 601.46-160.59-48.35v-52.01l160.59 48.35v52.01z" fill="#585858"/>
<path d="m917.78 685.67-160.59-48.35v-52.01l160.59 48.35v52.01z" fill="#585858"/>
<path d="m917.78 769.88-160.59-48.35v-52.01l160.59 48.35v52.01z" fill="#585858"/>
<path d="m917.78 854.08-160.59-48.35v-52.01l160.59 48.35v52.01z" fill="#585858"/>
<path d="m917.78 938.29-160.59-48.35v-52.01l160.59 48.35v52.01z" fill="#585858"/>
<path d="m917.78 1022.5-160.59-48.352v-52.01l160.59 48.35v52.012z" fill="#585858"/>
<path d="m917.78 1106.7-160.59-48.35v-52.01l160.59 48.35v52.01z" fill="#585858"/>
<path d="m917.78 1190.9-160.59-48.35v-52.01l160.59 48.35v52.01z" fill="#585858"/>
<path d="m917.78 1275.1-160.59-48.35v-52.01l160.59 48.35v52.01z" fill="#585858"/>
<path d="m917.78 1359.3-160.59-48.35v-52.01l160.59 48.35v52.01z" fill="#585858"/>
<path d="m541.59 199.63h-226.62v30.649h226.62v-30.649z" fill="#4C4C4C"/>
<path d="m541.59 146.69h-226.62v30.649h226.62v-30.649z" fill="#4C4C4C"/>
<path d="m807.35 306.64v-38.896l-185.98-68.111v76.522l84.795-0.038 101.19 30.523z" fill="#585858"/>
<path d="m807.35 216.19-185.98-69.504v30.649l185.98 68.575v-29.72z" fill="#585858"/>
</svg>
