<?xml version="1.0" encoding="UTF-8"?>
<svg viewBox="0 0 638 1758" xmlns="http://www.w3.org/2000/svg">
<path d="m510.73 318.94v-32.595h27.387v-83.93h-140.43v-202.42h-14.035v202.42h-23.16v-202.42h-14.035v202.42h-103.41v26.503h-57.426v26.507h28.271v30.92h-17.668v32.595h-41.196v-28.122h-54.659v28.122h-28.267v-32.595h-63.166v1471.4h501.79v-1438.8z" fill="#676767"/>
<path d="m510.73 318.94v1438.8h99.666v-1414.9l-99.666-56.542v32.595z" fill="#979797"/>
<path d="m538.11 202.42v83.929l99.663 56.543v-83.926l-99.663-56.546z" fill="#979797"/>
<path d="m510.73 286.34 99.666 56.542h27.383l-99.662-56.542h-27.387z" fill="#7C7C7C"/>
<path d="m538.02 202.42h-294.97v83.926h294.97v-83.926z" fill="#5D5D5D"/>
<path d="M510.72 318.947H0V342.296H510.72V318.947Z" fill="#5D5D5D"/>
<path d="m616.79 395.11-106.02-52.813v-23.349l106.02 52.813v23.349z" fill="#7C7C7C"/>
<path d="m616.79 717.72-106.02-52.813v-23.352l106.02 52.816v23.349z" fill="#7C7C7C"/>
<path d="m616.79 1040.3-106.02-52.808v-23.349l106.02 52.817v23.34z" fill="#7C7C7C"/>
<path d="m616.79 1363-106.02-52.82v-23.35l106.02 52.82v23.35z" fill="#7C7C7C"/>
<path d="m616.79 1685.6-106.02-52.81v-23.35l106.02 52.81v23.35z" fill="#7C7C7C"/>
<path d="M510.72 641.825H0V665.174H510.72V641.825Z" fill="#5D5D5D"/>
<path d="M510.72 964.704H0V988.053H510.72V964.704Z" fill="#5D5D5D"/>
<path d="M510.72 1287.58H0V1310.93H510.72V1287.58Z" fill="#5D5D5D"/>
<path d="M510.72 1610.46H0V1633.81H510.72V1610.46Z" fill="#5D5D5D"/>
<path d="m72.595 374.12h-21.101v232.15h21.101v-232.15z" fill="#585858"/>
<path d="m136.96 374.12h-21.102v232.15h21.102v-232.15z" fill="#585858"/>
<path d="m201.32 374.12h-21.101v232.15h21.101v-232.15z" fill="#585858"/>
<path d="m265.68 374.12h-21.101v232.15h21.101v-232.15z" fill="#585858"/>
<path d="m330.04 374.12h-21.102v232.15h21.102v-232.15z" fill="#585858"/>
<path d="m394.4 374.12h-21.101v232.15h21.101v-232.15z" fill="#585858"/>
<path d="m458.76 374.12h-21.101v232.15h21.101v-232.15z" fill="#585858"/>
<path d="m72.595 1023.2h-21.101v232.15h21.101v-232.15z" fill="#585858"/>
<path d="m136.96 1023.2h-21.102v232.15h21.102v-232.15z" fill="#585858"/>
<path d="m201.32 1023.2h-21.101v232.15h21.101v-232.15z" fill="#585858"/>
<path d="m265.68 1023.2h-21.101v232.15h21.101v-232.15z" fill="#585858"/>
<path d="m330.04 1023.2h-21.102v232.15h21.102v-232.15z" fill="#585858"/>
<path d="m394.4 1023.2h-21.101v232.15h21.101v-232.15z" fill="#585858"/>
<path d="m458.76 1023.2h-21.101v232.15h21.101v-232.15z" fill="#585858"/>
<path d="m72.595 1351.4h-21.101v232.15h21.101v-232.15z" fill="#585858"/>
<path d="m136.96 1351.4h-21.102v232.15h21.102v-232.15z" fill="#585858"/>
<path d="m201.32 1351.4h-21.101v232.15h21.101v-232.15z" fill="#585858"/>
<path d="m265.68 1351.4h-21.101v232.15h21.101v-232.15z" fill="#585858"/>
<path d="m330.04 1351.4h-21.102v232.15h21.102v-232.15z" fill="#585858"/>
<path d="m394.4 1351.4h-21.101v232.15h21.101v-232.15z" fill="#585858"/>
<path d="m458.76 1351.4h-21.101v232.15h21.101v-232.15z" fill="#585858"/>
<path d="m72.595 699h-21.101v232.15h21.101v-232.15z" fill="#585858"/>
<path d="m136.96 699h-21.102v232.15h21.102v-232.15z" fill="#585858"/>
<path d="m201.32 699h-21.101v232.15h21.101v-232.15z" fill="#585858"/>
<path d="m265.68 699h-21.101v232.15h21.101v-232.15z" fill="#585858"/>
<path d="m330.04 699h-21.102v232.15h21.102v-232.15z" fill="#585858"/>
<path d="m394.4 699h-21.101v232.15h21.101v-232.15z" fill="#585858"/>
<path d="m458.76 699h-21.101v232.15h21.101v-232.15z" fill="#585858"/>
</svg>
