<?xml version="1.0" encoding="UTF-8"?>
<svg viewBox="0 0 546 2120" xmlns="http://www.w3.org/2000/svg">
<path d="m545.26 342.53v-59.972h-25.02v-67.267h-115.58v-118.13h-11.111v118.13h-28.576v-215.29h-11.112v215.29h-81.235v-108.93h9.269v-19.051h-221.44v19.051h9.2689v108.93h-44.71v67.267h-25.02v59.972h25.02v59.221h-25.02v59.971h25.02v59.224h-25.02v59.971h25.02v59.221h-25.02v59.972h25.02v59.224h-25.02v59.971h25.02v59.221h-25.02v59.975h25.02v59.221h-25.02v59.971h25.02v59.22h-25.02v59.98h25.02v59.22h-25.02v59.97h25.02v59.22h-25.02v59.97h25.02v59.22h-25.02v59.98h25.02v59.22h-25.02v59.97h25.02v59.22h-25.02v59.97h25.02v59.23h-25.02v59.97h25.02v227.24h495.22v-227.24h25.02v-59.97h-25.02v-59.23h25.02v-59.97h-25.02v-59.22h25.02v-59.97h-25.02v-59.22h25.02v-59.98h-25.02v-59.22h25.02v-59.97h-25.02v-59.22h25.02v-59.97h-25.02v-59.22h25.02v-59.98h-25.02v-59.22h25.02v-59.971h-25.02v-59.221h25.02v-59.975h-25.02v-59.221h25.02v-59.971h-25.02v-59.224h25.02v-59.972h-25.02v-59.221h25.02v-59.971h-25.02v-59.224h25.02v-59.971h-25.02v-59.221h25.02z" fill="#B1B1B1"/>
<path d="m94.777 355.01h-39.008v39.008h39.008v-39.008z" fill="#BABABA"/>
<path d="m173.72 355.01h-39.008v39.008h39.008v-39.008z" fill="#BABABA"/>
<path d="m252.66 355.01h-39.008v39.008h39.008v-39.008z" fill="#BABABA"/>
<path d="m331.61 355.01h-39.007v39.008h39.007v-39.008z" fill="#BABABA"/>
<path d="m410.55 355.01h-39.007v39.008h39.007v-39.008z" fill="#BABABA"/>
<path d="m489.5 355.01h-39.008v39.008h39.008v-39.008z" fill="#BABABA"/>
<path d="m94.777 471.1h-39.008v39.007h39.008v-39.007z" fill="#BABABA"/>
<path d="m173.72 471.1h-39.008v39.007h39.008v-39.007z" fill="#BABABA"/>
<path d="m252.66 471.1h-39.008v39.007h39.008v-39.007z" fill="#BABABA"/>
<path d="m331.61 471.1h-39.007v39.007h39.007v-39.007z" fill="#BABABA"/>
<path d="m410.55 471.1h-39.007v39.007h39.007v-39.007z" fill="#BABABA"/>
<path d="m489.5 471.1h-39.008v39.007h39.008v-39.007z" fill="#BABABA"/>
<path d="m94.777 590.91h-39.008v39.007h39.008v-39.007z" fill="#BABABA"/>
<path d="m173.72 590.91h-39.008v39.007h39.008v-39.007z" fill="#BABABA"/>
<path d="m252.66 590.91h-39.008v39.007h39.008v-39.007z" fill="#BABABA"/>
<path d="m331.61 590.91h-39.007v39.007h39.007v-39.007z" fill="#BABABA"/>
<path d="m410.55 590.91h-39.007v39.007h39.007v-39.007z" fill="#BABABA"/>
<path d="m489.5 590.91h-39.008v39.007h39.008v-39.007z" fill="#BABABA"/>
<path d="m94.777 710.72h-39.008v39.008h39.008v-39.008z" fill="#BABABA"/>
<path d="m173.72 710.72h-39.008v39.008h39.008v-39.008z" fill="#BABABA"/>
<path d="m252.66 710.72h-39.008v39.008h39.008v-39.008z" fill="#BABABA"/>
<path d="m331.61 710.72h-39.007v39.008h39.007v-39.008z" fill="#BABABA"/>
<path d="m410.55 710.72h-39.007v39.008h39.007v-39.008z" fill="#BABABA"/>
<path d="m489.5 710.72h-39.008v39.008h39.008v-39.008z" fill="#BABABA"/>
<path d="m94.777 826.81h-39.008v39.008h39.008v-39.008z" fill="#BABABA"/>
<path d="m173.72 826.81h-39.008v39.008h39.008v-39.008z" fill="#BABABA"/>
<path d="m252.66 826.81h-39.008v39.008h39.008v-39.008z" fill="#BABABA"/>
<path d="m331.61 826.81h-39.007v39.008h39.007v-39.008z" fill="#BABABA"/>
<path d="m410.55 826.81h-39.007v39.008h39.007v-39.008z" fill="#BABABA"/>
<path d="m489.5 826.81h-39.008v39.008h39.008v-39.008z" fill="#BABABA"/>
<path d="m94.777 946.62h-39.008v39.007h39.008v-39.007z" fill="#BABABA"/>
<path d="m173.72 946.62h-39.008v39.007h39.008v-39.007z" fill="#BABABA"/>
<path d="m252.66 946.62h-39.008v39.007h39.008v-39.007z" fill="#BABABA"/>
<path d="m331.61 946.62h-39.007v39.007h39.007v-39.007z" fill="#BABABA"/>
<path d="m410.55 946.62h-39.007v39.007h39.007v-39.007z" fill="#BABABA"/>
<path d="m489.5 946.62h-39.008v39.007h39.008v-39.007z" fill="#BABABA"/>
<path d="m94.777 1070.2h-39.008v39h39.008v-39z" fill="#BABABA"/>
<path d="m173.72 1070.2h-39.008v39h39.008v-39z" fill="#BABABA"/>
<path d="m252.66 1070.2h-39.008v39h39.008v-39z" fill="#BABABA"/>
<path d="m331.61 1070.2h-39.007v39h39.007v-39z" fill="#BABABA"/>
<path d="m410.55 1070.2h-39.007v39h39.007v-39z" fill="#BABABA"/>
<path d="m489.5 1070.2h-39.008v39h39.008v-39z" fill="#BABABA"/>
<path d="m94.777 1190h-39.008v39h39.008v-39z" fill="#BABABA"/>
<path d="m173.72 1190h-39.008v39h39.008v-39z" fill="#BABABA"/>
<path d="m252.66 1190h-39.008v39h39.008v-39z" fill="#BABABA"/>
<path d="m331.61 1190h-39.007v39h39.007v-39z" fill="#BABABA"/>
<path d="m410.55 1190h-39.007v39h39.007v-39z" fill="#BABABA"/>
<path d="m489.5 1190h-39.008v39h39.008v-39z" fill="#BABABA"/>
<path d="m94.777 1306h-39.008v39.01h39.008v-39.01z" fill="#BABABA"/>
<path d="m173.72 1306h-39.008v39.01h39.008v-39.01z" fill="#BABABA"/>
<path d="m252.66 1306h-39.008v39.01h39.008v-39.01z" fill="#BABABA"/>
<path d="m331.61 1306h-39.007v39.01h39.007v-39.01z" fill="#BABABA"/>
<path d="m410.55 1306h-39.007v39.01h39.007v-39.01z" fill="#BABABA"/>
<path d="m489.5 1306h-39.008v39.01h39.008v-39.01z" fill="#BABABA"/>
<path d="m94.777 1425.9h-39.008v39.01h39.008v-39.01z" fill="#BABABA"/>
<path d="m173.72 1425.9h-39.008v39.01h39.008v-39.01z" fill="#BABABA"/>
<path d="m252.66 1425.9h-39.008v39.01h39.008v-39.01z" fill="#BABABA"/>
<path d="m331.61 1425.9h-39.007v39.01h39.007v-39.01z" fill="#BABABA"/>
<path d="m410.55 1425.9h-39.007v39.01h39.007v-39.01z" fill="#BABABA"/>
<path d="m489.5 1425.9h-39.008v39.01h39.008v-39.01z" fill="#BABABA"/>
<path d="m94.777 1542h-39.008v39.01h39.008v-39.01z" fill="#BABABA"/>
<path d="m173.72 1542h-39.008v39.01h39.008v-39.01z" fill="#BABABA"/>
<path d="m252.66 1542h-39.008v39.01h39.008v-39.01z" fill="#BABABA"/>
<path d="m331.61 1542h-39.007v39.01h39.007v-39.01z" fill="#BABABA"/>
<path d="m410.55 1542h-39.007v39.01h39.007v-39.01z" fill="#BABABA"/>
<path d="m489.5 1542h-39.008v39.01h39.008v-39.01z" fill="#BABABA"/>
<path d="m94.777 1669.2h-39.008v39.01h39.008v-39.01z" fill="#BABABA"/>
<path d="m173.72 1669.2h-39.008v39.01h39.008v-39.01z" fill="#BABABA"/>
<path d="m252.66 1669.2h-39.008v39.01h39.008v-39.01z" fill="#BABABA"/>
<path d="m331.61 1669.2h-39.007v39.01h39.007v-39.01z" fill="#BABABA"/>
<path d="m410.55 1669.2h-39.007v39.01h39.007v-39.01z" fill="#BABABA"/>
<path d="m489.5 1669.2h-39.008v39.01h39.008v-39.01z" fill="#BABABA"/>
<path d="m94.777 1783.7h-39.008v39.01h39.008v-39.01z" fill="#BABABA"/>
<path d="m173.72 1783.7h-39.008v39.01h39.008v-39.01z" fill="#BABABA"/>
<path d="m252.66 1783.7h-39.008v39.01h39.008v-39.01z" fill="#BABABA"/>
<path d="m331.61 1783.7h-39.007v39.01h39.007v-39.01z" fill="#BABABA"/>
<path d="m410.55 1783.7h-39.007v39.01h39.007v-39.01z" fill="#BABABA"/>
<path d="m489.5 1783.7h-39.008v39.01h39.008v-39.01z" fill="#BABABA"/>
</svg>
