<?xml version="1.0" encoding="UTF-8"?>
<svg viewBox="0 0 578 1342" xmlns="http://www.w3.org/2000/svg">
<path d="m234.58 272.86v-142.23l-124.22-83.617-0.041 143.1 124.26 82.745z" fill="#727272"/>
<path d="m554.6 459.41v-204.22l-43.915-29.345v-142.23l-124.22-83.617v1341.3h191.08v-870.53l-22.94-11.346z" fill="#B5B5B5"/>
<path d="m386.46 142.84v-142.84h-146.81v19.162h-52.701v45.29h-76.54v-17.42h-41.407v95.806h-38.896v233.42h-30.114v965.02h386.46v-1198.4z" fill="#666"/>
<path d="m386.42 142.84h-356.31v233.42h356.31v-233.42z" fill="#727272"/>
<path d="m386.42 64.604h-317.48v78.498h317.48v-78.498z" fill="#868686"/>
<path d="m386.42 376.26 168.18 83.153v-204.22l-168.18-112.09v233.15z" fill="#C6C6C6"/>
<path d="m510.69 225.85v-142.23l-124.22-83.617-0.041 143.1 124.26 82.744z" fill="#ccc"/>
<path d="m110.31 47.032h-41.299v20.295h41.299v-20.295z" fill="#868686"/>
<path d="m386.32 19.162h-199.36v53.964h199.36v-53.964z" fill="#868686"/>
<path d="M385.903 0H239.658V42.4773H385.903V0Z" fill="#868686"/>
<path d="m240.86 33.751h-40.055v94.539h40.055v-94.539z" fill="#727272"/>
<path d="m187.17 128.29v-45.995h-77.335v45.995h77.335z" fill="#727272"/>
<path d="m295.77 33.751h-40.055v94.539h40.055v-94.539z" fill="#727272"/>
<path d="m350.69 33.751h-40.055v94.539h40.055v-94.539z" fill="#727272"/>
<path d="m51.55 405.1h-30.983v30.983h30.983v-30.983z" fill="#565656"/>
<path d="m103.25 405.1h-30.983v30.983h30.983v-30.983z" fill="#565656"/>
<path d="m154.95 405.1h-30.983v30.983h30.983v-30.983z" fill="#565656"/>
<path d="m206.65 405.1h-30.983v30.983h30.983v-30.983z" fill="#565656"/>
<path d="m258.34 405.1h-30.983v30.983h30.983v-30.983z" fill="#565656"/>
<path d="m310.04 405.1h-30.983v30.983h30.983v-30.983z" fill="#565656"/>
<path d="m361.74 405.1h-30.983v30.983h30.983v-30.983z" fill="#565656"/>
<path d="m51.55 458.08h-30.983v30.983h30.983v-30.983z" fill="#565656"/>
<path d="m103.25 458.08h-30.983v30.983h30.983v-30.983z" fill="#565656"/>
<path d="m154.95 458.08h-30.983v30.983h30.983v-30.983z" fill="#565656"/>
<path d="m206.65 458.08h-30.983v30.983h30.983v-30.983z" fill="#565656"/>
<path d="m258.34 458.08h-30.983v30.983h30.983v-30.983z" fill="#565656"/>
<path d="m310.04 458.08h-30.983v30.983h30.983v-30.983z" fill="#565656"/>
<path d="m361.74 458.08h-30.983v30.983h30.983v-30.983z" fill="#565656"/>
<path d="m51.55 511.07h-30.983v30.983h30.983v-30.983z" fill="#565656"/>
<path d="m103.25 511.07h-30.983v30.983h30.983v-30.983z" fill="#565656"/>
<path d="m154.95 511.07h-30.983v30.983h30.983v-30.983z" fill="#565656"/>
<path d="m206.65 511.07h-30.983v30.983h30.983v-30.983z" fill="#565656"/>
<path d="m258.34 511.07h-30.983v30.983h30.983v-30.983z" fill="#565656"/>
<path d="m310.04 511.07h-30.983v30.983h30.983v-30.983z" fill="#565656"/>
<path d="m361.74 511.07h-30.983v30.983h30.983v-30.983z" fill="#565656"/>
<path d="m51.55 564.06h-30.983v30.984h30.983v-30.984z" fill="#565656"/>
<path d="m103.25 564.06h-30.983v30.984h30.983v-30.984z" fill="#565656"/>
<path d="m154.95 564.06h-30.983v30.984h30.983v-30.984z" fill="#565656"/>
<path d="m206.65 564.06h-30.983v30.984h30.983v-30.984z" fill="#565656"/>
<path d="m258.34 564.06h-30.983v30.984h30.983v-30.984z" fill="#565656"/>
<path d="m310.04 564.06h-30.983v30.984h30.983v-30.984z" fill="#565656"/>
<path d="m361.74 564.06h-30.983v30.984h30.983v-30.984z" fill="#565656"/>
<path d="m51.55 617.05h-30.983v30.983h30.983v-30.983z" fill="#565656"/>
<path d="m103.25 617.05h-30.983v30.983h30.983v-30.983z" fill="#565656"/>
<path d="m154.95 617.05h-30.983v30.983h30.983v-30.983z" fill="#565656"/>
<path d="m206.65 617.05h-30.983v30.983h30.983v-30.983z" fill="#565656"/>
<path d="m258.34 617.05h-30.983v30.983h30.983v-30.983z" fill="#565656"/>
<path d="m310.04 617.05h-30.983v30.983h30.983v-30.983z" fill="#565656"/>
<path d="m361.74 617.05h-30.983v30.983h30.983v-30.983z" fill="#565656"/>
<path d="m51.55 670.04h-30.983v30.983h30.983v-30.983z" fill="#565656"/>
<path d="m103.25 670.04h-30.983v30.983h30.983v-30.983z" fill="#565656"/>
<path d="m154.95 670.04h-30.983v30.983h30.983v-30.983z" fill="#565656"/>
<path d="m206.65 670.04h-30.983v30.983h30.983v-30.983z" fill="#565656"/>
<path d="m258.34 670.04h-30.983v30.983h30.983v-30.983z" fill="#565656"/>
<path d="m310.04 670.04h-30.983v30.983h30.983v-30.983z" fill="#565656"/>
<path d="m361.74 670.04h-30.983v30.983h30.983v-30.983z" fill="#565656"/>
<path d="m51.55 723.03h-30.983v30.984h30.983v-30.984z" fill="#565656"/>
<path d="m103.25 723.03h-30.983v30.984h30.983v-30.984z" fill="#565656"/>
<path d="m154.95 723.03h-30.983v30.984h30.983v-30.984z" fill="#565656"/>
<path d="m206.65 723.03h-30.983v30.984h30.983v-30.984z" fill="#565656"/>
<path d="m258.34 723.03h-30.983v30.984h30.983v-30.984z" fill="#565656"/>
<path d="m310.04 723.03h-30.983v30.984h30.983v-30.984z" fill="#565656"/>
<path d="m361.74 723.03h-30.983v30.984h30.983v-30.984z" fill="#565656"/>
<path d="m51.55 776.02h-30.983v30.983h30.983v-30.983z" fill="#565656"/>
<path d="m103.25 776.02h-30.983v30.983h30.983v-30.983z" fill="#565656"/>
<path d="m154.95 776.02h-30.983v30.983h30.983v-30.983z" fill="#565656"/>
<path d="m206.65 776.02h-30.983v30.983h30.983v-30.983z" fill="#565656"/>
<path d="m258.34 776.02h-30.983v30.983h30.983v-30.983z" fill="#565656"/>
<path d="m310.04 776.02h-30.983v30.983h30.983v-30.983z" fill="#565656"/>
<path d="m361.74 776.02h-30.983v30.983h30.983v-30.983z" fill="#565656"/>
<path d="m51.55 829.01h-30.983v30.983h30.983v-30.983z" fill="#565656"/>
<path d="m103.25 829.01h-30.983v30.983h30.983v-30.983z" fill="#565656"/>
<path d="m154.95 829.01h-30.983v30.983h30.983v-30.983z" fill="#565656"/>
<path d="m206.65 829.01h-30.983v30.983h30.983v-30.983z" fill="#565656"/>
<path d="m258.34 829.01h-30.983v30.983h30.983v-30.983z" fill="#565656"/>
<path d="m310.04 829.01h-30.983v30.983h30.983v-30.983z" fill="#565656"/>
<path d="m361.74 829.01h-30.983v30.983h30.983v-30.983z" fill="#565656"/>
<path d="m51.55 882h-30.983v30.983h30.983v-30.983z" fill="#565656"/>
<path d="m103.25 882h-30.983v30.983h30.983v-30.983z" fill="#565656"/>
<path d="m154.95 882h-30.983v30.983h30.983v-30.983z" fill="#565656"/>
<path d="m206.65 882h-30.983v30.983h30.983v-30.983z" fill="#565656"/>
<path d="m258.34 882h-30.983v30.983h30.983v-30.983z" fill="#565656"/>
<path d="m310.04 882h-30.983v30.983h30.983v-30.983z" fill="#565656"/>
<path d="m361.74 882h-30.983v30.983h30.983v-30.983z" fill="#565656"/>
<path d="m51.55 934.99h-30.983v30.983h30.983v-30.983z" fill="#565656"/>
<path d="m103.25 934.99h-30.983v30.983h30.983v-30.983z" fill="#565656"/>
<path d="m154.95 934.99h-30.983v30.983h30.983v-30.983z" fill="#565656"/>
<path d="m206.65 934.99h-30.983v30.983h30.983v-30.983z" fill="#565656"/>
<path d="m258.34 934.99h-30.983v30.983h30.983v-30.983z" fill="#565656"/>
<path d="m310.04 934.99h-30.983v30.983h30.983v-30.983z" fill="#565656"/>
<path d="m361.74 934.99h-30.983v30.983h30.983v-30.983z" fill="#565656"/>
<path d="m51.55 987.98h-30.983v30.985h30.983v-30.985z" fill="#565656"/>
<path d="m103.25 987.98h-30.983v30.985h30.983v-30.985z" fill="#565656"/>
<path d="m154.95 987.98h-30.983v30.985h30.983v-30.985z" fill="#565656"/>
<path d="m206.65 987.98h-30.983v30.985h30.983v-30.985z" fill="#565656"/>
<path d="m258.34 987.98h-30.983v30.985h30.983v-30.985z" fill="#565656"/>
<path d="m310.04 987.98h-30.983v30.985h30.983v-30.985z" fill="#565656"/>
<path d="m361.74 987.98h-30.983v30.985h30.983v-30.985z" fill="#565656"/>
<path d="m51.55 1041h-30.983v30.99h30.983v-30.99z" fill="#565656"/>
<path d="m103.25 1041h-30.983v30.99h30.983v-30.99z" fill="#565656"/>
<path d="m154.95 1041h-30.983v30.99h30.983v-30.99z" fill="#565656"/>
<path d="m206.65 1041h-30.983v30.99h30.983v-30.99z" fill="#565656"/>
<path d="m258.34 1041h-30.983v30.99h30.983v-30.99z" fill="#565656"/>
<path d="m310.04 1041h-30.983v30.99h30.983v-30.99z" fill="#565656"/>
<path d="m361.74 1041h-30.983v30.99h30.983v-30.99z" fill="#565656"/>
<path d="m51.55 1094h-30.983v30.99h30.983v-30.99z" fill="#565656"/>
<path d="m103.25 1094h-30.983v30.99h30.983v-30.99z" fill="#565656"/>
<path d="m154.95 1094h-30.983v30.99h30.983v-30.99z" fill="#565656"/>
<path d="m206.65 1094h-30.983v30.99h30.983v-30.99z" fill="#565656"/>
<path d="m258.34 1094h-30.983v30.99h30.983v-30.99z" fill="#565656"/>
<path d="m310.04 1094h-30.983v30.99h30.983v-30.99z" fill="#565656"/>
<path d="m361.74 1094h-30.983v30.99h30.983v-30.99z" fill="#565656"/>
<path d="m51.55 1146.9h-30.983v30.99h30.983v-30.99z" fill="#565656"/>
<path d="m103.25 1146.9h-30.983v30.99h30.983v-30.99z" fill="#565656"/>
<path d="m154.95 1146.9h-30.983v30.99h30.983v-30.99z" fill="#565656"/>
<path d="m206.65 1146.9h-30.983v30.99h30.983v-30.99z" fill="#565656"/>
<path d="m258.34 1146.9h-30.983v30.99h30.983v-30.99z" fill="#565656"/>
<path d="m310.04 1146.9h-30.983v30.99h30.983v-30.99z" fill="#565656"/>
<path d="m361.74 1146.9h-30.983v30.99h30.983v-30.99z" fill="#565656"/>
<path d="m51.55 1199.9h-30.983v30.99h30.983v-30.99z" fill="#565656"/>
<path d="m103.25 1199.9h-30.983v30.99h30.983v-30.99z" fill="#565656"/>
<path d="m154.95 1199.9h-30.983v30.99h30.983v-30.99z" fill="#565656"/>
<path d="m206.65 1199.9h-30.983v30.99h30.983v-30.99z" fill="#565656"/>
<path d="m258.34 1199.9h-30.983v30.99h30.983v-30.99z" fill="#565656"/>
<path d="m310.04 1199.9h-30.983v30.99h30.983v-30.99z" fill="#565656"/>
<path d="m361.74 1199.9h-30.983v30.99h30.983v-30.99z" fill="#565656"/>
<path d="m51.55 1252.9h-30.983v30.98h30.983v-30.98z" fill="#565656"/>
<path d="m103.25 1252.9h-30.983v30.98h30.983v-30.98z" fill="#565656"/>
<path d="m154.95 1252.9h-30.983v30.98h30.983v-30.98z" fill="#565656"/>
<path d="m206.65 1252.9h-30.983v30.98h30.983v-30.98z" fill="#565656"/>
<path d="m258.34 1252.9h-30.983v30.98h30.983v-30.98z" fill="#565656"/>
<path d="m310.04 1252.9h-30.983v30.98h30.983v-30.98z" fill="#565656"/>
<path d="m361.74 1252.9h-30.983v30.98h30.983v-30.98z" fill="#565656"/>
<path d="m564.8 521.34-155.68-76.184v-31.871l155.68 76.187v31.868z" fill="#A1A1A1"/>
<path d="m564.8 571.44-155.68-76.187v-31.867l155.68 76.187v31.867z" fill="#A1A1A1"/>
<path d="m564.8 621.54-155.68-76.187v-31.872l155.68 76.188v31.871z" fill="#A1A1A1"/>
<path d="m564.8 671.64-155.68-76.188v-31.867l155.68 76.187v31.868z" fill="#A1A1A1"/>
<path d="m564.8 721.74-155.68-76.187v-31.867l155.68 76.183v31.871z" fill="#A1A1A1"/>
<path d="m564.8 771.83-155.68-76.187v-31.868l155.68 76.188v31.867z" fill="#A1A1A1"/>
<path d="m564.8 821.93-155.68-76.187v-31.867l155.68 76.183v31.871z" fill="#A1A1A1"/>
<path d="m564.8 872.03-155.68-76.183v-31.871l155.68 76.187v31.867z" fill="#A1A1A1"/>
<path d="m564.8 922.13-155.68-76.188v-31.867l155.68 76.188v31.867z" fill="#A1A1A1"/>
<path d="m564.8 972.23-155.68-76.187v-31.871l155.68 76.187v31.871z" fill="#A1A1A1"/>
<path d="m564.8 1022.3-155.68-76.19v-31.868l155.68 76.188v31.87z" fill="#A1A1A1"/>
<path d="m564.8 1072.4-155.68-76.19v-31.867l155.68 76.187v31.87z" fill="#A1A1A1"/>
<path d="m564.8 1122.5-155.68-76.18v-31.87l155.68 76.19v31.86z" fill="#A1A1A1"/>
<path d="m564.8 1172.6-155.68-76.18v-31.87l155.68 76.19v31.86z" fill="#A1A1A1"/>
<path d="m564.8 1222.7-155.68-76.19v-31.86l155.68 76.18v31.87z" fill="#A1A1A1"/>
<path d="m564.8 1272.8-155.68-76.19v-31.86l155.68 76.18v31.87z" fill="#A1A1A1"/>
<path d="m564.8 1322.9-155.68-76.18v-31.88l155.68 76.19v31.87z" fill="#A1A1A1"/>
<path d="m506.76 444.74h-24.185v872.81h24.185v-872.81z" fill="#B5B5B5"/>
<path d="m99.321 163.99h-31.473v191.4h31.473v-191.4z" fill="#666"/>
<path d="m160.34 163.99h-31.474v191.4h31.474v-191.4z" fill="#666"/>
<path d="m221.36 163.99h-31.473v191.4h31.473v-191.4z" fill="#666"/>
<path d="m282.37 163.99h-31.474v191.4h31.474v-191.4z" fill="#666"/>
<path d="m343.39 163.99h-31.473v191.4h31.473v-191.4z" fill="#666"/>
<path d="m447.44 388.22-31.469-17.416v-191.4l31.469 21.265v187.55z" fill="#B5B5B5"/>
<path d="m500.11 415.2-31.469-17.409v-187.55l31.469 21.269v183.69z" fill="#B5B5B5"/>
<path d="m544.65 438.32-29.768-17.412v-179.84l29.768 21.269v175.99z" fill="#B5B5B5"/>
<path d="m475.38 82.897-59.734-40.624v98.27l59.734 40.627v-98.273z" fill="#BEBEBE"/>
</svg>
