<svg width="579" height="419" viewBox="0 0 579 419" fill="none" xmlns="http://www.w3.org/2000/svg">
<path d="M264.812 418.406H276.378L276.378 0.00112915H264.812L264.812 418.406Z" fill="#545454"/>
<path d="M0.070962 418.016H11.3545L11.3545 0.21524H0.070962L0.070962 418.016Z" fill="#545454"/>
<path d="M19.7594 0.226562H11.3418V418.027H19.7594V0.226562Z" fill="#545454"/>
<path d="M284.089 0.0078125H276.378V418.413H284.089V0.0078125Z" fill="#545454"/>
<path d="M264.787 123.67V109.32L11.3446 109.32V123.67L264.787 123.67Z" fill="#545454"/>
<path d="M558.74 418.406H570.307V0.00112915H558.74V418.406Z" fill="#545454"/>
<path d="M294 418.016H305.283L305.283 0.21524H294L294 418.016Z" fill="#545454"/>
<path d="M313.688 0.226562H305.271V418.027H313.688V0.226562Z" fill="#545454"/>
<path d="M578.017 0.0078125H570.307V418.413H578.017V0.0078125Z" fill="#545454"/>
<path d="M558.716 123.67V109.32L305.273 109.32V123.67L558.716 123.67Z" fill="#545454"/>
</svg>
