<?xml version="1.0" encoding="UTF-8"?>
<svg fill="none" viewBox="0 0 725 448" xmlns="http://www.w3.org/2000/svg">
<path d="m725 320.86c0 0.15-39.521 0.26-88.273 0.26-48.753 0-88.288-0.11-88.288-0.26s39.521-0.26 88.288-0.26c48.766 0 88.273 0.12 88.273 0.26z" fill="#3D3D3D"/>
<path d="M725 297H548.439V431.58H725V297Z" fill="#E0E0E0"/>
<path d="m725 320.02c0 0.15-39.574 0.29-88.394 0.31-48.819 0.02-88.393-0.06-88.393-0.21s39.561-0.28 88.393-0.31c48.833-0.03 88.394 0.07 88.394 0.21z" fill="#3D3D3D"/>
<path d="m648.31 305.1h-30.834v8.29h30.834v-8.29z" fill="#3D3D3D"/>
<path d="m677.86 309.25s0-0.47-0.346-1.27c-0.426-1.119-1.334-2.1-2.58-2.79-1.001-0.562-2.19-0.903-3.433-0.986-1.244-0.082-2.494 0.097-3.61 0.518-1.117 0.42-2.055 1.066-2.711 1.865s-1.003 1.719-1.003 2.658 0.347 1.859 1.003 2.658c0.656 0.798 1.594 1.444 2.711 1.865 1.116 0.421 2.366 0.6 3.61 0.517 1.243-0.083 2.432-0.424 3.433-0.985 1.246-0.69 2.154-1.672 2.58-2.79 0.293-0.79 0.28-1.26 0.346-1.26 0.067 0 0 0.11 0 0.34 6e-3 0.336-0.039 0.671-0.133 1-0.358 1.191-1.256 2.252-2.54 3-0.962 0.568-2.1 0.944-3.307 1.092-1.207 0.149-2.445 0.065-3.597-0.242-1.378-0.362-2.576-1.032-3.432-1.92-0.941-0.946-1.449-2.095-1.449-3.275 0-1.181 0.508-2.33 1.449-3.275 0.861-0.883 2.057-1.549 3.432-1.91 1.152-0.307 2.388-0.391 3.595-0.245 1.206 0.147 2.344 0.52 3.309 1.085 1.279 0.751 2.176 1.81 2.54 3 0.094 0.328 0.139 0.664 0.133 1 0.04 0.23 0.027 0.35 0 0.35z" fill="#3D3D3D"/>
<path d="m606.04 309.25c3e-3 0.525-0.201 1.038-0.587 1.475s-0.936 0.779-1.579 0.981c-0.644 0.202-1.354 0.256-2.038 0.155-0.685-0.101-1.314-0.353-1.809-0.723-0.494-0.37-0.831-0.843-0.968-1.357s-0.068-1.048 0.198-1.532c0.267-0.485 0.719-0.9 1.298-1.191 0.58-0.292 1.263-0.448 1.96-0.448 0.933 0 1.828 0.278 2.488 0.773 0.661 0.495 1.034 1.166 1.037 1.867z" fill="#646464"/>
<path d="m596.1 309.25c0 0.523-0.206 1.033-0.592 1.467s-0.934 0.773-1.576 0.972c-0.642 0.2-1.348 0.253-2.029 0.151s-1.307-0.354-1.798-0.723-0.826-0.839-0.961-1.352c-0.136-0.512-0.066-1.042 0.199-1.525 0.266-0.482 0.716-0.895 1.294-1.185 0.577-0.29 1.256-0.445 1.951-0.445 0.931 0 1.825 0.279 2.483 0.774 0.659 0.495 1.029 1.166 1.029 1.866z" fill="#646464"/>
<path d="m586.18 309.25c0 0.523-0.206 1.033-0.592 1.467s-0.934 0.773-1.576 0.972c-0.642 0.2-1.348 0.253-2.029 0.151s-1.307-0.354-1.798-0.723-0.826-0.839-0.961-1.352c-0.136-0.512-0.066-1.042 0.2-1.525 0.265-0.482 0.716-0.895 1.293-1.185 0.578-0.29 1.256-0.445 1.951-0.445 0.931 0 1.825 0.279 2.483 0.774 0.659 0.495 1.029 1.166 1.029 1.866z" fill="#646464"/>
<path d="m698.66 309.25c-0.08 0 0-0.47-0.359-1.27-0.426-1.116-1.328-2.096-2.567-2.79-0.91-0.5-1.97-0.824-3.086-0.943-1.116-0.118-2.254-0.028-3.313 0.263-0.902 0.255-1.72 0.653-2.4 1.167-0.68 0.513-1.205 1.131-1.54 1.81s-0.472 1.405-0.402 2.127c0.07 0.723 0.346 1.425 0.809 2.061 0.462 0.635 1.101 1.189 1.873 1.623 0.771 0.434 1.658 0.738 2.6 0.892 0.941 0.154 1.916 0.154 2.858 1e-3 0.942-0.154 1.828-0.457 2.601-0.891 1.239-0.693 2.141-1.673 2.567-2.79 0.293-0.79 0.279-1.26 0.359-1.26 0.018 0.113 0.018 0.227 0 0.34 0.013 0.336-0.032 0.673-0.133 1-0.358 1.192-1.256 2.252-2.541 3-1.08 0.628-2.372 1.017-3.73 1.12-1.359 0.104-2.729-0.08-3.955-0.532s-2.259-1.154-2.981-2.025c-0.723-0.87-1.106-1.876-1.106-2.903 1e-3 -1.18 0.504-2.33 1.437-3.28 0.577-0.588 1.306-1.082 2.142-1.455s1.762-0.617 2.726-0.717c0.963-0.099 1.943-0.053 2.882 0.136s1.818 0.518 2.585 0.966c1.28 0.752 2.177 1.811 2.541 3 0.1 0.328 0.145 0.664 0.133 1 0.018 0.117 0.018 0.234 0 0.35z" fill="#3D3D3D"/>
<path d="m647.81 419.27h-29.305v4.92h29.305v-4.92z" fill="#3D3D3D"/>
<path d="m548.44 431.23v0.64 2h-0.186c-0.147-7.71-0.253-34.83-0.253-67.06 0-19.24 0.08-36.66 0.106-49.3 0-6.29 0.08-11.38 0.107-14.94 0-1.74 0-3.1 0.066-4.06v-1.06c-0.059-7e-3 -0.112-0.031-0.149-0.067s-0.054-0.08-0.049-0.125 0.032-0.087 0.076-0.118c0.044-0.03 0.102-0.047 0.162-0.047s0.118 0.017 0.162 0.047c0.045 0.031 0.072 0.073 0.077 0.118s-0.013 0.089-0.05 0.125c-0.036 0.036-0.09 0.06-0.149 0.067v1.06c0 1 0 2.32 0.067 4.06 0 3.56 0 8.65 0.119 14.94 0 12.64 0 30.06 0.094 49.3 0 32.23-0.107 59.35-0.253 67.06h-0.186v-2c0-0.46 0.239-0.64 0.239-0.64z" fill="#3D3D3D"/>
<path d="M547.56 297H410V431.99H547.56V297Z" fill="#fff"/>
<path d="M547.56 297H410V320.12H547.56V297Z" fill="#E0E0E0"/>
<path d="m460.6 307.28c-0.05 0 0-0.59-0.3-1.6-0.399-1.423-1.257-2.674-2.44-3.56-0.868-0.641-1.881-1.058-2.949-1.211-1.068-0.154-2.158-0.04-3.171 0.331-1.234 0.457-2.299 1.28-3.051 2.36s-1.155 2.364-1.155 3.68 0.403 2.6 1.155 3.68 1.817 1.904 3.051 2.36c1.013 0.374 2.103 0.49 3.171 0.336 1.069-0.154 2.083-0.572 2.949-1.216 1.184-0.88 2.042-2.129 2.44-3.55 0.27-1 0.25-1.61 0.3-1.61 0.023 0.143 0.023 0.288 0 0.43-5e-3 0.415-0.055 0.827-0.15 1.23-0.333 1.507-1.186 2.849-2.41 3.79-1.018 0.785-2.236 1.269-3.515 1.397s-2.568-0.105-3.722-0.672c-1.153-0.568-2.125-1.447-2.804-2.538-0.679-1.092-1.039-2.351-1.039-3.637 5e-3 -1.472 0.478-2.904 1.35-4.09 0.542-0.738 1.227-1.359 2.013-1.828 0.786-0.47 1.658-0.777 2.565-0.903 0.907-0.127 1.83-0.071 2.715 0.165 0.885 0.235 1.713 0.645 2.437 1.206 1.224 0.945 2.077 2.29 2.41 3.8 0.095 0.4 0.146 0.809 0.15 1.22 0.024 0.143 0.024 0.288 0 0.43z" fill="#3D3D3D"/>
<path d="m510.94 307.28c-0.05 0 0-0.59-0.3-1.6-0.399-1.423-1.256-2.675-2.44-3.56-0.867-0.642-1.881-1.058-2.949-1.212s-2.157-0.04-3.171 0.332c-1.234 0.456-2.298 1.28-3.05 2.36-0.752 1.079-1.155 2.364-1.155 3.68 0 1.315 0.403 2.6 1.155 3.68 0.752 1.079 1.816 1.903 3.05 2.36 1.013 0.373 2.103 0.489 3.172 0.335 1.069-0.153 2.082-0.571 2.948-1.215 1.185-0.881 2.043-2.13 2.44-3.55 0.27-1 0.25-1.61 0.3-1.61 0.026 0.142 0.026 0.287 0 0.43 5e-3 0.414-0.042 0.827-0.14 1.23-0.337 1.505-1.189 2.846-2.41 3.79-1.314 1.011-2.951 1.514-4.607 1.415s-3.221-0.794-4.405-1.955c-1.185-1.162-1.91-2.712-2.042-4.366s0.339-3.3 1.324-4.634c0.542-0.739 1.226-1.362 2.012-1.832s1.659-0.778 2.566-0.904c0.907-0.127 1.831-0.071 2.716 0.166 0.885 0.236 1.713 0.647 2.436 1.21 1.222 0.947 2.074 2.291 2.41 3.8 0.099 0.399 0.146 0.809 0.14 1.22 0.03 0.29 0.02 0.43 0 0.43z" fill="#3D3D3D"/>
<path d="m490.15 301.4h-22.62v10.7h22.62v-10.7z" fill="#3D3D3D"/>
<path d="m474.74 316.16c0 0.396-0.117 0.782-0.337 1.111s-0.532 0.586-0.897 0.737c-0.366 0.151-0.768 0.191-1.156 0.114s-0.744-0.268-1.024-0.548c-0.28-0.279-0.47-0.636-0.547-1.024-0.078-0.388-0.038-0.79 0.113-1.155 0.152-0.366 0.408-0.678 0.737-0.898s0.716-0.337 1.111-0.337c0.531 0 1.039 0.211 1.414 0.586 0.376 0.375 0.586 0.884 0.586 1.414z" fill="#3D3D3D"/>
<path d="m480.98 316.16c0 0.396-0.117 0.782-0.337 1.111-0.219 0.329-0.532 0.586-0.897 0.737-0.366 0.151-0.768 0.191-1.156 0.114s-0.744-0.268-1.024-0.548c-0.279-0.279-0.47-0.636-0.547-1.024s-0.038-0.79 0.114-1.155c0.151-0.366 0.407-0.678 0.736-0.898s0.716-0.337 1.111-0.337c0.531 0 1.04 0.211 1.415 0.586s0.585 0.884 0.585 1.414z" fill="#3D3D3D"/>
<path d="m487.21 316.16c0 0.396-0.117 0.782-0.337 1.111s-0.532 0.586-0.898 0.737c-0.365 0.151-0.767 0.191-1.155 0.114s-0.745-0.268-1.024-0.548c-0.28-0.279-0.47-0.636-0.548-1.024-0.077-0.388-0.037-0.79 0.114-1.155 0.152-0.366 0.408-0.678 0.737-0.898s0.715-0.337 1.111-0.337c0.53 0 1.039 0.211 1.414 0.586s0.586 0.884 0.586 1.414z" fill="#3D3D3D"/>
<path d="m536.59 327.2h-114.57c-1.823 0-3.3 1.478-3.3 3.3v0.73c0 1.823 1.477 3.3 3.3 3.3h114.57c1.822 0 3.3-1.477 3.3-3.3v-0.73c0-1.822-1.478-3.3-3.3-3.3z" fill="#E0E0E0"/>
<path d="m536.59 334.53c0.215-0.016 0.429-0.047 0.64-0.09 0.616-0.131 1.182-0.437 1.63-0.88 0.365-0.36 0.645-0.798 0.818-1.281s0.235-0.999 0.182-1.509c0.046-0.69-0.129-1.377-0.5-1.961-0.37-0.585-0.916-1.036-1.56-1.289-0.798-0.216-1.628-0.287-2.45-0.21h-24.42l-88.85 0.07c-0.753-3e-3 -1.479 0.277-2.035 0.785-0.555 0.507-0.9 1.205-0.965 1.955-0.045 0.512-0.045 1.028 0 1.54 0.078 0.487 0.275 0.946 0.573 1.339 0.298 0.392 0.689 0.705 1.137 0.911 0.451 0.207 0.944 0.306 1.44 0.29h37.61l39.95 0.06 26.95 0.2h7.32l-7.32 0.05-26.93 0.08-39.95 0.05h-37.68c-0.872 0.035-1.726-0.251-2.401-0.804s-1.123-1.335-1.259-2.196c-0.05-0.556-0.05-1.115 0-1.67 0.061-0.582 0.26-1.141 0.58-1.63 0.331-0.49 0.778-0.891 1.301-1.167 0.524-0.275 1.107-0.417 1.699-0.413l88.85 0.08h24.42c0.847-0.079 1.702 3e-3 2.52 0.24 0.676 0.271 1.249 0.751 1.636 1.369 0.386 0.619 0.566 1.344 0.514 2.071 0.055 0.521-6e-3 1.048-0.179 1.542-0.173 0.495-0.453 0.945-0.821 1.318-0.466 0.449-1.054 0.751-1.69 0.87-0.233 0.141-0.491 0.236-0.76 0.28z" fill="#3D3D3D"/>
<path d="m530.33 341.53h-104.04v59.02h104.04v-59.02z" fill="#3D3D3D"/>
<path d="m478.31 341.53-52.02 50.18v8.83h26.01l60.37-59.01h-34.36z" fill="#646464"/>
<path d="m452.31 400.57h-26.05v-8.87l52-50.19h34.48l-60.43 59.06zm-26-0.05h26l60.32-59h-34.31l-52 50.17-0.01 8.83z" fill="#3D3D3D"/>
<path d="m464.84 400.54 59.15-59.14h6.34v9.89l-49.29 49.29-16.2-0.04z" fill="#646464"/>
<path d="m481.05 400.6h-16.26l59.15-59.16h6.37v9.93l-49.26 49.23zm-16.15-0.08h16.13l49.27-49.27v-9.79h-6.3l-59.1 59.06z" fill="#3D3D3D"/>
<path d="M410.08 296.645H233V432.105H410.08V296.645Z" fill="#6A6A6A"/>
<path d="m320.89 432.1c-0.14 0-0.33-30.31-0.42-67.7s0-67.71 0.11-67.71 0.33 30.31 0.41 67.71 0.04 67.7-0.1 67.7z" fill="#3B3B3B"/>
<path d="m321.46 179.41c-0.14 0-0.33-30.31-0.42-67.7s0-67.71 0.11-67.71 0.33 30.31 0.41 67.71 0.04 67.7-0.1 67.7z" fill="#3B3B3B"/>
<path d="m306.37 376.41h0.36c0.624 0 1.13-0.506 1.13-1.13v-21.83c0-0.624-0.506-1.13-1.13-1.13h-0.36c-0.624 0-1.13 0.506-1.13 1.13v21.83c0 0.624 0.506 1.13 1.13 1.13z" fill="#E0E0E0"/>
<path d="m335.62 376.01h0.36c0.624 0 1.13-0.506 1.13-1.13v-21.83c0-0.624-0.506-1.13-1.13-1.13h-0.36c-0.624 0-1.13 0.506-1.13 1.13v21.83c0 0.624 0.506 1.13 1.13 1.13z" fill="#E0E0E0"/>
<g opacity=".3">
<path d="m314.48 426.54v-0.62-1.78-6.88c0-6 0-14.78-0.07-25.84 0-22.1-0.07-53.36-0.12-90.06l0.24 0.24h-76.16l0.26-0.26c0 47.58 0 91.3-0.06 125.18l-0.2-0.21 55.52 0.11 15.27 0.05h5.38-5.33l-15.22 0.05-55.65 0.11h-0.2v-0.09c0-33.88 0-77.6-0.06-125.18v-0.26h76.68v0.24c0 36.76-0.08 68.08-0.11 90.22 0 11-0.05 19.78-0.07 25.78v6.84 1.75c0 0.4-0.1 0.61-0.1 0.61z" fill="#000"/>
</g>
<g opacity=".3">
<path d="m320.58 296.69c-0.834 0.999-1.8 1.88-2.87 2.62-0.962 0.873-2.035 1.616-3.19 2.21 0.83-1.002 1.796-1.884 2.87-2.62 0.961-0.874 2.034-1.617 3.19-2.21z" fill="#000"/>
</g>
<g opacity=".3">
<path d="m321.02 431.96c-1.231-0.702-2.37-1.555-3.39-2.54-1.132-0.856-2.159-1.842-3.06-2.94 1.23 0.705 2.369 1.558 3.39 2.54 1.136 0.853 2.163 1.84 3.06 2.94z" fill="#000"/>
</g>
<g opacity=".3">
<path d="m402.84 426.54v-0.62-1.78-6.88c0-6 0-14.78-0.07-25.84 0-22.1-0.07-53.36-0.12-90.06l0.24 0.24h-76.16l0.26-0.26c0 47.58 0 91.3-0.06 125.18l-0.2-0.21 55.52 0.11 15.27 0.05h5.38-5.33l-15.22 0.05-55.65 0.11h-0.2v-0.09c0-33.88 0-77.6-0.06-125.18v-0.26h76.67v0.24c0 36.76-0.08 68.08-0.11 90.22 0 11-0.05 19.78-0.07 25.78v6.84 1.75c0 0.4-0.09 0.61-0.09 0.61z" fill="#000"/>
</g>
<g opacity=".3">
<path d="m326.73 301.03c-1.128-0.555-2.206-1.207-3.22-1.95-1.12-0.604-2.114-1.415-2.93-2.39 1.123 0.583 2.2 1.251 3.22 2 1.116 0.588 2.11 1.382 2.93 2.34z" fill="#000"/>
</g>
<g opacity=".3">
<path d="m326.6 426.7c-0.706 1.121-1.615 2.102-2.68 2.89-0.934 0.91-1.937 1.746-3 2.5 0.706-1.121 1.615-2.101 2.68-2.89 0.934-0.91 1.937-1.746 3-2.5z" fill="#000"/>
</g>
<path d="m716 432h-483v15h483v-15z" fill="#3B3B3B"/>
<path d="m725 293h-492v4h492v-4z" fill="#3B3B3B"/>
<path d="m309.25 293.42h-61.1v-3.89h61.1v3.89zm-60.1-1h59.1v-1.89h-59.1v1.89z" fill="#3B3B3B"/>
<path d="m278.52 289.54h-4v-24.6c0-2.204 0.875-4.318 2.433-5.876 1.559-1.558 3.673-2.434 5.877-2.434 2.203 0 4.317 0.876 5.876 2.434 1.558 1.558 2.434 3.672 2.434 5.876v1.11h-4v-1.11c0-1.143-0.455-2.239-1.263-3.048-0.808-0.808-1.904-1.262-3.047-1.262-1.144 0-2.24 0.454-3.048 1.262-0.808 0.809-1.262 1.905-1.262 3.048v24.6z" fill="#3B3B3B"/>
<path d="m291.59 265.23h-4.9c-0.657 0-1.19 0.533-1.19 1.19v0.26c0 0.658 0.533 1.19 1.19 1.19h4.9c0.657 0 1.19-0.532 1.19-1.19v-0.26c0-0.657-0.533-1.19-1.19-1.19z" fill="#3B3B3B"/>
<path d="m264.66 284.04h-7.67v2.62h7.67v-2.62z" fill="#3B3B3B"/>
<path d="m295.81 284.04h-7.67v2.62h7.67v-2.62z" fill="#3B3B3B"/>
<path d="M225.94 24H8.08984V447.07H225.94V24Z" fill="#3B3B3B"/>
<path d="m232.37 45.01h-232.11v388.32h232.11v-388.32z" fill="#E0E0E0"/>
<path d="m232.34 433.33c0-2.19-0.1-160.54-0.24-388.32l0.24 0.24-232 0.02 0.26-0.26c0 147.83 1e-6 283.57-0.059999 388.32l-0.2-0.21 232 0.21-232.08 0.2h-0.2v-0.2c0-104.75 5e-7 -240.49-0.06-388.32v-0.26h232.66v0.24c-0.19 227.8-0.32 386.15-0.32 388.34z" fill="#3B3B3B"/>
<path d="m57.02 172.11h-43.69v58.45h43.69v-58.45z" fill="#3B3B3B"/>
<path d="m57.02 235.07h-43.69v64.29h43.69v-64.29z" fill="#3B3B3B"/>
<path d="m47.61 235.07h-25.96v9.54h25.96v-9.54z" fill="#696969"/>
<path d="m71.07 150.82h-0.67c-1.6403 0-2.97 1.33-2.97 2.97v165.13c0 1.641 1.3297 2.97 2.97 2.97h0.67c1.6403 0 2.97-1.329 2.97-2.97v-165.13c0-1.64-1.3297-2.97-2.97-2.97z" fill="#fff"/>
<path d="m71.059 321.89c0.3013-0.023 0.5995-0.077 0.89-0.16 0.4142-0.141 0.7926-0.37 1.1087-0.673 0.3161-0.302 0.5623-0.67 0.7213-1.077 0.1913-0.618 0.2559-1.267 0.19-1.91v-2.36-5.89c0-8.87 0-21.69-0.09-37.53s0-34.72-0.05-55.66v-32.87-28.52c0.0392-0.725 0.0057-1.452-0.1-2.17-0.1872-0.67-0.6238-1.242-1.22-1.6-0.6255-0.342-1.3427-0.478-2.05-0.39-0.6951-1e-3 -1.364 0.265-1.8684 0.743-0.5044 0.479-0.8057 1.133-0.8416 1.827v4.47 8.9 17.39 32.88c0 21 0 39.82-0.06 55.67s-0.06 28.65-0.08 37.52v5.89c0 1.7-0.26 3.22 0.48 4.19 0.2463 0.36 0.568 0.661 0.9427 0.884 0.3748 0.223 0.7936 0.361 1.2273 0.406h0.9c-0.2997 0.018-0.6002 0.018-0.9 0-0.4494-0.032-0.8859-0.164-1.2771-0.387-0.3913-0.224-0.7272-0.532-0.9829-0.903-0.4125-0.523-0.6442-1.165-0.66-1.83v-2.36-5.89c0-8.87 0-21.69-0.09-37.52s0-34.72-0.05-55.67v-32.88-26.29-4.5c0.0381-0.829 0.3967-1.611 1-2.18 0.6029-0.569 1.4013-0.884 2.23-0.88 0.3893-0.034 0.7808-0.034 1.17 0 0.4061 0.067 0.7961 0.209 1.15 0.42 0.7071 0.431 1.2251 1.113 1.45 1.91 0.0984 0.385 0.1389 0.783 0.12 1.18v12.26 17.39 32.87c0 20.94 0 39.81-0.06 55.66s-0.06 28.66-0.08 37.53v5.89 2.36c0.06 0.658-0.0148 1.321-0.22 1.95-0.1672 0.419-0.4266 0.794-0.759 1.099s-0.7293 0.531-1.161 0.661c-0.3124 0.118-0.6464 0.169-0.98 0.15z" fill="#3B3B3B"/>
<path d="m90.439 41.18h-4.07v395.81h4.07v-395.81z" fill="#3B3B3B"/>
<path d="m90.949 437.53h-5.08v-396.85h5.08v396.85zm-4.08-1h3.08v-394.85h-3.08v394.85z" fill="#3B3B3B"/>
<path d="m47.05 178.49h-24.71v30.42h24.71v-30.42z" fill="#696969"/>
<path d="m29.45 213.46h-6.37v5.16h6.37v-5.16z" fill="#696969"/>
<path d="m38.04 213.46h-6.37v5.16h6.37v-5.16z" fill="#696969"/>
<path d="m46.63 213.46h-6.37v5.16h6.37v-5.16z" fill="#696969"/>
<path d="m29.45 220.96h-6.37v5.16h6.37v-5.16z" fill="#696969"/>
<path d="m38.04 220.96h-6.37v5.16h6.37v-5.16z" fill="#696969"/>
<path d="m46.63 220.96h-6.37v5.16h6.37v-5.16z" fill="#AD343E"/>
<path d="m50.22 290.56h-31.3v9.6h31.3v-9.6z" fill="#E0E0E0"/>
<g clip-path="url(#s)" clip-rule="evenodd" fill-rule="evenodd">
<path d="m184.7 121.42 3.085 1.284 0.562 4.05 3.29-2.446 3.057 1.274-8.649 6.699-1.345-10.861z" fill="#000"/>
<path d="m181.41 120.04 2.26 17.939 14.384-11.008-3.359-1.399-8.649 6.7-1.345-10.862-3.291-1.37z" fill="#757575"/>
</g>
<g clip-path="url(#i)">
<path d="m159 133.5 8.84 3.15-1.34 11.7-7.5 4.15-7.5-4.15-1.34-11.7 8.84-3.15zm0 2.1-5.53 12.4h2.06l1.11-2.78h4.7l1.11 2.78h2.05l-5.5-12.4zm1.62 7.9h-3.23l1.61-3.87 1.62 3.87z" fill="#000"/>
</g>
<g clip-path="url(#h)">
<path d="m138.83 131.7c0.332-0.162 0.608-0.418 0.794-0.736 0.187-0.319 0.275-0.685 0.253-1.054-0.021-0.368-0.151-0.722-0.373-1.016-0.223-0.295-0.527-0.517-0.875-0.639s-0.725-0.139-1.082-0.047c-0.358 0.091-0.68 0.286-0.927 0.561-0.247 0.274-0.407 0.615-0.46 0.98-0.053 0.366 3e-3 0.738 0.161 1.072 0.107 0.222 0.257 0.421 0.441 0.586s0.398 0.291 0.631 0.373 0.48 0.117 0.726 0.103c0.247-0.014 0.488-0.076 0.711-0.183zm-8.496-6.861c0.4-0.618 1.886-0.697 3.981-0.049-0.214 0.78-0.389 1.571-0.525 2.369-0.685 0.435-1.347 0.906-1.982 1.411-1.396-1.7-1.869-3.104-1.474-3.731zm3.154 4.849-0.037 0.585c-0.225-0.203-0.438-0.419-0.638-0.646 0.216-0.172 0.464-0.349 0.721-0.529l-0.046 0.59zm6.211-2.183 1.386 0.993-0.071 1.704c-0.037 0.607-0.119 1.17-0.174 1.72-0.472 0.263-0.984 0.513-1.524 0.776-0.539 0.263-1.051 0.513-1.537 0.749-0.466-0.295-0.96-0.577-1.462-0.922l-1.399-1.021 0.071-1.703c0.038-0.608 0.119-1.171 0.174-1.72 0.486-0.237 0.998-0.486 1.537-0.749 0.54-0.263 1.052-0.513 1.537-0.75 0.467 0.296 0.961 0.578 1.462 0.923zm0.59 7.188c-0.267-0.114-0.548-0.233-0.846-0.388l1.061-0.517c-0.062 0.33-0.141 0.624-0.215 0.905zm-4.575-9.384c0.268 0.115 0.548 0.234 0.846 0.389l-1.061 0.517c0.062-0.33 0.141-0.625 0.215-0.906zm9.946 9.859c-0.391 0.613-1.885 0.697-3.972 0.045 0.214-0.781 0.39-1.571 0.525-2.37 0.69-0.422 1.358-0.881 1.999-1.375 1.397 1.7 1.87 3.105 1.466 3.736m-3.145-4.853 0.037-0.585c0.225 0.202 0.438 0.418 0.638 0.645-0.217 0.173-0.464 0.349-0.721 0.53l0.046-0.59zm4.371 5.657c0.953-1.399 0.129-3.456-1.568-5.499 1.954-1.787 3.051-3.713 2.315-5.223s-2.929-1.832-5.54-1.393c-0.574-2.591-1.686-4.507-3.366-4.622-1.681-0.116-3.049 1.619-3.973 4.106-2.528-0.804-4.737-0.795-5.69 0.604-0.954 1.399-0.142 3.407 1.568 5.499-1.955 1.787-3.052 3.713-2.316 5.223s2.934 1.841 5.545 1.402c0.574 2.591 1.686 4.507 3.366 4.622 1.681 0.116 3.058-1.624 3.982-4.11 2.527 0.804 4.737 0.795 5.681-0.6m-4.34-8.242c-0.01-0.814-0.065-1.626-0.163-2.434 2.163-0.354 3.618-0.062 3.938 0.594s-0.373 1.995-1.958 3.469c-0.576-0.576-1.182-1.119-1.817-1.629zm-9.133 4.452c0.011 0.814 0.065 1.627 0.164 2.435-2.164 0.354-3.619 0.062-3.939-0.594s0.373-1.996 1.958-3.469c0.576 0.575 1.183 1.119 1.817 1.628zm7.1-5.975-0.493-0.327c0.278-0.136 0.592-0.177 0.861-0.242 0.056 0.298 0.095 0.598 0.116 0.9l-0.484-0.331zm-4.395-2.352c0.772-2.045 1.785-3.184 2.482-3.101s1.544 1.272 2.04 3.455c-0.784 0.202-1.556 0.445-2.315 0.728-0.717-0.398-1.453-0.759-2.207-1.082zm-0.672 9.85 0.493 0.327c-0.278 0.136-0.592 0.178-0.861 0.242-0.056-0.297-0.094-0.598-0.116-0.9l0.484 0.331zm4.395 2.352c-0.799 2.059-1.785 3.185-2.518 3.119-0.732-0.065-1.534-1.276-2.031-3.46 0.784-0.201 1.557-0.444 2.315-0.728 0.726 0.395 1.472 0.751 2.234 1.069z" fill="#000"/>
</g>
<g clip-path="url(#g)">
<path d="m136.1 179.82c-0.071 0.038-0.065 0.05 3e-3 0.015 0.022-9e-3 0.04-0.021 0.056-0.036 0-0.013 0-0.013-0.059 0.021zm0.142-0.077c-0.033 0.028-0.033 0.028 7e-3 0.01 0.021-0.013 0.04-0.025 0.04-0.028 0-0.016-9e-3 -0.013-0.047 0.018zm0.093-0.056c-0.034 0.028-0.034 0.028 7e-3 0.01 0.022-0.013 0.04-0.026 0.04-0.029 0-0.015-0.01-0.012-0.047 0.019zm0.094-0.055c-0.034 0.028-0.034 0.028 5e-3 9e-3 0.022-0.012 0.041-0.024 0.041-0.028 0-0.015-0.01-0.012-0.046 0.019zm0.126-0.084c-0.064 0.044-0.087 0.072-0.028 0.041 0.04-0.025 0.108-0.078 0.096-0.078-0.025 9e-3 -0.047 0.025-0.068 0.037zm-5.678-17.537c-0.043 3e-3 -0.173 0.015-0.287 0.025-2.7 0.244-5.227 1.698-6.828 3.937-0.885 1.227-1.46 2.653-1.677 4.15-0.076 0.522-0.086 0.676-0.086 1.385 0 0.708 0.01 0.86 0.086 1.382 0.517 3.569 3.056 6.565 6.497 7.675 0.62 0.198 1.269 0.335 2.008 0.418 0.287 0.031 1.53 0.031 1.817 0 1.278-0.142 2.357-0.457 3.425-1.002 0.163-0.083 0.194-0.105 0.172-0.123-0.522-0.69-1.035-1.38-1.549-2.075l-1.518-2.051-1.902-2.817c-0.634-0.943-1.27-1.883-1.917-2.817-6e-3 0-0.015 1.252-0.018 2.78-7e-3 2.674-7e-3 2.783-0.041 2.845-0.034 0.074-0.089 0.136-0.164 0.17-0.058 0.028-0.111 0.034-0.392 0.034h-0.321l-0.084-0.052c-0.052-0.034-0.096-0.081-0.124-0.136l-0.04-0.084 3e-3 -3.723 7e-3 -3.724 0.058-0.074c0.038-0.046 0.084-0.083 0.136-0.111 0.078-0.037 0.109-0.043 0.43-0.043 0.377 0 0.44 0.015 0.539 0.123 0.769 1.147 1.536 2.297 2.291 3.451 1.234 1.872 2.92 4.425 3.748 5.678l1.506 2.28 0.074-0.05c0.724-0.482 1.383-1.057 1.951-1.713 1.197-1.37 1.973-3.056 2.236-4.855 0.077-0.522 0.087-0.677 0.087-1.385s-0.01-0.86-0.087-1.382c-0.517-3.569-3.056-6.565-6.497-7.676-0.644-0.204-1.306-0.343-1.976-0.414-0.18-0.019-1.408-0.041-1.562-0.024l-1e-3 -2e-3zm3.888 5.746c0.089 0.043 0.157 0.124 0.188 0.216 0.016 0.05 0.019 1.083 0.016 3.408l-7e-3 3.34-0.587-0.903-0.591-0.903v-2.424c0-1.572 7e-3 -2.453 0.015-2.496 0.028-0.1 0.096-0.183 0.186-0.235 0.074-0.037 0.102-0.04 0.396-0.04 0.275 0 0.322 3e-3 0.384 0.037z" fill="#000"/>
</g>
<g clip-path="url(#f)">
<path d="m111.96 176.86c-4.691-1.589-9.695 0.88-11.285 5.574-1.59 4.695 0.88 9.695 5.574 11.285 4.695 1.59 9.696-0.884 11.285-5.574 1.589-4.691-0.88-9.695-5.574-11.285zm-9.477 6.266 4.317 8.733c-3.594-1.213-5.534-5.14-4.317-8.733zm5.901 9.111-5.23-10.6c1.653-2.71 5.036-4.016 8.186-2.949 2.111 0.724 3.756 2.4 4.432 4.525l-1.225 0.483c-0.508-1.817-1.884-3.265-3.674-3.863-2.28-0.789-4.805-0.028-6.278 1.879l4.557 9.232c1.885-0.017 3.7-1.036 4.664-2.672l-2.859-0.968 0.422-1.244 4.323 1.464c-1.067 3.151-4.161 5.047-7.318 4.713z" fill="#3C3C3C"/>
</g>
<g clip-path="url(#e)">
<path d="m220.63 151.8h-7.665l0.183 1.6h7.3c-0.107 1.402-0.431 4.371-0.55 5.722l-4.1 1.039v3e-3l-9e-3 4e-3 -4.102-1.299-0.281-3.069h2.011l0.142 1.65 2.234 0.75h5e-3l2.231-0.72 0.229-2.48h-6.942c-0.034-0.321-0.465-4.486-0.541-4.8h10.034c-0.056 0.528-0.113 1.07-0.179 1.6zm-12.831-4.8 1.456 14.518 6.534 1.482 6.552-1.511 1.458-14.489h-16z" clip-rule="evenodd" fill="#000" fill-rule="evenodd"/>
</g>
<path d="m224.02 165.02-1.501 14.444-6.499 1.556-6.5-1.556-1.5-14.444h16zm-3.023 2.937h-10.055l0.243 1.744h5.1l-0.271 0.1-4.653 1.723 0.155 1.705 4.498 0.013 2.41 6e-3 -0.154 2.274-2.256 0.564v-1e-3l-0.019 4e-3 -2.179-0.489-0.132-1.411h-2.036l0.265 2.724 4.101 1.078v-2e-3l7e-3 2e-3 4.079-1.058 0.529-5.409h-4.627l0.012-5e-3 4.784-1.818 0.199-1.744z" fill="#000"/>
<path d="m158.01 95.306c0 5.0565 0.362 9.3045-2.133 11.818-1.403 1.415-3.617 2.248-6.342 2.248-4.468 0-6.949-2.176-8.532-5.188 1.524-0.974 3.082-1.915 4.67-2.825 0.648 1.812 2.835 3.848 5.304 2.595 1.564-0.796 1.384-3.207 1.384-5.8236v-16.604c-5e-3 -0.0816-0.01-0.163 0.057-0.173h5.592v13.952zm14.183-3.2859c-1.426-0.6104-3.198-1.3326-3.632-2.6525-0.487-1.4792 0.343-2.6978 1.268-3.1125 2.033-0.9132 4.456 0.5903 4.958 2.1329 1.53-0.9107 3.055-1.8269 4.439-2.8825-1.627-2.7019-4.012-4.6361-8.359-4.497-2.394 0.0765-4.192 0.8322-5.535 1.96-1.31 1.1004-2.322 2.6449-2.479 4.8429-0.471 6.5791 4.452 8.2584 8.648 10.089 1.322 0.577 2.793 1.1596 3.401 2.3063 1.255 2.366-0.968 3.926-2.882 4.093-3.073 0.268-5.145-1.53-6.342-3.401-1.495 0.926-3.12 1.722-4.555 2.709 1.995 3.509 5.267 5.78 10.378 5.765 5.214-0.014 9.079-2.528 9.397-7.263 0.431-6.4367-4.391-8.2422-8.705-10.089z" fill="#D3D3D3"/>
<g clip-path="url(#d)">
<path d="m178.94 180.75c0.205 0.067 0.372 0.29 0.501 0.667 0.133 0.393 0.145 0.721 0.035 0.984-0.11 0.264-0.366 0.51-0.767 0.739l-0.605 0.346-0.722-2.124 0.682-0.389c0.378-0.217 0.67-0.291 0.876-0.223zm-8.642 4.663-0.682 0.389 0.722 2.124 0.605-0.346c0.401-0.229 0.657-0.475 0.767-0.739 0.11-0.263 0.098-0.591-0.036-0.984-0.128-0.377-0.295-0.6-0.5-0.667-0.206-0.068-0.498 6e-3 -0.876 0.223zm13.008-5.719c1.439 2.517-1.274 6.775-6.059 9.511s-9.831 2.913-11.27 0.396 1.273-6.776 6.058-9.512c4.786-2.735 9.831-2.913 11.271-0.395zm-10.433 6.382c-3e-3 -0.244-0.046-0.489-0.13-0.737-0.205-0.602-0.525-0.978-0.962-1.129-0.436-0.152-0.943-0.063-1.518 0.266l-1.914 1.094 1.724 5.075 0.995-0.569-0.458-1.349 0.852-0.487c0.376-0.215 0.663-0.431 0.861-0.649 0.197-0.218 0.342-0.477 0.435-0.776 0.079-0.249 0.117-0.495 0.115-0.739zm4.087-0.979-0.802-2.362c-0.164-0.48-0.405-0.757-0.726-0.83-0.32-0.073-0.757 0.049-1.31 0.365l-0.88 0.503-0.458-1.349-0.987 0.564 1.723 5.075 0.988-0.564-0.988-2.908 0.789-0.451c0.253-0.144 0.442-0.197 0.567-0.157 0.125 0.039 0.231 0.186 0.318 0.442l0.763 2.245 1.003-0.573zm2.587-5.327c-0.436-0.152-0.943-0.063-1.518 0.266l-1.913 1.094 1.723 5.075 0.995-0.569-0.458-1.349 0.852-0.487c0.376-0.215 0.663-0.431 0.861-0.649 0.197-0.218 0.342-0.477 0.435-0.776 0.079-0.249 0.117-0.495 0.115-0.739-3e-3 -0.244-0.046-0.489-0.13-0.737-0.204-0.602-0.525-0.978-0.962-1.129z" fill="#000"/>
</g>
<g clip-path="url(#c)">
<path d="m159 193.5c2.472 0 4.889 0.733 6.945 2.107 2.055 1.373 3.657 3.325 4.603 5.609 0.947 2.285 1.194 4.798 0.712 7.223-0.482 2.424-1.673 4.652-3.421 6.4s-3.976 2.939-6.4 3.421c-2.425 0.482-4.938 0.235-7.223-0.712-2.284-0.946-4.236-2.548-5.609-4.603-1.374-2.056-2.107-4.473-2.107-6.945 0-3.315 1.317-6.495 3.661-8.839s5.524-3.661 8.839-3.661zm-2.5 16.662c0.188 0.611 0.188 1.265 0 1.875 0 0.063 0 0.125-0.075 0.213-0.075 0.087 0 0.087-0.088 0.15-0.144 0.309-0.338 0.592-0.575 0.837-0.725 0.8-1.762 1.1-2.175 0.85-0.412-0.25-0.212-1.4 0.613-2.287 0.646-0.637 1.388-1.169 2.2-1.575l0.1-0.063zm10.337-11.25c-0.562-2.225-4.25-2.95-7.725-1.712-2.178 0.713-4.196 1.847-5.937 3.337-1.913 1.8-2.225 3.363-2.1 4.013 0.425 2.3 3.6 3.812 4.9 4.925-0.375 0.187-3.175 1.6-3.85 3.05-0.285 0.453-0.38 1-0.263 1.523 0.117 0.522 0.437 0.977 0.888 1.264 0.802 0.194 1.644 0.132 2.408-0.178 0.765-0.309 1.413-0.85 1.854-1.547 0.366-0.562 0.594-1.202 0.668-1.868s-9e-3 -1.34-0.243-1.969c0.627-0.146 1.275-0.18 1.913-0.1 2.2 0.262 2.625 1.625 2.5 2.2-0.037 0.204-0.118 0.398-0.236 0.568-0.119 0.171-0.273 0.314-0.452 0.419-0.15 0.088-0.2 0.125-0.187 0.2 0.012 0.075 0.087 0.1 0.212 0.075 0.342-0.092 0.645-0.289 0.869-0.562 0.224-0.274 0.358-0.61 0.381-0.963 0-1.35-1.25-2.85-3.512-2.812-0.661-0.015-1.319 0.077-1.95 0.275l-0.1-0.113c-1.413-1.5-4.013-2.5-3.9-4.587 0-0.738 0.287-2.663 5-5 3.85-1.925 6.937-1.4 7.5-0.213 0.762 1.663-1.65 4.775-5.65 5.225-0.438 0.083-0.889 0.069-1.321-0.041s-0.834-0.314-1.179-0.596c-0.213-0.213-0.238-0.25-0.313-0.213-0.075 0.038 0 0.288 0 0.413 0.318 0.547 0.832 0.954 1.438 1.137 1.577 0.341 3.22 0.179 4.7-0.462 2.35-0.95 4.25-3.6 3.687-5.75v0.062z" fill="#3B3B3B"/>
</g>
<g clip-path="url(#b)">
<path d="m194.65 193.72c0.048 0.351 0.074 0.726 0.074 1.131 0 1.934-0.179 2.043-4.196 13.655 3.27-1.907 5.47-5.45 5.47-9.508 0-1.913-0.488-3.711-1.348-5.278zm-9.458 6.241-3.301 9.589c2.227 0.656 4.588 0.589 6.76-0.175-0.03-0.047-0.056-0.098-0.078-0.152l-3.381-9.262zm7.232-1.518c0-1.36-0.488-2.302-0.907-3.035-0.557-0.906-1.081-1.672-1.081-2.579 0-1.011 0.768-1.952 1.848-1.952 0.049 0 0.095 6e-3 0.142 9e-3 -1.957-1.793-4.564-2.888-7.428-2.888-3.842 0-7.224 1.971-9.19 4.958 0.7 0.022 1.641 0.031 3.639-0.126 0.593-0.035 0.663 0.836 0.071 0.905 0 0-0.596 0.071-1.26 0.106l4.006 11.915 2.407-7.22-1.713-4.696c-0.592-0.034-1.153-0.105-1.153-0.105-0.593-0.035-0.524-0.941 0.069-0.906 2.274 0.175 3.437 0.188 5.829 0 0.593-0.035 0.663 0.836 0.07 0.906 0 0-0.597 0.071-1.259 0.105l3.975 11.825c1.57-5.245 1.935-6.122 1.935-7.222zm-18.426 0.555c0 4.354 2.53 8.117 6.2 9.9l-5.247-14.377c-0.611 1.369-0.953 2.882-0.953 4.477z" clip-rule="evenodd" fill="#000" fill-rule="evenodd"/>
</g>
<path d="M225.94 24H8.08984V447.07H225.94V24Z" fill="#3B3B3B"/>
<path d="m232.37 45.01h-232.11v388.32h232.11v-388.32z" fill="#E0E0E0"/>
<path d="m232.34 433.33c0-2.19-0.1-160.54-0.24-388.32l0.24 0.24-232 0.02 0.26-0.26c0 147.83 1e-6 283.57-0.059999 388.32l-0.2-0.21 232 0.21-232.08 0.2h-0.2v-0.2c0-104.75 5e-7 -240.49-0.06-388.32v-0.26h232.66v0.24c-0.19 227.8-0.32 386.15-0.32 388.34z" fill="#3B3B3B"/>
<path d="m57.02 172.11h-43.69v58.45h43.69v-58.45z" fill="#3B3B3B"/>
<path d="m57.02 235.07h-43.69v64.29h43.69v-64.29z" fill="#3B3B3B"/>
<path d="m47.61 235.07h-25.96v9.54h25.96v-9.54z" fill="#696969"/>
<path d="m71.07 150.82h-0.67c-1.6403 0-2.97 1.33-2.97 2.97v165.13c0 1.641 1.3297 2.97 2.97 2.97h0.67c1.6403 0 2.97-1.329 2.97-2.97v-165.13c0-1.64-1.3297-2.97-2.97-2.97z" fill="#fff"/>
<path d="m71.059 321.89c0.3013-0.023 0.5995-0.077 0.89-0.16 0.4142-0.141 0.7926-0.37 1.1087-0.673 0.3161-0.302 0.5623-0.67 0.7213-1.077 0.1913-0.618 0.2559-1.267 0.19-1.91v-2.36-5.89c0-8.87 0-21.69-0.09-37.53s0-34.72-0.05-55.66v-32.87-28.52c0.0392-0.725 0.0057-1.452-0.1-2.17-0.1872-0.67-0.6238-1.242-1.22-1.6-0.6255-0.342-1.3427-0.478-2.05-0.39-0.6951-1e-3 -1.364 0.265-1.8684 0.743-0.5044 0.479-0.8057 1.133-0.8416 1.827v4.47 8.9 17.39 32.88c0 21 0 39.82-0.06 55.67s-0.06 28.65-0.08 37.52v5.89c0 1.7-0.26 3.22 0.48 4.19 0.2463 0.36 0.568 0.661 0.9427 0.884 0.3748 0.223 0.7936 0.361 1.2273 0.406h0.9c-0.2997 0.018-0.6002 0.018-0.9 0-0.4494-0.032-0.8859-0.164-1.2771-0.387-0.3913-0.224-0.7272-0.532-0.9829-0.903-0.4125-0.523-0.6442-1.165-0.66-1.83v-2.36-5.89c0-8.87 0-21.69-0.09-37.52s0-34.72-0.05-55.67v-32.88-26.29-4.5c0.0381-0.829 0.3967-1.611 1-2.18 0.6029-0.569 1.4013-0.884 2.23-0.88 0.3893-0.034 0.7808-0.034 1.17 0 0.4061 0.067 0.7961 0.209 1.15 0.42 0.7071 0.431 1.2251 1.113 1.45 1.91 0.0984 0.385 0.1389 0.783 0.12 1.18v12.26 17.39 32.87c0 20.94 0 39.81-0.06 55.66s-0.06 28.66-0.08 37.53v5.89 2.36c0.06 0.658-0.0148 1.321-0.22 1.95-0.1672 0.419-0.4266 0.794-0.759 1.099s-0.7293 0.531-1.161 0.661c-0.3124 0.118-0.6464 0.169-0.98 0.15z" fill="#3B3B3B"/>
<path d="m90.439 41.18h-4.07v395.81h4.07v-395.81z" fill="#3B3B3B"/>
<path d="m90.949 437.53h-5.08v-396.85h5.08v396.85zm-4.08-1h3.08v-394.85h-3.08v394.85z" fill="#3B3B3B"/>
<path d="m47.05 178.49h-24.71v30.42h24.71v-30.42z" fill="#696969"/>
<path d="m29.45 213.46h-6.37v5.16h6.37v-5.16z" fill="#696969"/>
<path d="m38.04 213.46h-6.37v5.16h6.37v-5.16z" fill="#696969"/>
<path d="m46.63 213.46h-6.37v5.16h6.37v-5.16z" fill="#696969"/>
<path d="m29.45 220.96h-6.37v5.16h6.37v-5.16z" fill="#696969"/>
<path d="m38.04 220.96h-6.37v5.16h6.37v-5.16z" fill="#696969"/>
<path d="m46.63 220.96h-6.37v5.16h6.37v-5.16z" fill="#AD343E"/>
<path d="m50.22 290.56h-31.3v9.6h31.3v-9.6z" fill="#E0E0E0"/>
<g clip-path="url(#a)" clip-rule="evenodd" fill-rule="evenodd">
<path d="m184.7 121.42 3.085 1.284 0.562 4.05 3.29-2.446 3.057 1.274-8.649 6.699-1.345-10.861z" fill="#000"/>
<path d="m181.41 120.04 2.26 17.939 14.384-11.008-3.359-1.399-8.649 6.7-1.345-10.862-3.291-1.37z" fill="#757575"/>
</g>
<g clip-path="url(#r)">
<path d="m159 133.5 8.84 3.15-1.34 11.7-7.5 4.15-7.5-4.15-1.34-11.7 8.84-3.15zm0 2.1-5.53 12.4h2.06l1.11-2.78h4.7l1.11 2.78h2.05l-5.5-12.4zm1.62 7.9h-3.23l1.61-3.87 1.62 3.87z" fill="#000"/>
</g>
<g clip-path="url(#q)">
<path d="m138.83 131.7c0.332-0.162 0.608-0.418 0.794-0.736 0.187-0.319 0.275-0.685 0.253-1.054-0.021-0.368-0.151-0.722-0.373-1.016-0.223-0.295-0.527-0.517-0.875-0.639s-0.725-0.139-1.082-0.047c-0.358 0.091-0.68 0.286-0.927 0.561-0.247 0.274-0.407 0.615-0.46 0.98-0.053 0.366 3e-3 0.738 0.161 1.072 0.107 0.222 0.257 0.421 0.441 0.586s0.398 0.291 0.631 0.373 0.48 0.117 0.726 0.103c0.247-0.014 0.488-0.076 0.711-0.183zm-8.496-6.861c0.4-0.618 1.886-0.697 3.981-0.049-0.214 0.78-0.389 1.571-0.525 2.369-0.685 0.435-1.347 0.906-1.982 1.411-1.396-1.7-1.869-3.104-1.474-3.731zm3.154 4.849-0.037 0.585c-0.225-0.203-0.438-0.419-0.638-0.646 0.216-0.172 0.464-0.349 0.721-0.529l-0.046 0.59zm6.211-2.183 1.386 0.993-0.071 1.704c-0.037 0.607-0.119 1.17-0.174 1.72-0.472 0.263-0.984 0.513-1.524 0.776-0.539 0.263-1.051 0.513-1.537 0.749-0.466-0.295-0.96-0.577-1.462-0.922l-1.399-1.021 0.071-1.703c0.038-0.608 0.119-1.171 0.174-1.72 0.486-0.237 0.998-0.486 1.537-0.749 0.54-0.263 1.052-0.513 1.537-0.75 0.467 0.296 0.961 0.578 1.462 0.923zm0.59 7.188c-0.267-0.114-0.548-0.233-0.846-0.388l1.061-0.517c-0.062 0.33-0.141 0.624-0.215 0.905zm-4.575-9.384c0.268 0.115 0.548 0.234 0.846 0.389l-1.061 0.517c0.062-0.33 0.141-0.625 0.215-0.906zm9.946 9.859c-0.391 0.613-1.885 0.697-3.972 0.045 0.214-0.781 0.39-1.571 0.525-2.37 0.69-0.422 1.358-0.881 1.999-1.375 1.397 1.7 1.87 3.105 1.466 3.736m-3.145-4.853 0.037-0.585c0.225 0.202 0.438 0.418 0.638 0.645-0.217 0.173-0.464 0.349-0.721 0.53l0.046-0.59zm4.371 5.657c0.953-1.399 0.129-3.456-1.568-5.499 1.954-1.787 3.051-3.713 2.315-5.223s-2.929-1.832-5.54-1.393c-0.574-2.591-1.686-4.507-3.366-4.622-1.681-0.116-3.049 1.619-3.973 4.106-2.528-0.804-4.737-0.795-5.69 0.604-0.954 1.399-0.142 3.407 1.568 5.499-1.955 1.787-3.052 3.713-2.316 5.223s2.934 1.841 5.545 1.402c0.574 2.591 1.686 4.507 3.366 4.622 1.681 0.116 3.058-1.624 3.982-4.11 2.527 0.804 4.737 0.795 5.681-0.6m-4.34-8.242c-0.01-0.814-0.065-1.626-0.163-2.434 2.163-0.354 3.618-0.062 3.938 0.594s-0.373 1.995-1.958 3.469c-0.576-0.576-1.182-1.119-1.817-1.629zm-9.133 4.452c0.011 0.814 0.065 1.627 0.164 2.435-2.164 0.354-3.619 0.062-3.939-0.594s0.373-1.996 1.958-3.469c0.576 0.575 1.183 1.119 1.817 1.628zm7.1-5.975-0.493-0.327c0.278-0.136 0.592-0.177 0.861-0.242 0.056 0.298 0.095 0.598 0.116 0.9l-0.484-0.331zm-4.395-2.352c0.772-2.045 1.785-3.184 2.482-3.101s1.544 1.272 2.04 3.455c-0.784 0.202-1.556 0.445-2.315 0.728-0.717-0.398-1.453-0.759-2.207-1.082zm-0.672 9.85 0.493 0.327c-0.278 0.136-0.592 0.178-0.861 0.242-0.056-0.297-0.094-0.598-0.116-0.9l0.484 0.331zm4.395 2.352c-0.799 2.059-1.785 3.185-2.518 3.119-0.732-0.065-1.534-1.276-2.031-3.46 0.784-0.201 1.557-0.444 2.315-0.728 0.726 0.395 1.472 0.751 2.234 1.069z" fill="#000"/>
</g>
<g clip-path="url(#p)">
<path d="m136.1 179.82c-0.071 0.038-0.065 0.05 3e-3 0.015 0.022-9e-3 0.04-0.021 0.056-0.036 0-0.013 0-0.013-0.059 0.021zm0.142-0.077c-0.033 0.028-0.033 0.028 7e-3 0.01 0.021-0.013 0.04-0.025 0.04-0.028 0-0.016-9e-3 -0.013-0.047 0.018zm0.093-0.056c-0.034 0.028-0.034 0.028 7e-3 0.01 0.022-0.013 0.04-0.026 0.04-0.029 0-0.015-0.01-0.012-0.047 0.019zm0.094-0.055c-0.034 0.028-0.034 0.028 5e-3 9e-3 0.022-0.012 0.041-0.024 0.041-0.028 0-0.015-0.01-0.012-0.046 0.019zm0.126-0.084c-0.064 0.044-0.087 0.072-0.028 0.041 0.04-0.025 0.108-0.078 0.096-0.078-0.025 9e-3 -0.047 0.025-0.068 0.037zm-5.678-17.537c-0.043 3e-3 -0.173 0.015-0.287 0.025-2.7 0.244-5.227 1.698-6.828 3.937-0.885 1.227-1.46 2.653-1.677 4.15-0.076 0.522-0.086 0.676-0.086 1.385 0 0.708 0.01 0.86 0.086 1.382 0.517 3.569 3.056 6.565 6.497 7.675 0.62 0.198 1.269 0.335 2.008 0.418 0.287 0.031 1.53 0.031 1.817 0 1.278-0.142 2.357-0.457 3.425-1.002 0.163-0.083 0.194-0.105 0.172-0.123-0.522-0.69-1.035-1.38-1.549-2.075l-1.518-2.051-1.902-2.817c-0.634-0.943-1.27-1.883-1.917-2.817-6e-3 0-0.015 1.252-0.018 2.78-7e-3 2.674-7e-3 2.783-0.041 2.845-0.034 0.074-0.089 0.136-0.164 0.17-0.058 0.028-0.111 0.034-0.392 0.034h-0.321l-0.084-0.052c-0.052-0.034-0.096-0.081-0.124-0.136l-0.04-0.084 3e-3 -3.723 7e-3 -3.724 0.058-0.074c0.038-0.046 0.084-0.083 0.136-0.111 0.078-0.037 0.109-0.043 0.43-0.043 0.377 0 0.44 0.015 0.539 0.123 0.769 1.147 1.536 2.297 2.291 3.451 1.234 1.872 2.92 4.425 3.748 5.678l1.506 2.28 0.074-0.05c0.724-0.482 1.383-1.057 1.951-1.713 1.197-1.37 1.973-3.056 2.236-4.855 0.077-0.522 0.087-0.677 0.087-1.385s-0.01-0.86-0.087-1.382c-0.517-3.569-3.056-6.565-6.497-7.676-0.644-0.204-1.306-0.343-1.976-0.414-0.18-0.019-1.408-0.041-1.562-0.024l-1e-3 -2e-3zm3.888 5.746c0.089 0.043 0.157 0.124 0.188 0.216 0.016 0.05 0.019 1.083 0.016 3.408l-7e-3 3.34-0.587-0.903-0.591-0.903v-2.424c0-1.572 7e-3 -2.453 0.015-2.496 0.028-0.1 0.096-0.183 0.186-0.235 0.074-0.037 0.102-0.04 0.396-0.04 0.275 0 0.322 3e-3 0.384 0.037z" fill="#000"/>
</g>
<g clip-path="url(#o)">
<path d="m111.96 176.86c-4.691-1.589-9.695 0.88-11.285 5.574-1.59 4.695 0.88 9.695 5.574 11.285 4.695 1.59 9.696-0.884 11.285-5.574 1.589-4.691-0.88-9.695-5.574-11.285zm-9.477 6.266 4.317 8.733c-3.594-1.213-5.534-5.14-4.317-8.733zm5.901 9.111-5.23-10.6c1.653-2.71 5.036-4.016 8.186-2.949 2.111 0.724 3.756 2.4 4.432 4.525l-1.225 0.483c-0.508-1.817-1.884-3.265-3.674-3.863-2.28-0.789-4.805-0.028-6.278 1.879l4.557 9.232c1.885-0.017 3.7-1.036 4.664-2.672l-2.859-0.968 0.422-1.244 4.323 1.464c-1.067 3.151-4.161 5.047-7.318 4.713z" fill="#3C3C3C"/>
</g>
<g clip-path="url(#n)">
<path d="m220.63 151.8h-7.665l0.183 1.6h7.3c-0.107 1.402-0.431 4.371-0.55 5.722l-4.1 1.039v3e-3l-9e-3 4e-3 -4.102-1.299-0.281-3.069h2.011l0.142 1.65 2.234 0.75h5e-3l2.231-0.72 0.229-2.48h-6.942c-0.034-0.321-0.465-4.486-0.541-4.8h10.034c-0.056 0.528-0.113 1.07-0.179 1.6zm-12.831-4.8 1.456 14.518 6.534 1.482 6.552-1.511 1.458-14.489h-16z" clip-rule="evenodd" fill="#000" fill-rule="evenodd"/>
</g>
<path d="m224.02 165.02-1.501 14.444-6.499 1.556-6.5-1.556-1.5-14.444h16zm-3.023 2.937h-10.055l0.243 1.744h5.1l-0.271 0.1-4.653 1.723 0.155 1.705 4.498 0.013 2.41 6e-3 -0.154 2.274-2.256 0.564v-1e-3l-0.019 4e-3 -2.179-0.489-0.132-1.411h-2.036l0.265 2.724 4.101 1.078v-2e-3l7e-3 2e-3 4.079-1.058 0.529-5.409h-4.627l0.012-5e-3 4.784-1.818 0.199-1.744z" fill="#000"/>
<path d="m158.01 95.306c0 5.0565 0.362 9.3045-2.133 11.818-1.403 1.415-3.617 2.248-6.342 2.248-4.468 0-6.949-2.176-8.532-5.188 1.524-0.974 3.082-1.915 4.67-2.825 0.648 1.812 2.835 3.848 5.304 2.595 1.564-0.796 1.384-3.207 1.384-5.8236v-16.604c-5e-3 -0.0816-0.01-0.163 0.057-0.173h5.592v13.952zm14.183-3.2859c-1.426-0.6104-3.198-1.3326-3.632-2.6525-0.487-1.4792 0.343-2.6978 1.268-3.1125 2.033-0.9132 4.456 0.5903 4.958 2.1329 1.53-0.9107 3.055-1.8269 4.439-2.8825-1.627-2.7019-4.012-4.6361-8.359-4.497-2.394 0.0765-4.192 0.8322-5.535 1.96-1.31 1.1004-2.322 2.6449-2.479 4.8429-0.471 6.5791 4.452 8.2584 8.648 10.089 1.322 0.577 2.793 1.1596 3.401 2.3063 1.255 2.366-0.968 3.926-2.882 4.093-3.073 0.268-5.145-1.53-6.342-3.401-1.495 0.926-3.12 1.722-4.555 2.709 1.995 3.509 5.267 5.78 10.378 5.765 5.214-0.014 9.079-2.528 9.397-7.263 0.431-6.4367-4.391-8.2422-8.705-10.089z" fill="#D3D3D3"/>
<g clip-path="url(#m)">
<path d="m178.94 180.75c0.205 0.067 0.372 0.29 0.501 0.667 0.133 0.393 0.145 0.721 0.035 0.984-0.11 0.264-0.366 0.51-0.767 0.739l-0.605 0.346-0.722-2.124 0.682-0.389c0.378-0.217 0.67-0.291 0.876-0.223zm-8.642 4.663-0.682 0.389 0.722 2.124 0.605-0.346c0.401-0.229 0.657-0.475 0.767-0.739 0.11-0.263 0.098-0.591-0.036-0.984-0.128-0.377-0.295-0.6-0.5-0.667-0.206-0.068-0.498 6e-3 -0.876 0.223zm13.008-5.719c1.439 2.517-1.274 6.775-6.059 9.511s-9.831 2.913-11.27 0.396 1.273-6.776 6.058-9.512c4.786-2.735 9.831-2.913 11.271-0.395zm-10.433 6.382c-3e-3 -0.244-0.046-0.489-0.13-0.737-0.205-0.602-0.525-0.978-0.962-1.129-0.436-0.152-0.943-0.063-1.518 0.266l-1.914 1.094 1.724 5.075 0.995-0.569-0.458-1.349 0.852-0.487c0.376-0.215 0.663-0.431 0.861-0.649 0.197-0.218 0.342-0.477 0.435-0.776 0.079-0.249 0.117-0.495 0.115-0.739zm4.087-0.979-0.802-2.362c-0.164-0.48-0.405-0.757-0.726-0.83-0.32-0.073-0.757 0.049-1.31 0.365l-0.88 0.503-0.458-1.349-0.987 0.564 1.723 5.075 0.988-0.564-0.988-2.908 0.789-0.451c0.253-0.144 0.442-0.197 0.567-0.157 0.125 0.039 0.231 0.186 0.318 0.442l0.763 2.245 1.003-0.573zm2.587-5.327c-0.436-0.152-0.943-0.063-1.518 0.266l-1.913 1.094 1.723 5.075 0.995-0.569-0.458-1.349 0.852-0.487c0.376-0.215 0.663-0.431 0.861-0.649 0.197-0.218 0.342-0.477 0.435-0.776 0.079-0.249 0.117-0.495 0.115-0.739-3e-3 -0.244-0.046-0.489-0.13-0.737-0.204-0.602-0.525-0.978-0.962-1.129z" fill="#000"/>
</g>
<g clip-path="url(#l)">
<path d="m159 193.5c2.472 0 4.889 0.733 6.945 2.107 2.055 1.373 3.657 3.325 4.603 5.609 0.947 2.285 1.194 4.798 0.712 7.223-0.482 2.424-1.673 4.652-3.421 6.4s-3.976 2.939-6.4 3.421c-2.425 0.482-4.938 0.235-7.223-0.712-2.284-0.946-4.236-2.548-5.609-4.603-1.374-2.056-2.107-4.473-2.107-6.945 0-3.315 1.317-6.495 3.661-8.839s5.524-3.661 8.839-3.661zm-2.5 16.662c0.188 0.611 0.188 1.265 0 1.875 0 0.063 0 0.125-0.075 0.213-0.075 0.087 0 0.087-0.088 0.15-0.144 0.309-0.338 0.592-0.575 0.837-0.725 0.8-1.762 1.1-2.175 0.85-0.412-0.25-0.212-1.4 0.613-2.287 0.646-0.637 1.388-1.169 2.2-1.575l0.1-0.063zm10.337-11.25c-0.562-2.225-4.25-2.95-7.725-1.712-2.178 0.713-4.196 1.847-5.937 3.337-1.913 1.8-2.225 3.363-2.1 4.013 0.425 2.3 3.6 3.812 4.9 4.925-0.375 0.187-3.175 1.6-3.85 3.05-0.285 0.453-0.38 1-0.263 1.523 0.117 0.522 0.437 0.977 0.888 1.264 0.802 0.194 1.644 0.132 2.408-0.178 0.765-0.309 1.413-0.85 1.854-1.547 0.366-0.562 0.594-1.202 0.668-1.868s-9e-3 -1.34-0.243-1.969c0.627-0.146 1.275-0.18 1.913-0.1 2.2 0.262 2.625 1.625 2.5 2.2-0.037 0.204-0.118 0.398-0.236 0.568-0.119 0.171-0.273 0.314-0.452 0.419-0.15 0.088-0.2 0.125-0.187 0.2 0.012 0.075 0.087 0.1 0.212 0.075 0.342-0.092 0.645-0.289 0.869-0.562 0.224-0.274 0.358-0.61 0.381-0.963 0-1.35-1.25-2.85-3.512-2.812-0.661-0.015-1.319 0.077-1.95 0.275l-0.1-0.113c-1.413-1.5-4.013-2.5-3.9-4.587 0-0.738 0.287-2.663 5-5 3.85-1.925 6.937-1.4 7.5-0.213 0.762 1.663-1.65 4.775-5.65 5.225-0.438 0.083-0.889 0.069-1.321-0.041s-0.834-0.314-1.179-0.596c-0.213-0.213-0.238-0.25-0.313-0.213-0.075 0.038 0 0.288 0 0.413 0.318 0.547 0.832 0.954 1.438 1.137 1.577 0.341 3.22 0.179 4.7-0.462 2.35-0.95 4.25-3.6 3.687-5.75v0.062z" fill="#3B3B3B"/>
</g>
<g clip-path="url(#k)">
<path d="m194.65 193.72c0.048 0.351 0.074 0.726 0.074 1.131 0 1.934-0.179 2.043-4.196 13.655 3.27-1.907 5.47-5.45 5.47-9.508 0-1.913-0.488-3.711-1.348-5.278zm-9.458 6.241-3.301 9.589c2.227 0.656 4.588 0.589 6.76-0.175-0.03-0.047-0.056-0.098-0.078-0.152l-3.381-9.262zm7.232-1.518c0-1.36-0.488-2.302-0.907-3.035-0.557-0.906-1.081-1.672-1.081-2.579 0-1.011 0.768-1.952 1.848-1.952 0.049 0 0.095 6e-3 0.142 9e-3 -1.957-1.793-4.564-2.888-7.428-2.888-3.842 0-7.224 1.971-9.19 4.958 0.7 0.022 1.641 0.031 3.639-0.126 0.593-0.035 0.663 0.836 0.071 0.905 0 0-0.596 0.071-1.26 0.106l4.006 11.915 2.407-7.22-1.713-4.696c-0.592-0.034-1.153-0.105-1.153-0.105-0.593-0.035-0.524-0.941 0.069-0.906 2.274 0.175 3.437 0.188 5.829 0 0.593-0.035 0.663 0.836 0.07 0.906 0 0-0.597 0.071-1.259 0.105l3.975 11.825c1.57-5.245 1.935-6.122 1.935-7.222zm-18.426 0.555c0 4.354 2.53 8.117 6.2 9.9l-5.247-14.377c-0.611 1.369-0.953 2.882-0.953 4.477z" clip-rule="evenodd" fill="#000" fill-rule="evenodd"/>
</g>
<path d="m503.62 170.4h-93.624v8.596h138v-8.596h-44.376z" fill="#E0E0E0"/>
<path d="m547.53 170.72c0 0.14-30.659 0.26-68.465 0.26s-68.464-0.12-68.464-0.26 30.648-0.26 68.464-0.26 68.465 0.12 68.465 0.26z" fill="#3B3B3B"/>
<path d="m480.73 173.75h-16.375v2.53h16.375v-2.53z" fill="#3B3B3B"/>
<path d="m485.87 175.04c2e-3 0.258-0.075 0.51-0.221 0.725-0.145 0.215-0.354 0.383-0.598 0.483-0.245 0.1-0.514 0.127-0.775 0.078-0.26-0.049-0.5-0.172-0.688-0.353-0.188-0.182-0.317-0.413-0.369-0.666-0.053-0.252-0.027-0.514 0.074-0.752s0.273-0.442 0.493-0.585c0.221-0.143 0.48-0.22 0.745-0.22 0.353 0 0.692 0.136 0.943 0.377 0.251 0.242 0.393 0.57 0.396 0.913z" fill="#AD343E"/>
<path d="m489.65 175.04c2e-3 0.258-0.074 0.51-0.22 0.725s-0.355 0.383-0.599 0.483-0.514 0.127-0.774 0.078c-0.261-0.049-0.5-0.172-0.689-0.353-0.188-0.182-0.316-0.413-0.369-0.666-0.052-0.252-0.026-0.514 0.075-0.752s0.272-0.442 0.493-0.585c0.22-0.143 0.479-0.22 0.744-0.22 0.354 0 0.693 0.136 0.944 0.377 0.25 0.242 0.393 0.57 0.395 0.913z" fill="#6A6A6A"/>
<path d="m493.36 175.04c2e-3 0.258-0.074 0.51-0.22 0.725s-0.355 0.383-0.599 0.483-0.514 0.127-0.774 0.078c-0.261-0.049-0.5-0.172-0.688-0.353-0.189-0.182-0.317-0.413-0.37-0.666-0.052-0.252-0.026-0.514 0.075-0.752s0.272-0.442 0.493-0.585c0.22-0.143 0.479-0.22 0.744-0.22 0.354 0 0.693 0.136 0.944 0.377 0.25 0.242 0.393 0.57 0.395 0.913z" fill="#6A6A6A"/>
<g clip-path="url(#j)" fill="#000">
<path d="m192.36 168h-15.604c-0.638 0-1.207-0.325-1.522-0.87-0.308-0.532-0.309-1.167-2e-3 -1.7l7.803-13.556c0.314-0.547 0.884-0.874 1.523-0.874s1.209 0.326 1.524 0.874l7.802 13.556c0.307 0.532 0.306 1.168-1e-3 1.699-0.316 0.546-0.885 0.871-1.523 0.871zm-7.802-15.5c-0.057 0-0.163 0.016-0.223 0.122l-7.803 13.556c-0.038 0.066-0.038 0.134 0 0.2 0.022 0.037 0.086 0.122 0.224 0.122h15.604c0.138 0 0.203-0.085 0.224-0.122 0.038-0.066 0.038-0.134 0-0.2l-7.802-13.556c-0.061-0.106-0.167-0.122-0.224-0.122z"/>
<path d="m197.36 168h-13.87c-0.593 0-1.141-0.313-1.431-0.818-0.284-0.494-0.281-1.083 6e-3 -1.574l6.936-11.863c0.295-0.505 0.827-0.807 1.423-0.807s1.128 0.302 1.424 0.807l6.935 11.862c0.288 0.492 0.291 1.079 7e-3 1.574-0.289 0.507-0.837 0.819-1.43 0.819zm-6.935-13.561c-0.034 0-0.096 8e-3 -0.129 0.063l-6.936 11.863c0.014 0.095 0.049 0.135 0.13 0.135h13.87c0.081 0 0.116-0.041 0.13-0.065l-6.936-11.932c-0.032-0.057-0.095-0.064-0.129-0.064z"/>
</g>
<path d="M410 0H233V179H410V0Z" fill="#6A6A6A"/>
<path d="m302.02 105.36h0.246c0.613 0 1.111-0.506 1.111-1.13v-29.56c0-0.6241-0.498-1.13-1.111-1.13h-0.246c-0.614 0-1.111 0.5059-1.111 1.13v29.56c0 0.624 0.497 1.13 1.111 1.13z" fill="#E0E0E0"/>
<path d="m336.39 104.82h0.246c0.614 0 1.111-0.506 1.111-1.13v-29.56c0-0.6241-0.497-1.13-1.111-1.13h-0.246c-0.614 0-1.111 0.5059-1.111 1.13v29.56c0 0.624 0.497 1.13 1.111 1.13z" fill="#E0E0E0"/>
<g opacity=".3">
<path d="m313.38 172v-0.821-2.373-9.192c0-8.011 0-19.697-0.073-34.386 0-29.339-0.072-70.694-0.124-118.79l0.259 0.25033h-75.259l0.268-0.26034c0 64.425-0.062 122.87-0.083 165.56l-0.185-0.19 54.964 0.1h18.89 1.343-20.119l-55.078 0.1h-0.197v-0.18c0-42.687 0-101.13-0.072-165.56v-0.26034h75.724v0.25033c0 48.154-0.093 89.569-0.124 118.96 0 14.659 0 26.315-0.072 34.325v9.133 2.353c-0.052 0.721-0.062 0.981-0.062 0.981z" fill="#000"/>
</g>
<g opacity=".3">
<path d="m319.32 0c-0.75 1.2241-1.641 2.3522-2.655 3.36-0.894 1.1147-1.91 2.1213-3.029 3 0.743-1.2283 1.635-2.3571 2.655-3.36 0.89-1.1178 1.907-2.1248 3.029-3z" fill="#000"/>
</g>
<g opacity=".3">
<path d="m319.54 179c-1.166-0.999-2.22-2.125-3.142-3.359-1.045-1.111-1.969-2.331-2.758-3.641 1.171 0.997 2.228 2.124 3.152 3.359 1.043 1.109 1.965 2.33 2.748 3.641z" fill="#000"/>
</g>
<g opacity=".3">
<path d="m403.85 171.58v-0.82-2.37-9.18c0-8 0-19.67-0.075-34.34 0-29.3-0.075-70.6-0.129-118.63l0.269 0.25h-78.192l0.279-0.26c0 64.34-0.064 122.71-0.086 165.34l-0.193-0.19 57.107 0.1h19.625 1.395-20.902l-57.225 0.1h-0.204v-0.18c0-42.63 0-101-0.075-165.34v-0.26h78.674v0.25c-0.053 48.09-0.096 89.45-0.128 118.8 0 14.64-0.054 26.28-0.075 34.28v9.12 2.35c0 0.54-0.065 0.98-0.065 0.98z" fill="#000"/>
</g>
<g opacity=".3">
<path d="m325.33 5.68c-1.084-0.8176-2.109-1.7132-3.068-2.68-1.074-0.8296-1.996-1.8451-2.724-3 1.083 0.81581 2.108 1.708 3.068 2.67 1.076 0.83179 1.998 1.8509 2.724 3.01z" fill="#000"/>
</g>
<g opacity=".3">
<path d="m324.81 172c0.135 0.088-0.889 1.806-2.443 3.662-0.869 1.175-1.815 2.29-2.829 3.338 0.612-1.348 1.437-2.586 2.443-3.662 0.879-1.167 1.823-2.282 2.829-3.338z" fill="#000"/>
</g>
<path d="M725 0H548V179H725V0Z" fill="#6A6A6A"/>
<path d="m651.39 104.82h0.246c0.614 0 1.111-0.506 1.111-1.13v-29.56c0-0.6241-0.497-1.13-1.111-1.13h-0.246c-0.614 0-1.111 0.5059-1.111 1.13v29.56c0 0.624 0.497 1.13 1.111 1.13z" fill="#E0E0E0"/>
<g opacity=".3">
<path d="m634.32 0c-0.75 1.2241-1.641 2.3522-2.655 3.36-0.894 1.1147-1.91 2.1213-3.029 3 0.743-1.2283 1.635-2.3571 2.655-3.36 0.89-1.1178 1.907-2.1248 3.029-3z" fill="#000"/>
</g>
<g opacity=".3">
<path d="m634.54 179c-1.166-0.999-2.22-2.125-3.142-3.359-1.045-1.111-1.969-2.331-2.758-3.641 1.171 0.997 2.228 2.124 3.152 3.359 1.043 1.109 1.965 2.33 2.748 3.641z" fill="#000"/>
</g>
<g opacity=".3">
<path d="m718.85 171.58v-0.82-2.37-9.18c0-8 0-19.67-0.075-34.34 0-29.3-0.075-70.6-0.129-118.63l0.269 0.25h-78.192l0.279-0.26c0 64.34-0.064 122.71-0.086 165.34l-0.193-0.19 57.107 0.1h19.625 1.395-20.902l-57.225 0.1h-0.204v-0.18c0-42.63 0-101-0.075-165.34v-0.26h78.674v0.25c-0.053 48.09-0.096 89.45-0.128 118.8 0 14.64-0.054 26.28-0.075 34.28v9.12 2.35c0 0.54-0.065 0.98-0.065 0.98z" fill="#000"/>
</g>
<g opacity=".3">
<path d="m640.33 5.68c-1.084-0.8176-2.109-1.7132-3.068-2.68-1.074-0.8296-1.996-1.8451-2.724-3 1.083 0.81581 2.108 1.708 3.068 2.67 1.076 0.83179 1.998 1.8509 2.724 3.01z" fill="#000"/>
</g>
<g opacity=".3">
<path d="m639.81 172c0.135 0.088-0.889 1.806-2.443 3.662-0.869 1.175-1.815 2.29-2.829 3.338 0.612-1.348 1.437-2.586 2.443-3.662 0.879-1.167 1.823-2.282 2.829-3.338z" fill="#000"/>
</g>
<g opacity=".3">
<path d="m413.92 45.426c-0.765-0.4925-1.463-1.1337-2.066-1.8994-0.687-0.6072-1.294-1.3442-1.798-2.1844 0.758 0.5008 1.452 1.1412 2.057 1.8994 0.686 0.612 1.295 1.3482 1.807 2.1844z" fill="#000"/>
</g>
<path d="M547.939 0H410V170H547.939V0Z" fill="#6A6A6A"/>
<path d="m463.48 100.06h0.191c0.476 0 0.861-0.48 0.861-1.0727v-28.074c0-0.5927-0.385-1.0732-0.861-1.0732h-0.191c-0.475 0-0.861 0.4805-0.861 1.0732v28.074c0 0.5927 0.386 1.0727 0.861 1.0727z" fill="#E0E0E0"/>
<path d="m490.12 99.551h0.191c0.475 0 0.861-0.4805 0.861-1.0732v-28.074c0-0.5928-0.386-1.0732-0.861-1.0732h-0.191c-0.475 0-0.861 0.4804-0.861 1.0732v28.074c0 0.5927 0.386 1.0732 0.861 1.0732z" fill="#E0E0E0"/>
<g opacity=".3">
<path d="m472.29 163.35v-0.78-2.254-8.73c0-7.608 0-18.706-0.056-32.656 0-27.864-0.056-67.14-0.096-112.82l0.2 0.23774h-58.321l0.208-0.24725c0 61.186-0.048 116.69-0.064 157.23l-0.144-0.18 42.594 0.095h14.638 1.041-15.591l-42.682 0.095h-0.152v-0.171c0-40.541 0-96.049-0.056-157.24v-0.24725h58.681v0.23774c0 45.733-0.072 85.065-0.096 112.98 0 13.922 0 24.991-0.056 32.599v8.673 2.235c-0.04 0.685-0.048 0.932-0.048 0.932z" fill="#000"/>
</g>
<g opacity=".3">
<path d="m476.9 0c-0.581 1.1626-1.272 2.2339-2.058 3.1911-0.692 1.0587-1.479 2.0147-2.347 2.8492 0.577-1.1665 1.268-2.2386 2.058-3.1911 0.69-1.0616 1.477-2.0179 2.347-2.8492z" fill="#000"/>
</g>
<g opacity=".3">
<path d="m477.06 170c-0.904-0.949-1.721-2.019-2.435-3.19-0.81-1.055-1.526-2.215-2.138-3.458 0.908 0.947 1.727 2.017 2.443 3.19 0.808 1.053 1.523 2.213 2.13 3.458z" fill="#000"/>
</g>
<g opacity=".3">
<path d="m542.4 162.95v-0.778-2.251-8.719c0-7.597 0-18.681-0.058-32.613 0-27.827-0.058-67.05-0.1-112.67l0.208 0.23743h-60.593l0.216-0.24693c0 61.105-0.05 116.54-0.066 157.03l-0.15-0.18 44.254 0.095h15.208 1.081-16.198l-44.345 0.094h-0.158v-0.17c0-40.487 0-95.922-0.058-157.03v-0.24693h60.967v0.23743c-0.041 45.672-0.075 84.953-0.1 112.83 0 13.904-0.041 24.959-0.058 32.556v8.662 2.232c0 0.513-0.05 0.93-0.05 0.93z" fill="#000"/>
</g>
<g opacity=".3">
<path d="m548 0c-0.706 1.1628-1.546 2.19-2.492 3.0486-0.868 0.97868-1.846 1.7945-2.904 2.4218 0.82-1.0397 1.707-1.9927 2.653-2.8492 0.858-0.96129 1.775-1.8377 2.743-2.6212z" fill="#000"/>
</g>
<g opacity=".3">
<path d="m481.55 5.3944c-0.84-0.77649-1.635-1.6271-2.378-2.5452-0.832-0.78788-1.547-1.7523-2.111-2.8492 0.84 0.77479 1.634 1.6221 2.378 2.5358 0.834 0.78998 1.549 1.7578 2.111 2.8587z" fill="#000"/>
</g>
<g opacity=".3">
<path d="m481.15 163.35c0.104 0.083-0.689 1.715-1.893 3.477-0.674 1.116-1.406 2.175-2.193 3.171 0.474-1.281 1.114-2.456 1.893-3.478 0.681-1.109 1.413-2.167 2.193-3.17z" fill="#000"/>
</g>
<g opacity=".3">
<path d="m547.88 169.92c-0.091 0.095-1.272-1.605-2.926-3.419s-3.17-3.03-3.109-3.153c1.252 0.652 2.395 1.593 3.368 2.773 1.06 1.062 1.963 2.348 2.667 3.799z" fill="#000"/>
</g>
<path d="M548 6H635V172H548V6Z" fill="#272727"/>
<rect x="533" y="4" width="3" height="171" fill="#585858"/>
<rect x="548" y="118" width="87" height="3" fill="#A5A5A5"/>
<rect x="548" y="56" width="87" height="3" fill="#A5A5A5"/>
<path d="m518.13 275.83 2.66 17.5h15.47l3.59-17.25-21.72-0.25z" fill="#4D4D4D"/>
<path d="m533.26 241.31c-1e-3 0.027-1e-3 0.054 0 0.081l-0.07 0.25c-0.08 0.23-0.17 0.549-0.3 0.949s-0.29 0.911-0.45 1.491-0.38 1.25-0.56 2-0.41 1.55-0.6 2.43-0.4 1.83-0.6 2.82c-0.37 2-0.71 4.2-0.95 6.53s-0.33 4.56-0.36 6.59v2.88c0 0.88 0.06 1.739 0.11 2.509s0.1 1.46 0.15 2.06 0.1 1.13 0.15 1.56 0.08 0.74 0.1 1 0 0.191 0 0.261v0.089c2e-3 -0.029 2e-3 -0.06 0-0.089v-0.25c0-0.24-0.08-0.57-0.14-1s-0.13-0.95-0.18-1.56-0.14-1.3-0.18-2.06-0.11-1.611-0.13-2.511 0-1.869-0.05-2.889c0-2 0.12-4.271 0.35-6.611s0.58-4.54 1-6.54c0.2-1 0.39-1.939 0.61-2.819s0.42-1.69 0.63-2.44 0.4-1.4 0.58-2 0.34-1.081 0.48-1.491l0.33-0.93 0.09-0.239c-0.03-0.05-0.02-0.071-0.01-0.071z" fill="#6A6A6A"/>
<path d="m530.46 252.14c0.439-1.245 1.289-2.303 2.41-3 0.178-0.137 0.387-0.229 0.607-0.269 0.221-0.04 0.449-0.027 0.663 0.039 0.54 0.26 0.58 1 0.42 1.6-0.276 0.979-0.897 1.825-1.75 2.38-0.752 0.556-1.692 0.797-2.62 0.67" fill="#6A6A6A"/>
<path d="m529.52 259.46c0.497-1.771 1.49-3.363 2.86-4.59 0.191-0.159 0.412-0.278 0.65-0.35 0.118-0.035 0.244-0.039 0.364-0.013 0.121 0.026 0.233 0.082 0.326 0.163 0.107 0.14 0.178 0.305 0.206 0.48 0.028 0.174 0.012 0.353-0.046 0.52-0.256 1.102-0.813 2.111-1.61 2.914-0.796 0.804-1.8 1.37-2.9 1.636" fill="#6A6A6A"/>
<path d="m529.27 265.9c0.62-1.445 1.614-2.699 2.88-3.63 0.135-0.123 0.293-0.217 0.465-0.277s0.354-0.085 0.535-0.073c0.55 0.1 0.8 0.76 0.75 1.32-0.11 0.562-0.333 1.096-0.654 1.57s-0.735 0.879-1.216 1.19c-0.824 0.568-1.718 1.028-2.66 1.37" fill="#6A6A6A"/>
<path d="m529.41 270.53c0.6-1.1 1.436-2.053 2.45-2.79 0.216-0.169 0.47-0.283 0.74-0.33 0.133-0.025 0.271-0.013 0.398 0.035 0.127 0.047 0.238 0.129 0.322 0.235 0.24 0.36 0 0.85-0.25 1.2-0.866 1.203-2.092 2.099-3.5 2.56" fill="#6A6A6A"/>
<path d="m529.29 268.69c-1.056-1.294-2.227-2.489-3.5-3.57-0.2-0.17-0.46-0.35-0.7-0.27-0.093 0.038-0.173 0.104-0.23 0.187s-0.088 0.182-0.09 0.283c-6e-3 0.204 0.039 0.407 0.13 0.59 0.417 0.931 1.039 1.755 1.82 2.412 0.782 0.656 1.701 1.127 2.69 1.378" fill="#6A6A6A"/>
<path d="m529.4 262.62c-0.92-1.12-1.83-2.24-2.75-3.35-0.24-0.337-0.542-0.626-0.89-0.85-0.179-0.106-0.382-0.161-0.59-0.161s-0.411 0.055-0.59 0.161c-0.159 0.132-0.278 0.306-0.345 0.502s-0.079 0.406-0.035 0.608c0.102 0.4 0.286 0.774 0.54 1.1 0.533 0.828 1.21 1.552 2 2.14 0.346 0.289 0.746 0.506 1.177 0.639 0.431 0.132 0.884 0.177 1.333 0.131" fill="#6A6A6A"/>
<path d="m529.78 255.84c-0.538-1.608-1.494-3.044-2.77-4.16-0.196-0.205-0.445-0.35-0.72-0.42-0.281-0.023-0.561 0.053-0.792 0.216-0.23 0.162-0.396 0.401-0.468 0.674-0.086 0.304-0.108 0.623-0.065 0.936s0.15 0.614 0.315 0.884c0.34 0.534 0.777 0.999 1.29 1.37 0.934 0.707 1.974 1.264 3.08 1.65" fill="#6A6A6A"/>
<path d="m530.88 249.79c-0.358-1.896-1.202-3.667-2.45-5.14-0.25-0.33-0.59-0.68-1-0.62-0.129 0.029-0.249 0.089-0.35 0.174s-0.18 0.194-0.23 0.316c-0.087 0.25-0.121 0.516-0.1 0.78 0.046 1.183 0.441 2.326 1.135 3.285s1.656 1.692 2.765 2.105" fill="#6A6A6A"/>
<path d="m531.65 246.69c-0.131-0.994-0.168-1.998-0.11-3 0.07-1.01 0.416-1.982 1-2.81 0.256-0.348 0.602-0.621 1-0.79 0.202-0.081 0.421-0.11 0.636-0.081 0.216 0.028 0.421 0.111 0.594 0.241 0.146 0.138 0.26 0.306 0.332 0.493 0.073 0.187 0.103 0.387 0.088 0.587-0.038 0.398-0.143 0.787-0.31 1.15-0.73 1.77-2 3.72-3.23 4.21z" fill="#6A6A6A"/>
<path d="m519.65 249.02c8e-3 0.084 8e-3 0.167 0 0.25v0.711 1.109 1.481c0.05 1.1 0.16 2.399 0.32 3.829s0.43 3 0.77 4.65 0.75 3.181 1.17 4.561 0.85 2.619 1.24 3.639c0.19 0.52 0.39 1.001 0.55 1.381s0.31 0.75 0.43 1 0.21 0.479 0.28 0.649 0.09 0.221 0.08 0.231l-0.12-0.22c-0.07-0.16-0.18-0.371-0.3-0.641s-0.3-0.61-0.47-1-0.37-0.86-0.57-1.37c-0.41-1-0.85-2.249-1.28-3.639s-0.84-2.93-1.19-4.57-0.58-3.221-0.75-4.671-0.16-2.709-0.16-3.819v-1.491-1.109-0.711c-9e-3 -0.083-9e-3 -0.166 0-0.25z" fill="#464646"/>
<path d="m520.09 257c0.024-0.952 0.378-1.868 1-2.59 0.091-0.131 0.212-0.238 0.353-0.313 0.14-0.075 0.297-0.115 0.457-0.117 0.43 0.06 0.62 0.57 0.63 1 0.023 0.727-0.219 1.438-0.68 2-0.394 0.536-0.983 0.896-1.64 1" fill="#464646"/>
<path d="m521.03 262.18c-0.032-1.317 0.315-2.615 1-3.74 0.1-0.145 0.226-0.27 0.37-0.37 0.075-0.049 0.16-0.079 0.249-0.088s0.179 4e-3 0.261 0.038c0.101 0.076 0.182 0.174 0.238 0.287s0.084 0.237 0.082 0.363c0.061 0.805-0.103 1.611-0.473 2.328-0.371 0.717-0.934 1.317-1.627 1.732" fill="#464646"/>
<path d="m522.24 266.62c0.112-1.113 0.519-2.177 1.18-3.08 0.135-0.228 0.354-0.393 0.61-0.46 0.39-0.05 0.7 0.35 0.79 0.73 0.046 0.408 0.01 0.821-0.107 1.214-0.117 0.394-0.312 0.76-0.573 1.076-0.439 0.564-0.95 1.068-1.52 1.5" fill="#464646"/>
<path d="m523.33 269.74c0.174-0.876 0.54-1.702 1.07-2.42 0.113-0.16 0.26-0.294 0.43-0.39 0.083-0.05 0.178-0.076 0.275-0.076s0.192 0.026 0.275 0.076c0.25 0.19 0.19 0.57 0.09 0.86-0.33 1.006-0.971 1.881-1.83 2.5" fill="#464646"/>
<path d="m522.85 268.49c-1.001-0.654-2.059-1.216-3.16-1.68-0.082-0.041-0.173-0.063-0.265-0.063s-0.183 0.022-0.265 0.063c-0.055 0.047-0.096 0.108-0.117 0.177s-0.022 0.143-3e-3 0.213c0.044 0.139 0.119 0.265 0.22 0.37 0.485 0.545 1.086 0.974 1.76 1.254 0.673 0.281 1.401 0.406 2.13 0.366" fill="#464646"/>
<path d="m521.65 264.36-2.62-1.67c-0.238-0.174-0.505-0.303-0.79-0.38-0.144-0.036-0.295-0.033-0.438 9e-3 -0.142 0.043-0.271 0.122-0.372 0.231-0.076 0.127-0.116 0.272-0.116 0.42s0.04 0.293 0.116 0.42c0.151 0.252 0.356 0.467 0.6 0.63 0.54 0.443 1.157 0.782 1.82 1 0.298 0.124 0.618 0.188 0.94 0.188 0.323 0 0.642-0.064 0.94-0.188" fill="#464646"/>
<path d="m520.43 259.69c-0.716-0.977-1.679-1.747-2.79-2.23-0.177-0.097-0.378-0.142-0.58-0.13-0.195 0.044-0.369 0.155-0.492 0.314-0.122 0.159-0.185 0.356-0.178 0.556 6e-3 0.227 0.059 0.451 0.158 0.656 0.098 0.205 0.238 0.387 0.412 0.534 0.341 0.294 0.74 0.516 1.17 0.65 0.783 0.286 1.607 0.444 2.44 0.47" fill="#464646"/>
<path d="m519.87 255.31c-0.648-1.223-1.603-2.256-2.77-3-0.107-0.103-0.239-0.176-0.382-0.213-0.144-0.037-0.295-0.036-0.438 3e-3 -0.083 0.045-0.153 0.111-0.203 0.192-0.049 0.081-0.076 0.173-0.077 0.268-0.011 0.188 0.02 0.376 0.09 0.55 0.288 0.792 0.803 1.482 1.48 1.984 0.678 0.502 1.488 0.792 2.33 0.836" fill="#464646"/>
<path d="m519.73 253.04c-0.299-0.643-0.537-1.313-0.71-2-0.178-0.703-0.154-1.441 0.07-2.13 0.099-0.295 0.275-0.557 0.51-0.76 0.12-0.096 0.263-0.16 0.415-0.186 0.153-0.027 0.309-0.014 0.455 0.036 0.131 0.06 0.246 0.15 0.336 0.263 0.091 0.113 0.153 0.245 0.184 0.387 0.05 0.281 0.05 0.569 0 0.85-0.12 1.36-0.53 2.95-1.3 3.56" fill="#464646"/>
<path d="m539.22 248.85v0.25 0.71 1.11 1.49c0 1.09-0.12 2.4-0.28 3.84s-0.41 3-0.75 4.67-0.76 3.18-1.19 4.57-0.87 2.62-1.29 3.64c-0.19 0.51-0.4 1-0.57 1.37s-0.32 0.74-0.46 1l-0.31 0.63c-0.07 0.15-0.11 0.22-0.11 0.22 0.016-0.08 0.042-0.158 0.08-0.23l0.28-0.65c0.12-0.28 0.27-0.63 0.43-1s0.36-0.86 0.54-1.38c0.4-1 0.83-2.25 1.25-3.64s0.82-2.92 1.17-4.56 0.59-3.21 0.76-4.65 0.28-2.73 0.32-3.83c0-0.55 0-1 0.06-1.48s0-0.81 0-1.11v-0.71c0.014-0.089 0.037-0.176 0.07-0.26z" fill="#6A6A6A"/>
<path d="m538.79 256.83c-0.023-0.951-0.377-1.863-1-2.58-0.09-0.133-0.211-0.243-0.352-0.319-0.141-0.077-0.298-0.119-0.458-0.122-0.43 0.06-0.62 0.57-0.63 1-0.027 0.726 0.211 1.437 0.67 2 0.399 0.535 0.991 0.894 1.65 1" fill="#6A6A6A"/>
<path d="m537.85 262.01c0.04-1.312-0.289-2.607-0.95-3.74-0.1-0.145-0.225-0.271-0.37-0.37-0.078-0.042-0.166-0.063-0.255-0.063s-0.176 0.021-0.255 0.063c-0.102 0.073-0.185 0.171-0.241 0.285-0.056 0.113-0.083 0.238-0.079 0.365-0.064 0.805 0.098 1.612 0.469 2.33 0.372 0.718 0.937 1.317 1.631 1.73" fill="#6A6A6A"/>
<path d="m536.65 266.45c-0.112-1.113-0.519-2.177-1.18-3.08-0.135-0.228-0.354-0.393-0.61-0.46-0.39-0.05-0.7 0.35-0.79 0.74-0.049 0.407-0.013 0.819 0.104 1.211s0.313 0.756 0.576 1.069c0.439 0.564 0.95 1.068 1.52 1.5" fill="#6A6A6A"/>
<path d="m535.55 269.57c-0.177-0.875-0.542-1.701-1.07-2.42-0.113-0.16-0.26-0.293-0.43-0.39-0.084-0.049-0.179-0.075-0.275-0.075-0.097 0-0.192 0.026-0.275 0.075-0.25 0.19-0.19 0.57-0.09 0.86 0.33 1.006 0.97 1.881 1.83 2.5" fill="#6A6A6A"/>
<path d="m536.03 268.32c1.001-0.654 2.059-1.216 3.16-1.68 0.083-0.041 0.173-0.063 0.265-0.063s0.183 0.022 0.265 0.063c0.055 0.047 0.096 0.108 0.117 0.177 0.021 0.07 0.023 0.143 3e-3 0.213-0.047 0.137-0.122 0.263-0.22 0.37-0.484 0.545-1.086 0.974-1.759 1.254-0.674 0.281-1.402 0.406-2.131 0.366" fill="#6A6A6A"/>
<path d="m537.25 264.19c0.87-0.56 1.74-1.12 2.6-1.69 0.237-0.174 0.505-0.303 0.79-0.38 0.142-0.037 0.292-0.035 0.433 7e-3 0.142 0.043 0.268 0.123 0.367 0.233 0.079 0.126 0.12 0.272 0.12 0.42 0 0.149-0.041 0.294-0.12 0.42-0.155 0.249-0.359 0.464-0.6 0.63-0.545 0.441-1.165 0.78-1.83 1-0.297 0.124-0.614 0.188-0.935 0.188s-0.639-0.064-0.935-0.188" fill="#6A6A6A"/>
<path d="m538.45 259.49c0.715-0.974 1.674-1.743 2.78-2.23 0.182-0.096 0.386-0.141 0.59-0.13 0.196 0.045 0.37 0.156 0.492 0.315 0.123 0.158 0.186 0.355 0.178 0.555-0.01 0.227-0.066 0.449-0.164 0.653-0.097 0.205-0.236 0.387-0.405 0.537-0.342 0.295-0.74 0.516-1.17 0.65-0.784 0.285-1.607 0.444-2.441 0.47" fill="#6A6A6A"/>
<path d="m539.01 255.14c0.649-1.223 1.603-2.256 2.77-3 0.107-0.103 0.239-0.176 0.383-0.213 0.143-0.037 0.294-0.036 0.437 3e-3 0.082 0.047 0.15 0.114 0.199 0.194 0.049 0.081 0.077 0.172 0.081 0.266 0.011 0.188-0.02 0.376-0.09 0.55-0.287 0.793-0.802 1.483-1.48 1.984-0.677 0.502-1.488 0.792-2.33 0.836" fill="#6A6A6A"/>
<path d="m539.15 252.87c0.299-0.643 0.537-1.313 0.71-2 0.175-0.704 0.147-1.442-0.08-2.13-0.091-0.296-0.265-0.559-0.5-0.76-0.121-0.096-0.264-0.16-0.416-0.186-0.152-0.027-0.308-0.014-0.454 0.036-0.131 0.06-0.246 0.15-0.337 0.263-0.09 0.113-0.153 0.245-0.183 0.387-0.05 0.281-0.05 0.569 0 0.85 0.12 1.36 0.53 2.95 1.3 3.56" fill="#6A6A6A"/>
<path d="m516.35 272.37v3.32c0 0.342 0.135 0.67 0.377 0.912s0.57 0.378 0.913 0.378h22.4c0.342 0 0.67-0.136 0.912-0.378s0.378-0.57 0.378-0.912v-3.27l-24.98-0.05z" fill="#4D4D4D"/>
<g opacity=".4">
<path d="m518.3 276.93 0.18 1.04 20.67 1.48 0.52-2.52h-21.37z" fill="#000"/>
</g>
<path d="m554 105h16.24l-1.21 9s-1.06 4.4-3.53 4.4h-7c-0.866-0.531-1.615-1.232-2.203-2.06-0.587-0.829-1.001-1.767-1.217-2.76l-1.08-8.58z" fill="#E0E0E0"/>
<path d="m573 105h16.24l-1.21 9s-1.06 4.4-3.53 4.4h-7c-0.866-0.531-1.615-1.232-2.203-2.06-0.587-0.829-1.001-1.767-1.217-2.76l-1.08-8.58z" fill="#E0E0E0"/>
<path d="m592 105h16.24l-1.21 9s-1.06 4.4-3.53 4.4h-7c-0.866-0.531-1.615-1.232-2.203-2.06-0.587-0.829-1.001-1.767-1.217-2.76l-1.08-8.58z" fill="#E0E0E0"/>
<path d="m611 105h16.24l-1.21 9s-1.06 4.4-3.53 4.4h-7c-0.866-0.531-1.615-1.232-2.203-2.06-0.587-0.829-1.001-1.767-1.217-2.76l-1.08-8.58z" fill="#E0E0E0"/>
<path d="m569 109.37 0.24-0.06h0.07c0.176-0.01 0.353-0.01 0.53 0h0.06l0.28 0.07 0.23 0.08 0.15 0.07c0.156 0.078 0.307 0.169 0.45 0.27l0.09 0.08 0.2 0.2c0.05 0.06 0.15 0.19 0.05 0.06 0.061 0.075 0.114 0.155 0.16 0.24l0.12 0.22c0.06 0.09 0 0 0-0.05l0.06 0.16c0.032 0.092 0.059 0.185 0.08 0.28v0.15 0.16c0.01 0.1 0.01 0.201 0 0.3 5e-3 0.054 5e-3 0.107 0 0.16v0.15c-0.014 0.082-0.035 0.162-0.06 0.24 0 0.07-0.11 0.29 0 0.12-0.081 0.162-0.171 0.319-0.27 0.47-0.018 0.037-0.042 0.071-0.07 0.1 0.1-0.11 0 0 0 0-0.1 0.11-0.14 0.16-0.22 0.23s-0.21 0.17-0.12 0.11-0.11 0.06-0.14 0.08l-0.21 0.12-0.11 0.06c0.12-0.06 0.06 0 0 0-0.181 0.056-0.365 0.103-0.55 0.14h-0.61-0.07-0.16l-0.31-0.1-0.11-0.05c-0.219-0.078-0.458-0.078-0.677 1e-3 -0.218 0.079-0.403 0.232-0.521 0.432s-0.163 0.434-0.127 0.664c0.036 0.229 0.151 0.439 0.325 0.593 0.939 0.485 2.025 0.598 3.044 0.319 1.019-0.28 1.896-0.933 2.456-1.829 0.528-0.934 0.692-2.031 0.46-3.08-0.245-1.031-0.889-1.923-1.79-2.48-0.49-0.31-1.039-0.515-1.612-0.603s-1.158-0.056-1.718 0.093c-0.148 0.011-0.292 0.053-0.421 0.126-0.129 0.072-0.241 0.173-0.326 0.294-0.086 0.12-0.144 0.259-0.17 0.405-0.025 0.146-0.018 0.295 0.021 0.438s0.11 0.275 0.207 0.388c0.096 0.112 0.217 0.201 0.352 0.261 0.136 0.06 0.283 0.089 0.431 0.086 0.148-4e-3 0.293-0.041 0.426-0.108l-0.12-0.06z" fill="#E0E0E0"/>
<path d="m588 109.37 0.24-0.06h0.07c0.176-0.01 0.353-0.01 0.53 0h0.06l0.28 0.07 0.23 0.08 0.15 0.07c0.156 0.078 0.307 0.169 0.45 0.27l0.09 0.08 0.2 0.2c0.05 0.06 0.15 0.19 0.05 0.06 0.061 0.075 0.114 0.155 0.16 0.24l0.12 0.22c0.06 0.09 0 0 0-0.05l0.06 0.16c0.032 0.092 0.059 0.185 0.08 0.28v0.15 0.16c0.01 0.1 0.01 0.201 0 0.3 5e-3 0.054 5e-3 0.107 0 0.16v0.15c-0.014 0.082-0.035 0.162-0.06 0.24 0 0.07-0.11 0.29 0 0.12-0.081 0.162-0.171 0.319-0.27 0.47-0.018 0.037-0.042 0.071-0.07 0.1 0.1-0.11 0 0 0 0-0.1 0.11-0.14 0.16-0.22 0.23s-0.21 0.17-0.12 0.11-0.11 0.06-0.14 0.08l-0.21 0.12-0.11 0.06c0.12-0.06 0.06 0 0 0-0.181 0.056-0.365 0.103-0.55 0.14h-0.61-0.07-0.16l-0.31-0.1-0.11-0.05c-0.219-0.078-0.458-0.078-0.677 1e-3 -0.218 0.079-0.403 0.232-0.521 0.432s-0.163 0.434-0.127 0.664c0.036 0.229 0.151 0.439 0.325 0.593 0.939 0.485 2.025 0.598 3.044 0.319 1.019-0.28 1.896-0.933 2.456-1.829 0.528-0.934 0.692-2.031 0.46-3.08-0.245-1.031-0.889-1.923-1.79-2.48-0.49-0.31-1.039-0.515-1.612-0.603s-1.158-0.056-1.718 0.093c-0.148 0.011-0.292 0.053-0.421 0.126-0.129 0.072-0.241 0.173-0.326 0.294-0.086 0.12-0.144 0.259-0.17 0.405-0.025 0.146-0.018 0.295 0.021 0.438s0.11 0.275 0.207 0.388c0.096 0.112 0.217 0.201 0.352 0.261 0.136 0.06 0.283 0.089 0.431 0.086 0.148-4e-3 0.293-0.041 0.426-0.108l-0.12-0.06z" fill="#E0E0E0"/>
<path d="m607 109.37 0.24-0.06h0.07c0.176-0.01 0.353-0.01 0.53 0h0.06l0.28 0.07 0.23 0.08 0.15 0.07c0.156 0.078 0.307 0.169 0.45 0.27l0.09 0.08 0.2 0.2c0.05 0.06 0.15 0.19 0.05 0.06 0.061 0.075 0.114 0.155 0.16 0.24l0.12 0.22c0.06 0.09 0 0 0-0.05l0.06 0.16c0.032 0.092 0.059 0.185 0.08 0.28v0.15 0.16c0.01 0.1 0.01 0.201 0 0.3 5e-3 0.054 5e-3 0.107 0 0.16v0.15c-0.014 0.082-0.035 0.162-0.06 0.24 0 0.07-0.11 0.29 0 0.12-0.081 0.162-0.171 0.319-0.27 0.47-0.018 0.037-0.042 0.071-0.07 0.1 0.1-0.11 0 0 0 0-0.1 0.11-0.14 0.16-0.22 0.23s-0.21 0.17-0.12 0.11-0.11 0.06-0.14 0.08l-0.21 0.12-0.11 0.06c0.12-0.06 0.06 0 0 0-0.181 0.056-0.365 0.103-0.55 0.14h-0.61-0.07-0.16l-0.31-0.1-0.11-0.05c-0.219-0.078-0.458-0.078-0.677 1e-3 -0.218 0.079-0.403 0.232-0.521 0.432s-0.163 0.434-0.127 0.664c0.036 0.229 0.151 0.439 0.325 0.593 0.939 0.485 2.025 0.598 3.044 0.319 1.019-0.28 1.896-0.933 2.456-1.829 0.528-0.934 0.692-2.031 0.46-3.08-0.245-1.031-0.889-1.923-1.79-2.48-0.49-0.31-1.039-0.515-1.612-0.603s-1.158-0.056-1.718 0.093c-0.148 0.011-0.292 0.053-0.421 0.126-0.129 0.072-0.241 0.173-0.326 0.294-0.086 0.12-0.144 0.259-0.17 0.405-0.025 0.146-0.018 0.295 0.021 0.438s0.11 0.275 0.207 0.388c0.096 0.112 0.217 0.201 0.352 0.261 0.136 0.06 0.283 0.089 0.431 0.086 0.148-4e-3 0.293-0.041 0.426-0.108l-0.12-0.06z" fill="#E0E0E0"/>
<path d="m626 109.37 0.24-0.06h0.07c0.176-0.01 0.353-0.01 0.53 0h0.06l0.28 0.07 0.23 0.08 0.15 0.07c0.156 0.078 0.307 0.169 0.45 0.27l0.09 0.08 0.2 0.2c0.05 0.06 0.15 0.19 0.05 0.06 0.061 0.075 0.114 0.155 0.16 0.24l0.12 0.22c0.06 0.09 0 0 0-0.05l0.06 0.16c0.032 0.092 0.059 0.185 0.08 0.28v0.15 0.16c0.01 0.1 0.01 0.201 0 0.3 5e-3 0.054 5e-3 0.107 0 0.16v0.15c-0.014 0.082-0.035 0.162-0.06 0.24 0 0.07-0.11 0.29 0 0.12-0.081 0.162-0.171 0.319-0.27 0.47-0.018 0.037-0.042 0.071-0.07 0.1 0.1-0.11 0 0 0 0-0.1 0.11-0.14 0.16-0.22 0.23s-0.21 0.17-0.12 0.11-0.11 0.06-0.14 0.08l-0.21 0.12-0.11 0.06c0.12-0.06 0.06 0 0 0-0.181 0.056-0.365 0.103-0.55 0.14h-0.61-0.07-0.16l-0.31-0.1-0.11-0.05c-0.219-0.078-0.458-0.078-0.677 1e-3 -0.218 0.079-0.403 0.232-0.521 0.432s-0.163 0.434-0.127 0.664c0.036 0.229 0.151 0.439 0.325 0.593 0.939 0.485 2.025 0.598 3.044 0.319 1.019-0.28 1.896-0.933 2.456-1.829 0.528-0.934 0.692-2.031 0.46-3.08-0.245-1.031-0.889-1.923-1.79-2.48-0.49-0.31-1.039-0.515-1.612-0.603s-1.158-0.056-1.718 0.093c-0.148 0.011-0.292 0.053-0.421 0.126-0.129 0.072-0.241 0.173-0.326 0.294-0.086 0.12-0.144 0.259-0.17 0.405-0.025 0.146-0.018 0.295 0.021 0.438s0.11 0.275 0.207 0.388c0.096 0.112 0.217 0.201 0.352 0.261 0.136 0.06 0.283 0.089 0.431 0.086 0.148-4e-3 0.293-0.041 0.426-0.108l-0.12-0.06z" fill="#E0E0E0"/>
<path d="m559.02 56.199s-0.69-21.9 5.2-29.16h18.21s3.75 19 3.34 29.16h-26.75z" fill="#AD343E"/>
<g opacity=".3">
<path d="m582.43 27.039s-3.8 19.92-3.32 29.16h6.66s0.07-3.82-0.34-8.73c-0.6-7.16-2.31-16.64-3-20.43z" fill="#000"/>
</g>
<path d="m584.16 25h-22.01v2.05h22.01v-2.05z" fill="#474747"/>
<path d="m568.06 39.359c-0.365 0.2196-0.637 0.5674-0.761 0.9758-0.123 0.4084-0.091 0.8483 0.091 1.2342l0.52 1.12c0.178 0.3874 0.494 0.695 0.885 0.8631 0.392 0.1682 0.832 0.1848 1.235 0.0469l-1.97-4.24z" fill="#263238"/>
<path d="m568.41 39.189 2 4.25c0.366-0.2196 0.637-0.5674 0.761-0.9758 0.124-0.4085 0.091-0.8484-0.091-1.2342l-0.52-1.12c-0.18-0.393-0.5-0.705-0.897-0.875-0.398-0.1701-0.844-0.1861-1.253-0.045z" fill="#263238"/>
<path d="m574.3 39.95c-0.325-0.5499-0.685-1.0777-1.08-1.58-0.504-0.5625-1.128-1.0048-1.825-1.2943-0.698-0.2895-1.451-0.4189-2.206-0.3786-0.754 0.0403-1.489 0.2493-2.152 0.6115s-1.236 0.8684-1.677 1.4814c-0.34 0.541-0.641 1.1058-0.9 1.69 0.011-0.6735 0.231-1.327 0.63-1.87 0.441-0.6938 1.041-1.2722 1.75-1.6872 0.71-0.415 1.508-0.6545 2.329-0.6985s1.64 0.1087 2.39 0.4454 1.409 0.8477 1.921 1.4903c0.45 0.499 0.736 1.1237 0.82 1.79z" fill="#263238"/>
<path d="m564.52 42.891c0.08 0 0.26 0.68 1 1.56 0.445 0.5637 1.003 1.027 1.639 1.3596 0.636 0.3327 1.335 0.527 2.051 0.5704 0.718 0.0364 1.436-0.0772 2.107-0.3338 0.672-0.2566 1.283-0.6503 1.793-1.1562 0.78-0.8 1-1.49 1.11-1.45-0.112 0.6326-0.416 1.2155-0.87 1.67-0.516 0.5858-1.16 1.0466-1.881 1.3477-0.72 0.301-1.5 0.4344-2.28 0.3901s-1.54-0.2651-2.222-0.6459c-0.683-0.3807-1.269-0.9113-1.717-1.5519-0.421-0.4962-0.676-1.1115-0.73-1.76z" fill="#263238"/>
<path d="m591.24 56.199s-0.68-21.9 5.2-29.16h18.21s3.75 19 3.34 29.16h-26.75z" fill="#BABABA"/>
<g opacity=".3">
<path d="m614.64 27.039s-3.8 19.92-3.32 29.16h6.66s0.07-3.82-0.34-8.73c-0.6-7.16-2.31-16.64-3-20.43z" fill="#000"/>
</g>
<path d="m616.38 25h-22.01v2.05h22.01v-2.05z" fill="#474747"/>
<path d="m600.28 39.359c-0.364 0.2211-0.634 0.569-0.757 0.9768-0.124 0.4078-0.093 0.8469 0.087 1.2332l0.52 1.12c0.182 0.3867 0.499 0.6931 0.892 0.8609s0.834 0.1853 1.238 0.0491l-1.98-4.24z" fill="#474747"/>
<path d="m600.62 39.19 2 4.25c0.364-0.2212 0.635-0.5684 0.76-0.9758 0.126-0.4073 0.097-0.8465-0.08-1.2342l-0.52-1.12c-0.182-0.3938-0.504-0.706-0.903-0.876s-0.847-0.1857-1.257-0.044z" fill="#474747"/>
<path d="m606.53 39.95c-0.324-0.5487-0.681-1.0764-1.07-1.58-0.505-0.5627-1.13-1.005-1.828-1.2946-0.699-0.2895-1.453-0.4189-2.208-0.3786s-1.491 0.2492-2.155 0.6114c-0.663 0.3623-1.237 0.8686-1.679 1.4817-0.331 0.5466-0.631 1.1108-0.9 1.6901 0.011-0.6736 0.231-1.3271 0.63-1.87 0.691-1.0807 1.76-1.8662 2.997-2.2043 1.238-0.3381 2.557-0.2047 3.703 0.3743 0.656 0.3324 1.233 0.8032 1.69 1.38 0.454 0.4956 0.741 1.1219 0.82 1.79z" fill="#474747"/>
<path d="m596.74 42.891c0.285 0.5367 0.599 1.0575 0.94 1.56 0.445 0.5644 1.004 1.028 1.641 1.3602s1.338 0.5255 2.055 0.5671c0.718 0.0416 1.435-0.0695 2.107-0.3259 0.671-0.2563 1.28-0.6522 1.787-1.1614 0.79-0.8 1-1.49 1.12-1.45-0.114 0.6342-0.421 1.2176-0.88 1.67-0.516 0.5857-1.158 1.0465-1.878 1.3475s-1.499 0.4344-2.279 0.3901c-0.779-0.0443-1.538-0.2652-2.219-0.6459-0.682-0.3807-1.268-0.9113-1.714-1.5517-0.41-0.4982-0.648-1.1154-0.68-1.76z" fill="#474747"/>
<path d="m552 6.0007-16-2.0007v171l16-3v-166z" fill="#868686"/>
<defs>
<clipPath id="s">
<rect transform="translate(180.23 115) rotate(22.608)" width="24" height="24" fill="#fff"/>
</clipPath>
<clipPath id="i">
<rect transform="translate(147 131)" width="24" height="24" fill="#fff"/>
</clipPath>
<clipPath id="h">
<rect transform="matrix(.89888 -.43819 -.43819 -.89888 132.47 146.05)" width="24" height="24" fill="#fff"/>
</clipPath>
<clipPath id="g">
<rect transform="translate(122 162)" width="19" height="19" fill="#fff"/>
</clipPath>
<clipPath id="f">
<rect transform="translate(103.53 174) rotate(18.712)" width="17.8" height="17.8" fill="#fff"/>
</clipPath>
<clipPath id="e">
<rect transform="translate(207 147)" width="16" height="16" fill="#fff"/>
</clipPath>
<clipPath id="d">
<rect transform="translate(161 180.93) rotate(-29.758)" width="20" height="20" fill="#fff"/>
</clipPath>
<clipPath id="c">
<rect transform="translate(144 191)" width="30" height="30" fill="#fff"/>
</clipPath>
<clipPath id="b">
<rect transform="translate(174 188)" width="22" height="22" fill="#fff"/>
</clipPath>
<clipPath id="a">
<rect transform="translate(180.23 115) rotate(22.608)" width="24" height="24" fill="#fff"/>
</clipPath>
<clipPath id="r">
<rect transform="translate(147 131)" width="24" height="24" fill="#fff"/>
</clipPath>
<clipPath id="q">
<rect transform="matrix(.89888 -.43819 -.43819 -.89888 132.47 146.05)" width="24" height="24" fill="#fff"/>
</clipPath>
<clipPath id="p">
<rect transform="translate(122 162)" width="19" height="19" fill="#fff"/>
</clipPath>
<clipPath id="o">
<rect transform="translate(103.53 174) rotate(18.712)" width="17.8" height="17.8" fill="#fff"/>
</clipPath>
<clipPath id="n">
<rect transform="translate(207 147)" width="16" height="16" fill="#fff"/>
</clipPath>
<clipPath id="m">
<rect transform="translate(161 180.93) rotate(-29.758)" width="20" height="20" fill="#fff"/>
</clipPath>
<clipPath id="l">
<rect transform="translate(144 191)" width="30" height="30" fill="#fff"/>
</clipPath>
<clipPath id="k">
<rect transform="translate(174 188)" width="22" height="22" fill="#fff"/>
</clipPath>
<clipPath id="j">
<rect transform="translate(175 147)" width="24" height="24" fill="#fff"/>
</clipPath>
</defs>
</svg>
