
<svg width="554" height="552" viewBox="0 0 554 552" fill="none" xmlns="http://www.w3.org/2000/svg">
<path d="M277.133 487.45V489.13L259.823 478H270.983L285.683 488.2L272.123 497.2H261.443L277.133 487.45ZM293.123 497.2H285.623V478H293.123V497.2Z" fill="white"/>
<path d="M240.671 483.068L241.17 480.721L218.868 475.98L220.053 470.405L249.691 476.704L245.699 495.485L216.12 489.198L217.305 483.622L239.548 488.35L240.047 486.003L221.854 482.135L222.477 479.201L240.671 483.068Z" fill="white"/>
<path d="M198.437 470.993L199.414 468.801L178.585 459.527L180.903 454.32L208.584 466.644L200.774 484.184L173.149 471.885L175.467 466.677L196.241 475.927L197.217 473.734L180.225 466.169L181.445 463.428L198.437 470.993Z" fill="white"/>
<path d="M162.372 448.496L159.286 452.744L147.175 443.944C146.69 443.592 146.233 443.371 145.803 443.281C145.346 443.196 144.935 443.404 144.57 443.906C144.194 444.424 144.123 444.879 144.357 445.271C144.575 445.652 144.927 446.019 145.412 446.372L157.135 454.889L164.893 444.209L170.961 448.618L159.676 464.151L142.832 451.913C141.618 451.032 140.55 450.12 139.628 449.178C138.678 448.24 137.965 447.265 137.489 446.252C137.014 445.239 136.838 444.171 136.961 443.049C137.084 441.927 137.598 440.743 138.503 439.498C139.408 438.252 140.352 437.429 141.334 437.03C142.316 436.631 143.333 436.542 144.384 436.762C145.435 436.982 146.536 437.423 147.686 438.086C148.82 438.737 149.994 439.503 151.208 440.385L162.372 448.496Z" fill="white"/>
<path d="M103.443 393.385L99.3482 386.292C99.6419 385.961 99.7487 385.426 99.6685 384.687C99.571 383.958 99.3065 383.06 98.8751 381.993C98.4163 380.918 97.807 379.723 97.047 378.406C96.297 377.107 95.6723 376.105 95.173 375.401C94.6464 374.688 94.1979 374.231 93.8273 374.03C93.4395 373.838 93.0724 373.842 92.726 374.042C92.3969 374.232 92.2907 374.628 92.4075 375.231C92.507 375.843 92.8921 376.81 93.5628 378.132C94.2335 379.453 95.2389 381.275 96.5789 383.596C97.5789 385.328 98.3659 386.871 98.9401 388.225C99.4869 389.572 99.822 390.753 99.9456 391.767C100.042 392.774 99.9316 393.623 99.6146 394.314C99.2804 395.015 98.7322 395.585 97.9701 396.025C96.6537 396.785 95.3162 396.969 93.9575 396.575C92.5715 396.174 91.1506 395.193 89.6949 393.632C88.2119 392.064 86.6854 389.92 85.1154 387.2C82.8154 383.216 81.6406 379.842 81.5911 377.076C81.5143 374.303 82.5584 372.291 84.7234 371.041L88.6084 377.77C88.0869 378.187 87.9639 378.974 88.2394 380.131C88.4976 381.298 89.1518 382.791 90.2018 384.61C91.2418 386.411 92.1207 387.694 92.8385 388.457C93.5464 389.203 94.1514 389.431 94.6537 389.141C94.9135 388.991 95.0514 388.75 95.0673 388.417C95.0832 388.085 94.9731 387.594 94.737 386.945C94.4736 386.289 94.0442 385.405 93.4489 384.294C92.8535 383.183 92.0708 381.787 91.1008 380.107C90.0308 378.254 89.2161 376.623 88.6566 375.214C88.0798 373.815 87.7433 372.612 87.647 371.605C87.5407 370.581 87.6684 369.722 88.03 369.028C88.3742 368.345 88.9274 367.783 89.6895 367.343C91.0059 366.583 92.3197 366.378 93.6311 366.73C94.9425 367.081 96.3174 368.043 97.7558 369.614C99.1941 371.185 100.753 373.426 102.433 376.336C103.383 377.981 104.163 379.552 104.773 381.047C105.372 382.526 105.8 383.907 106.056 385.191C106.295 386.484 106.361 387.659 106.254 388.714C106.13 389.778 105.845 390.705 105.4 391.493C104.927 392.274 104.275 392.905 103.443 393.385Z" fill="white"/>
<path d="M71.8424 323.946C73.6804 323.454 75.4058 323.619 77.0187 324.44C78.6315 325.262 80.1286 326.763 81.5098 328.943C82.8849 331.104 84.1595 333.991 85.3338 337.605C86.2299 340.363 86.8812 342.886 87.2876 345.172C87.713 347.452 87.8241 349.477 87.621 351.246C87.3988 353.022 86.8024 354.519 85.8318 355.739C84.8611 356.959 83.4343 357.874 81.5512 358.486C79.6681 359.098 77.966 359.199 76.4448 358.789C74.9047 358.385 73.5134 357.533 72.2709 356.234C71.0095 354.94 69.8617 353.252 68.8276 351.17C67.7935 349.088 66.8284 346.667 65.9322 343.909C64.758 340.295 64.1174 337.191 64.0106 334.597C63.8848 332.01 64.2613 329.9 65.1402 328.268C66.0191 326.637 67.3561 325.477 69.1512 324.789L71.5615 332.207C71.027 332.633 70.6304 333.224 70.3717 333.982C70.0939 334.745 70.0196 335.778 70.1489 337.082C70.2781 338.386 70.6796 340.075 71.3532 342.148C72.1443 344.583 72.9393 346.511 73.738 347.934C74.5178 349.363 75.3453 350.324 76.2207 350.818C77.0961 351.312 78.0664 351.386 79.1316 351.039C80.1017 350.724 80.7767 350.116 81.1567 349.214C81.5367 348.313 81.6222 347.055 81.413 345.44C81.2039 343.826 80.7038 341.801 79.9128 339.367C79.2391 337.293 78.5839 335.698 77.9473 334.58C77.3045 333.443 76.675 332.638 76.0587 332.165C75.4235 331.699 74.8215 331.432 74.2528 331.364L71.8424 323.946Z" fill="white"/>
<path d="M77.93 313.51L58.8352 315.517L56.4112 292.454C56.2209 290.644 56.2594 289.001 56.5266 287.525C56.7718 286.031 57.3278 284.816 58.1948 283.88C59.0596 282.925 60.3175 282.36 61.9684 282.186C63.0624 282.072 63.9883 282.175 64.7462 282.498C65.504 282.82 66.1184 283.309 66.5894 283.963C67.0604 284.618 67.4324 285.383 67.7055 286.259C67.9786 287.135 68.1863 288.059 68.3285 289.029L68.1397 291.251C67.9108 288.882 67.819 287.052 67.8642 285.76C67.9073 284.448 68.1414 283.519 68.5666 282.971C68.9697 282.406 69.6088 282.077 70.484 281.985L74.5715 281.556L75.3555 289.015L72.163 289.35C71.5663 289.413 71.1313 289.579 70.8581 289.849C70.5628 290.101 70.3963 290.622 70.3585 291.41C70.3186 292.178 70.3822 293.358 70.5495 294.949L71.7756 306.615L77.146 306.051L77.93 313.51ZM66.7931 307.139L65.153 291.535C65.0903 290.938 64.9386 290.451 64.6979 290.074C64.455 289.678 64.0552 289.508 63.4982 289.567C62.9811 289.621 62.655 289.867 62.5199 290.303C62.3628 290.722 62.3156 291.23 62.3783 291.826L64.0183 307.431L66.7931 307.139Z" fill="white"/>
<path d="M76.932 253.939C76.4763 258.275 75.7315 261.726 74.6976 264.292C73.6438 266.856 72.3073 268.666 70.688 269.722C69.0509 270.757 67.1185 271.157 64.8907 270.923C62.663 270.689 60.866 269.897 59.4996 268.546C58.1155 267.174 57.1845 265.126 56.7067 262.401C56.209 259.674 56.188 256.142 56.6438 251.806C57.0995 247.47 57.8543 244.02 58.9081 241.456C59.9419 238.89 61.2774 237.09 62.9145 236.055C64.5339 234.999 66.4574 234.588 68.6851 234.822C70.9128 235.056 72.7188 235.859 74.1029 237.231C75.4693 238.582 76.4013 240.62 76.899 243.347C77.3768 246.072 77.3878 249.602 76.932 253.939ZM71.2633 253.343C71.4786 251.294 71.5453 249.511 71.4634 247.994C71.3616 246.475 71.0354 245.275 70.4846 244.392C69.9139 243.508 69.0319 243.003 67.8384 242.877C66.645 242.752 65.6872 243.064 64.965 243.812C64.2229 244.559 63.6541 245.665 63.2586 247.132C62.8432 248.597 62.5279 250.353 62.3126 252.402C62.0972 254.451 62.0373 256.264 62.1328 257.843C62.2105 259.4 62.5316 260.65 63.096 261.594C63.6426 262.516 64.5126 263.04 65.706 263.166C66.8995 263.291 67.8693 262.961 68.6156 262.174C69.3441 261.366 69.9181 260.21 70.3376 258.705C70.7394 257.179 71.0479 255.391 71.2633 253.343Z" fill="white"/>
<path d="M65.6792 211.035L78.5185 215.207L83.9232 198.573L89.3442 200.334L81.6219 224.101L63.3616 218.168L65.6792 211.035Z" fill="white"/>
<path d="M83.8245 168.519L95.5158 175.269L104.261 160.122L109.197 162.972L96.7022 184.614L80.0745 175.014L83.8245 168.519Z" fill="white"/>
<path d="M110.192 130.96L115.21 125.386L129.478 138.234L124.46 143.807L110.192 130.96Z" fill="white"/>
<path d="M166.065 99.8906L164.742 102.817L155.978 90.7544L162.046 86.346L173.331 101.879L167.264 106.288L141.3 108.984L142.605 106.033L151.245 117.926L145.178 122.334L133.892 106.801L139.96 102.393L166.065 99.8906Z" fill="white"/>
<path d="M195.706 91.9684C193.331 93.0259 191.082 93.8518 188.96 94.4462C186.865 95.0506 184.936 95.3403 183.174 95.315C181.421 95.2634 179.878 94.8227 178.546 93.993C177.231 93.1552 176.171 91.8319 175.366 90.0231C174.561 88.2143 174.292 86.5279 174.559 84.9641C174.818 83.3821 175.537 81.9012 176.718 80.5216C177.909 79.1156 179.477 77.7936 181.422 76.5556C183.385 75.3095 185.654 74.113 188.231 72.966C191.611 71.461 194.581 70.5108 197.141 70.1151C199.72 69.7114 201.869 69.8166 203.587 70.4307C205.297 71.0267 206.548 72.0899 207.339 73.6205L200.213 76.7931C199.815 76.4887 199.242 76.284 198.495 76.1789C197.739 76.0555 196.724 76.1354 195.449 76.4185C194.174 76.7016 192.54 77.2865 190.549 78.1732C188.21 79.2144 186.375 80.2066 185.044 81.1497C183.704 82.0746 182.834 82.9981 182.435 83.9203C182.036 84.8425 182.064 85.8152 182.519 86.8383C182.918 87.7336 183.594 88.319 184.549 88.5946C185.504 88.8701 186.813 88.8124 188.478 88.4214C190.143 88.0304 192.236 87.2736 194.758 86.151C196.53 85.362 198.032 84.6056 199.264 83.8818C200.507 83.1317 201.584 82.3563 202.498 81.5556C203.429 80.7468 204.315 79.8598 205.155 78.8947L206.167 79.3966C205.986 82.0386 205.033 84.4223 203.308 86.5475C201.583 88.6728 199.049 90.4797 195.706 91.9684ZM207 86.2831C206.756 85.735 206.552 85.0813 206.389 84.3219C206.226 83.5625 206.088 82.7595 205.973 81.9128C205.869 81.0396 205.776 80.2162 205.695 79.4426L195.006 84.2014L193.725 81.3237L208.333 74.82L212.371 83.8915L207 86.2831Z" fill="white"/>
<path d="M276.867 64.55V62.87L294.177 74H283.017L268.317 63.8L281.877 54.8H292.557L276.867 64.55ZM260.877 54.8H268.377V74H260.877V54.8Z" fill="white"/>
<path d="M313.329 69.1516L312.83 71.4991L335.132 76.2395L333.947 81.815L304.309 75.5152L308.301 56.7348L337.88 63.022L336.695 68.5975L314.452 63.8696L313.953 66.2171L332.146 70.0843L331.523 73.0187L313.329 69.1516Z" fill="white"/>
<path d="M355.563 81.2293L354.586 83.4218L375.415 92.6954L373.097 97.9026L345.416 85.5785L353.226 68.0384L380.851 80.3381L378.533 85.5453L357.759 76.2961L356.783 78.4886L373.775 86.054L372.555 88.7946L355.563 81.2293Z" fill="white"/>
<path d="M391.628 103.725L394.714 99.4781L406.825 108.277C407.31 108.63 407.767 108.851 408.197 108.94C408.654 109.026 409.065 108.817 409.43 108.316C409.806 107.798 409.877 107.343 409.643 106.95C409.425 106.57 409.073 106.203 408.588 105.85L396.865 97.3332L389.107 108.012L383.039 103.604L394.324 88.0707L411.168 100.308C412.382 101.19 413.45 102.102 414.372 103.044C415.322 103.982 416.035 104.957 416.511 105.97C416.986 106.983 417.162 108.05 417.039 109.172C416.916 110.294 416.402 111.478 415.497 112.724C414.592 113.97 413.648 114.792 412.666 115.191C411.684 115.59 410.667 115.68 409.616 115.46C408.565 115.24 407.464 114.798 406.314 114.136C405.18 113.485 404.006 112.719 402.792 111.837L391.628 103.725Z" fill="white"/>
<path d="M450.551 158.838L454.646 165.931C454.352 166.262 454.245 166.797 454.326 167.536C454.423 168.265 454.688 169.163 455.119 170.23C455.578 171.305 456.187 172.5 456.947 173.816C457.697 175.115 458.322 176.117 458.821 176.822C459.348 177.534 459.796 177.991 460.167 178.193C460.555 178.385 460.922 178.381 461.268 178.181C461.597 177.991 461.703 177.594 461.587 176.992C461.487 176.38 461.102 175.413 460.431 174.091C459.761 172.769 458.755 170.948 457.415 168.627C456.415 166.895 455.628 165.352 455.054 163.997C454.507 162.65 454.172 161.47 454.049 160.456C453.952 159.449 454.063 158.6 454.38 157.909C454.714 157.208 455.262 156.637 456.024 156.197C457.34 155.437 458.678 155.254 460.037 155.647C461.423 156.048 462.844 157.029 464.299 158.59C465.782 160.159 467.309 162.303 468.879 165.022C471.179 169.006 472.353 172.381 472.403 175.147C472.48 177.92 471.436 179.931 469.271 181.181L465.386 174.452C465.907 174.036 466.03 173.249 465.755 172.092C465.497 170.924 464.842 169.431 463.792 167.613C462.752 165.811 461.873 164.529 461.156 163.766C460.448 163.02 459.843 162.792 459.34 163.082C459.081 163.232 458.943 163.473 458.927 163.805C458.911 164.138 459.021 164.628 459.257 165.277C459.521 165.934 459.95 166.817 460.545 167.929C461.141 169.04 461.923 170.435 462.893 172.115C463.963 173.969 464.778 175.6 465.338 177.009C465.914 178.408 466.251 179.611 466.347 180.618C466.453 181.642 466.326 182.501 465.964 183.194C465.62 183.878 465.067 184.44 464.305 184.88C462.988 185.64 461.674 185.844 460.363 185.493C459.052 185.141 457.677 184.18 456.238 182.609C454.8 181.037 453.241 178.797 451.561 175.887C450.611 174.242 449.831 172.671 449.222 171.175C448.622 169.697 448.194 168.316 447.938 167.032C447.699 165.738 447.633 164.564 447.74 163.509C447.864 162.444 448.149 161.518 448.595 160.729C449.067 159.948 449.72 159.318 450.551 158.838Z" fill="white"/>
<path d="M482.158 228.277C480.32 228.769 478.594 228.604 476.981 227.782C475.368 226.96 473.871 225.46 472.49 223.28C471.115 221.119 469.84 218.231 468.666 214.617C467.77 211.859 467.119 209.337 466.712 207.051C466.287 204.771 466.176 202.746 466.379 200.976C466.601 199.201 467.198 197.703 468.168 196.484C469.139 195.264 470.566 194.348 472.449 193.736C474.332 193.125 476.034 193.024 477.555 193.434C479.095 193.838 480.487 194.689 481.729 195.989C482.991 197.282 484.138 198.97 485.172 201.053C486.207 203.135 487.172 205.555 488.068 208.313C489.242 211.927 489.883 215.031 489.989 217.625C490.115 220.213 489.739 222.323 488.86 223.954C487.981 225.586 486.644 226.746 484.849 227.434L482.438 220.016C482.973 219.59 483.37 218.998 483.628 218.241C483.906 217.478 483.98 216.444 483.851 215.141C483.722 213.837 483.32 212.148 482.647 210.075C481.856 207.64 481.061 205.711 480.262 204.289C479.482 202.86 478.655 201.898 477.779 201.405C476.904 200.911 475.934 200.837 474.868 201.183C473.898 201.498 473.223 202.107 472.843 203.008C472.463 203.91 472.378 205.168 472.587 206.782C472.796 208.397 473.296 210.421 474.087 212.856C474.761 214.929 475.416 216.525 476.053 217.643C476.696 218.78 477.325 219.585 477.941 220.057C478.577 220.524 479.179 220.791 479.747 220.859L482.158 228.277Z" fill="white"/>
<path d="M476.07 238.712L495.165 236.705L497.589 259.768C497.779 261.578 497.741 263.221 497.473 264.697C497.228 266.191 496.672 267.406 495.805 268.341C494.94 269.297 493.683 269.862 492.032 270.035C490.938 270.15 490.012 270.046 489.254 269.724C488.496 269.401 487.882 268.913 487.411 268.258C486.94 267.604 486.568 266.839 486.294 265.963C486.021 265.086 485.814 264.163 485.672 263.193L485.86 260.971C486.089 263.34 486.181 265.17 486.136 266.462C486.093 267.774 485.859 268.703 485.433 269.251C485.03 269.816 484.391 270.144 483.516 270.236L479.429 270.666L478.645 263.207L481.837 262.872C482.434 262.809 482.869 262.642 483.142 262.372C483.437 262.12 483.604 261.6 483.642 260.812C483.681 260.043 483.618 258.863 483.451 257.272L482.224 245.606L476.854 246.171L476.07 238.712ZM487.207 245.083L488.847 260.687C488.91 261.284 489.061 261.77 489.302 262.147C489.545 262.544 489.945 262.713 490.502 262.655C491.019 262.6 491.345 262.355 491.48 261.918C491.637 261.5 491.684 260.992 491.622 260.395L489.982 244.791L487.207 245.083Z" fill="white"/>
<path d="M477.068 298.284C477.524 293.948 478.269 290.497 479.302 287.931C480.356 285.367 481.693 283.557 483.312 282.5C484.949 281.466 486.882 281.066 489.109 281.3C491.337 281.534 493.134 282.326 494.5 283.676C495.885 285.048 496.816 287.097 497.293 289.822C497.791 292.549 497.812 296.08 497.356 300.416C496.9 304.753 496.146 308.203 495.092 310.766C494.058 313.332 492.723 315.133 491.085 316.167C489.466 317.224 487.543 317.635 485.315 317.401C483.087 317.167 481.281 316.364 479.897 314.991C478.531 313.641 477.599 311.603 477.101 308.876C476.623 306.151 476.612 302.62 477.068 298.284ZM482.737 298.88C482.521 300.929 482.455 302.711 482.537 304.228C482.638 305.747 482.965 306.948 483.515 307.83C484.086 308.715 484.968 309.22 486.162 309.345C487.355 309.471 488.313 309.159 489.035 308.41C489.777 307.664 490.346 306.557 490.741 305.091C491.157 303.626 491.472 301.869 491.687 299.821C491.903 297.772 491.963 295.958 491.867 294.38C491.789 292.823 491.468 291.573 490.904 290.628C490.357 289.706 489.487 289.182 488.294 289.057C487.101 288.932 486.131 289.262 485.384 290.048C484.656 290.857 484.082 292.013 483.662 293.517C483.261 295.044 482.952 296.831 482.737 298.88Z" fill="white"/>
<path d="M488.321 341.187L475.482 337.015L470.077 353.649L464.656 351.888L472.378 328.121L490.638 334.054L488.321 341.187Z" fill="white"/>
<path d="M470.172 383.703L458.48 376.953L449.735 392.1L444.799 389.25L457.294 367.608L473.922 377.208L470.172 383.703Z" fill="white"/>
<path d="M443.808 421.263L438.79 426.836L424.522 413.989L429.54 408.416L443.808 421.263Z" fill="white"/>
<path d="M387.931 452.331L389.254 449.405L398.018 461.467L391.95 465.876L380.665 450.343L386.732 445.934L412.696 443.238L411.391 446.189L402.751 434.296L408.818 429.888L420.104 445.421L414.036 449.829L387.931 452.331Z" fill="white"/>
<path d="M358.294 460.254C360.669 459.197 362.918 458.371 365.04 457.776C367.135 457.172 369.064 456.882 370.826 456.908C372.579 456.959 374.122 457.4 375.454 458.23C376.769 459.067 377.829 460.391 378.634 462.2C379.439 464.008 379.708 465.695 379.441 467.259C379.182 468.841 378.463 470.321 377.282 471.701C376.091 473.107 374.523 474.429 372.578 475.667C370.615 476.913 368.346 478.11 365.769 479.257C362.389 480.762 359.419 481.712 356.859 482.108C354.28 482.511 352.131 482.406 350.413 481.792C348.703 481.196 347.452 480.133 346.661 478.602L353.787 475.43C354.185 475.734 354.758 475.939 355.505 476.044C356.261 476.167 357.276 476.087 358.551 475.804C359.826 475.521 361.46 474.936 363.451 474.049C365.79 473.008 367.625 472.016 368.956 471.073C370.296 470.148 371.166 469.225 371.565 468.302C371.964 467.38 371.936 466.408 371.481 465.384C371.082 464.489 370.406 463.904 369.451 463.628C368.496 463.353 367.187 463.41 365.522 463.801C363.857 464.192 361.764 464.949 359.242 466.072C357.47 466.861 355.968 467.617 354.736 468.341C353.493 469.091 352.416 469.866 351.502 470.667C350.571 471.476 349.685 472.363 348.845 473.328L347.833 472.826C348.014 470.184 348.967 467.8 350.692 465.675C352.417 463.55 354.951 461.743 358.294 460.254ZM347 465.94C347.244 466.488 347.448 467.141 347.611 467.901C347.774 468.66 347.912 469.463 348.027 470.31C348.131 471.183 348.224 472.006 348.305 472.78L358.994 468.021L360.275 470.899L345.667 477.403L341.629 468.331L347 465.94Z" fill="white"/>
</svg>
