<?xml version="1.0" encoding="UTF-8"?>
<svg fill="none" viewBox="0 0 221 412" xmlns="http://www.w3.org/2000/svg">
<path d="M168.492 0H0.832031V411.51H168.492V0Z" fill="#B5B5B5"/>
<path d="m157.19 13.69h-145.07v63.73h145.07v-63.73z" fill="#6D6D6D"/>
<path d="m157.19 93.98h-145.07v63.73h145.07v-63.73z" fill="#6D6D6D"/>
<path d="m157.19 174.26h-145.07v63.73h145.07v-63.73z" fill="#6D6D6D"/>
<path d="m157.19 254.54h-145.07v63.73h145.07v-63.73z" fill="#6D6D6D"/>
<path d="m157.19 334.82h-145.07v63.73h145.07v-63.73z" fill="#6D6D6D"/>
<path d="m109.16 137.05h-18.7c-0.6815 0-1.3564-0.134-1.9861-0.395s-1.2018-0.643-1.6837-1.125-0.8643-1.054-1.1251-1.684c-0.2608-0.629-0.3951-1.304-0.3951-1.986-0.0013-0.682 0.132-1.358 0.3923-1.989 0.2602-0.631 0.6423-1.204 1.1243-1.687 0.4821-0.483 1.0547-0.866 1.685-1.128 0.6304-0.261 1.306-0.396 1.9884-0.396h18.7v10.39z" fill="#838383"/>
<path d="m103.99 126.66h41.58c0.113 0 0.225 0.022 0.329 0.066 0.105 0.043 0.199 0.106 0.279 0.186s0.143 0.175 0.187 0.279c0.043 0.104 0.065 0.216 0.065 0.329 0 0.228-0.09 0.447-0.252 0.608-0.161 0.162-0.38 0.252-0.608 0.252h-41.58v-1.72z" fill="#838383"/>
<path d="m103.99 135.32h41.58c0.228 0 0.447 0.09 0.608 0.252 0.162 0.161 0.252 0.38 0.252 0.608 0 0.113-0.022 0.225-0.065 0.329-0.044 0.104-0.107 0.199-0.187 0.279s-0.174 0.143-0.279 0.186c-0.104 0.044-0.216 0.066-0.329 0.066h-41.58v-1.72z" fill="#838383"/>
<path d="m145.15 135.32h-36.43c-0.92-3e-3 -1.801-0.369-2.451-1.019-0.65-0.651-1.016-1.532-1.019-2.451 0-0.456 0.09-0.907 0.264-1.328s0.43-0.804 0.752-1.126 0.705-0.578 1.126-0.752 0.872-0.264 1.328-0.264h36.43c-0.48 1.094-0.728 2.275-0.728 3.47 0 1.194 0.248 2.376 0.728 3.47z" fill="#F5F5F5"/>
<g opacity=".3">
<path d="m105.25 137.05h-14.77c-1.3818 0-2.707-0.549-3.6841-1.526-0.977-0.977-1.526-2.302-1.526-3.684 0-1.374 0.5458-2.691 1.5172-3.663 0.9715-0.971 2.289-1.517 3.6628-1.517h15.2c-3.76 2.28-3.48 7.74-0.4 10.39z" fill="#000"/>
</g>
<path d="m106.41 157.72h-23.19c-0.8789 1e-3 -1.7495-0.171-2.5617-0.507-0.8123-0.335-1.5503-0.828-2.1718-1.45-0.6215-0.621-1.1142-1.359-1.4499-2.171-0.3358-0.813-0.5079-1.683-0.5066-2.562-0.0027-0.88 0.1684-1.752 0.5035-2.566 0.335-0.814 0.8274-1.554 1.4489-2.178 0.6215-0.623 1.3598-1.118 2.1728-1.455s1.6846-0.511 2.5648-0.511h23.19c0.236 0 0.463 0.094 0.63 0.261 0.167 0.166 0.26 0.393 0.26 0.629v11.6c3e-3 0.118-0.018 0.236-0.062 0.347-0.043 0.11-0.108 0.21-0.191 0.295s-0.182 0.152-0.291 0.198c-0.11 0.046-0.227 0.07-0.346 0.07z" fill="#838383"/>
<path d="m100.63 144.32h53.54c0.292 0 0.571 0.116 0.778 0.322 0.206 0.206 0.322 0.486 0.322 0.778s-0.116 0.571-0.322 0.778c-0.207 0.206-0.486 0.322-0.778 0.322h-53.54v-2.2z" fill="#838383"/>
<path d="m100.63 155.5h53.54c0.292 0 0.571 0.116 0.778 0.322 0.206 0.206 0.322 0.486 0.322 0.778s-0.116 0.572-0.322 0.778c-0.207 0.206-0.486 0.322-0.778 0.322h-53.54v-2.22 0.02z" fill="#838383"/>
<path d="m153.65 155.5h-46.93c-0.587 0-1.168-0.116-1.711-0.34-0.542-0.225-1.035-0.554-1.45-0.969s-0.744-0.908-0.969-1.45c-0.225-0.543-0.34-1.124-0.34-1.711s0.115-1.168 0.34-1.711c0.225-0.542 0.554-1.035 0.969-1.45s0.908-0.744 1.45-0.969c0.543-0.224 1.124-0.34 1.711-0.34h46.92c-0.624 1.408-0.946 2.931-0.944 4.471 1e-3 1.54 0.326 3.063 0.954 4.469z" fill="#F5F5F5"/>
<g opacity=".4">
<path d="m102.26 157.72h-19.11c-1.7557 0-3.4395-0.698-4.681-1.939-1.2415-1.242-1.939-2.925-1.939-4.681 0-1.793 0.7123-3.512 1.98-4.78 1.2678-1.268 2.9872-1.98 4.7801-1.98h19.48c-4.8398 2.98-4.4798 9.98-0.51 13.38z" fill="#000"/>
</g>
<path d="m115.29 144.39h-21.17c-0.5033 1e-3 -1.002-0.097-1.4673-0.289s-0.888-0.474-1.2439-0.83-0.638-0.779-0.83-1.244-0.2901-0.964-0.2888-1.467c0-1.016 0.4035-1.99 1.1217-2.708 0.7183-0.719 1.6925-1.122 2.7083-1.122h21.17v7.66z" fill="#6C6C6C"/>
<path d="m109.88 136.73h43.5c0.118 0 0.235 0.023 0.344 0.068 0.109 0.046 0.209 0.112 0.292 0.196 0.084 0.083 0.15 0.182 0.195 0.292 0.046 0.109 0.069 0.226 0.069 0.344 0 0.239-0.095 0.468-0.264 0.636-0.169 0.169-0.397 0.264-0.636 0.264h-43.5v-1.8z" fill="#6C6C6C"/>
<path d="m109.88 142.59h43.5c0.239 0 0.467 0.095 0.636 0.263 0.169 0.169 0.264 0.398 0.264 0.637s-0.095 0.467-0.264 0.636-0.397 0.264-0.636 0.264h-43.5v-1.8z" fill="#6C6C6C"/>
<path d="m152.95 142.59h-39.72c-0.53 0-1.039-0.211-1.414-0.586s-0.586-0.884-0.586-1.414c0-0.531 0.211-1.039 0.586-1.414s0.884-0.586 1.414-0.586h39.72c-0.48 0.556-0.744 1.265-0.744 2 0 0.734 0.264 1.444 0.744 2z" fill="#F5F5F5"/>
<g opacity=".3">
<path d="m111.2 144.39h-17.11c-1.0079 0-1.9744-0.4-2.6871-1.113-0.7126-0.713-1.1129-1.679-1.1129-2.687 0-1.024 0.4066-2.006 1.1305-2.729 0.7239-0.724 1.7057-1.131 2.7295-1.131h17.46c-3.89 1.68-3.64 5.7-0.41 7.66z" fill="#000"/>
</g>
<path d="m113.72 126.32h-21.19c-1.0157 0-1.9899-0.403-2.7081-1.122-0.7183-0.718-1.1219-1.692-1.1219-2.708 0.0027-1.015 0.407-1.987 1.1247-2.705s1.6904-1.122 2.7053-1.125h21.19v7.66z" fill="#6C6C6C"/>
<path d="m108.29 118.61h43.5c0.239 0 0.468 0.095 0.636 0.263 0.169 0.169 0.264 0.398 0.264 0.637s-0.095 0.467-0.264 0.636c-0.168 0.169-0.397 0.264-0.636 0.264h-43.5v-1.8z" fill="#6C6C6C"/>
<path d="m108.29 124.47h43.5c0.239 0 0.468 0.095 0.636 0.264 0.169 0.169 0.264 0.398 0.264 0.636 0 0.239-0.095 0.468-0.264 0.637-0.168 0.168-0.397 0.263-0.636 0.263h-43.5v-1.8z" fill="#6C6C6C"/>
<path d="m151.36 124.47h-39.72c-0.531 0-1.039-0.21-1.415-0.586-0.375-0.375-0.585-0.883-0.585-1.414 0-0.53 0.21-1.039 0.585-1.414 0.376-0.375 0.884-0.586 1.415-0.586h39.72c-0.476 0.558-0.738 1.267-0.738 2s0.262 1.443 0.738 2z" fill="#F5F5F5"/>
<g opacity=".3">
<path d="m109.61 126.32h-17.11c-1.0078 0-1.9744-0.4-2.687-1.113-0.7127-0.712-1.1131-1.679-1.1131-2.687 0-0.507 0.0999-1.009 0.2938-1.477 0.194-0.468 0.4784-0.894 0.8368-1.252 0.3585-0.359 0.784-0.643 1.2523-0.837s0.9703-0.294 1.4772-0.294h17.47c-3.94 1.66-3.64 5.66-0.42 7.66z" fill="#000"/>
</g>
<path d="m116.54 118.91h-17.22c-1.72 0-3.11-1.71-3.11-3.83 0-2.11 1.39-3.83 3.11-3.83h17.22v7.66z" fill="#838383"/>
<path d="m112.13 111.25h35.2c0.239 0 0.467 0.095 0.636 0.264 0.169 0.168 0.264 0.397 0.264 0.636s-0.095 0.468-0.264 0.636c-0.169 0.169-0.397 0.264-0.636 0.264h-35.2v-1.8z" fill="#838383"/>
<path d="m112.13 117.11h35.2c0.239 0 0.467 0.095 0.636 0.263 0.169 0.169 0.264 0.398 0.264 0.637s-0.095 0.467-0.264 0.636-0.397 0.264-0.636 0.264h-35.2v-1.8z" fill="#838383"/>
<path d="m147.16 117.11h-32.3c-0.48-0.056-0.92-0.295-1.228-0.668-0.307-0.373-0.459-0.85-0.422-1.332-0.039-0.483 0.111-0.962 0.419-1.335s0.75-0.612 1.231-0.665h32.3c-0.395 0.592-0.606 1.288-0.606 2s0.211 1.408 0.606 2z" fill="#F5F5F5"/>
<g opacity=".3">
<path d="m113.21 118.91h-13.91c-1.71 0-3.0901-1.7-3.0901-3.8 0-2.13 1.4101-3.86 3.1401-3.86h14.2c-3.2 1.68-2.96 5.71-0.34 7.66z" fill="#000"/>
</g>
<path d="m120.7 130.04v4.16l1.44-0.93 1.61 0.93v-4.16h-3.05z" fill="#838383"/>
<path d="m109.16 376.32h-18.7c-0.6824 0-1.358-0.134-1.9884-0.396-0.6303-0.261-1.2029-0.644-1.685-1.127-0.482-0.483-0.8641-1.057-1.1243-1.688-0.2603-0.63-0.3936-1.306-0.3923-1.989 0-0.681 0.1343-1.356 0.3951-1.986s0.6432-1.202 1.1251-1.684 1.054-0.864 1.6837-1.125 1.3046-0.395 1.9861-0.395h18.7v10.39z" fill="#838383"/>
<path d="m103.99 365.93h41.58c0.113 0 0.225 0.022 0.329 0.066 0.105 0.043 0.199 0.106 0.279 0.186s0.143 0.175 0.187 0.279c0.043 0.104 0.065 0.216 0.065 0.329 0 0.228-0.09 0.447-0.252 0.608-0.161 0.162-0.38 0.252-0.608 0.252h-41.58v-1.72z" fill="#838383"/>
<path d="m103.99 374.59h41.58c0.228 0 0.447 0.09 0.608 0.252 0.162 0.161 0.252 0.38 0.252 0.608s-0.09 0.447-0.252 0.608c-0.161 0.161-0.38 0.252-0.608 0.252h-41.58v-1.72z" fill="#838383"/>
<path d="m145.15 374.59h-36.43c-0.456 0-0.907-0.09-1.328-0.264-0.421-0.175-0.804-0.43-1.126-0.752-0.322-0.323-0.578-0.705-0.752-1.126s-0.264-0.872-0.264-1.328c3e-3 -0.92 0.369-1.801 1.019-2.451s1.531-1.016 2.451-1.019h36.43c-0.48 1.094-0.728 2.275-0.728 3.47 0 1.194 0.248 2.376 0.728 3.47z" fill="#F5F5F5"/>
<g opacity=".3">
<path d="m105.25 376.32h-14.77c-1.3818 0-2.707-0.549-3.6841-1.526-0.977-0.977-1.526-2.302-1.526-3.684 0-1.374 0.5458-2.691 1.5172-3.663 0.9715-0.971 2.289-1.517 3.6628-1.517h15.2c-3.76 2.28-3.48 7.73-0.4 10.39z" fill="#000"/>
</g>
<path d="m106.41 396.99h-23.19c-1.7743 0-3.476-0.705-4.7306-1.96-1.2546-1.254-1.9594-2.956-1.9594-4.73-0.0014-0.879 0.1708-1.75 0.5065-2.562 0.3358-0.812 0.8285-1.55 1.45-2.172 0.6215-0.621 1.3595-1.114 2.1718-1.45 0.8122-0.335 1.6827-0.507 2.5617-0.506h23.19c0.236 0 0.463 0.094 0.63 0.261 0.167 0.166 0.26 0.393 0.26 0.629v11.6c0 0.236-0.093 0.462-0.26 0.629s-0.394 0.261-0.63 0.261z" fill="#838383"/>
<path d="m100.63 383.61h53.54c0.292 0 0.571 0.116 0.778 0.322 0.206 0.206 0.322 0.486 0.322 0.778s-0.116 0.571-0.322 0.778c-0.207 0.206-0.486 0.322-0.778 0.322h-53.54v-2.22 0.02z" fill="#838383"/>
<path d="m100.63 394.77h53.54c0.144 0 0.287 0.028 0.421 0.084 0.133 0.055 0.255 0.136 0.357 0.238s0.183 0.224 0.238 0.357c0.055 0.134 0.084 0.277 0.084 0.421 0 0.292-0.116 0.572-0.322 0.778-0.207 0.206-0.486 0.322-0.778 0.322h-53.54v-2.22 0.02z" fill="#838383"/>
<path d="m153.65 394.77h-46.93c-0.587 0-1.168-0.116-1.711-0.34-0.542-0.225-1.035-0.554-1.45-0.969s-0.744-0.908-0.969-1.45c-0.225-0.543-0.34-1.124-0.34-1.711s0.115-1.168 0.34-1.711c0.225-0.542 0.554-1.035 0.969-1.45s0.908-0.744 1.45-0.969c0.543-0.224 1.124-0.34 1.711-0.34h46.92c-0.624 1.408-0.946 2.931-0.944 4.471 1e-3 1.54 0.326 3.063 0.954 4.469z" fill="#F5F5F5"/>
<g opacity=".4">
<path d="m102.26 396.99h-19.11c-1.7557 0-3.4395-0.698-4.681-1.939-1.2415-1.242-1.939-2.925-1.939-4.681 0-1.793 0.7123-3.512 1.98-4.78 1.2678-1.268 2.9872-1.98 4.7801-1.98h19.48c-4.8398 2.93-4.4798 9.96-0.51 13.38z" fill="#000"/>
</g>
<path d="m115.29 383.66h-21.17c-1.0158 0-1.99-0.403-2.7083-1.122-0.7182-0.718-1.1217-1.692-1.1217-2.708-0.0013-0.503 0.0968-1.002 0.2888-1.467s0.4741-0.888 0.83-1.244 0.7786-0.638 1.2439-0.83 0.964-0.29 1.4673-0.289h21.17v7.66z" fill="#6C6C6C"/>
<path d="m109.88 376h43.5c0.239 0 0.467 0.095 0.636 0.264 0.169 0.168 0.264 0.397 0.264 0.636s-0.095 0.468-0.264 0.636c-0.169 0.169-0.397 0.264-0.636 0.264h-43.5v-1.8z" fill="#6C6C6C"/>
<path d="m109.88 381.85h43.5c0.239 0 0.467 0.095 0.636 0.264 0.169 0.168 0.264 0.397 0.264 0.636s-0.095 0.468-0.264 0.637c-0.169 0.168-0.397 0.263-0.636 0.263h-43.5v-1.8z" fill="#6C6C6C"/>
<path d="m152.95 381.85h-39.72c-0.53 0-1.039-0.211-1.414-0.586s-0.586-0.883-0.586-1.414c0-0.53 0.211-1.039 0.586-1.414s0.884-0.586 1.414-0.586h39.72c-0.48 0.556-0.744 1.266-0.744 2s0.264 1.444 0.744 2z" fill="#F5F5F5"/>
<g opacity=".3">
<path d="m111.2 383.66h-17.11c-1.0079 0-1.9744-0.4-2.6871-1.113-0.7126-0.713-1.1129-1.679-1.1129-2.687 0-1.024 0.4066-2.006 1.1305-2.729 0.7239-0.724 1.7057-1.131 2.7295-1.131h17.46c-3.89 1.68-3.64 5.7-0.41 7.66z" fill="#000"/>
</g>
<path d="m153.72 376s-13.43 0.06-30 0.06-30 0-30-0.06 13.43-0.06 30-0.06 30 0.02 30 0.06z" fill="#343434"/>
<path d="m113.72 365.54h-21.19c-1.0149-3e-3 -1.9876-0.407-2.7053-1.125s-1.122-1.69-1.1247-2.705c0-1.016 0.4036-1.99 1.1219-2.708 0.7182-0.719 1.6924-1.122 2.7081-1.122h21.19v7.66z" fill="#6C6C6C"/>
<path d="m108.29 357.88h43.5c0.239 0 0.468 0.095 0.636 0.263 0.169 0.169 0.264 0.398 0.264 0.637s-0.095 0.468-0.264 0.636c-0.168 0.169-0.397 0.264-0.636 0.264h-43.5v-1.8z" fill="#6C6C6C"/>
<path d="m108.29 363.73h43.5c0.239 0 0.468 0.095 0.636 0.264 0.169 0.168 0.264 0.397 0.264 0.636s-0.095 0.468-0.264 0.636c-0.168 0.169-0.397 0.264-0.636 0.264h-43.5v-1.8z" fill="#6C6C6C"/>
<path d="m151.36 363.73h-39.72c-0.531 0-1.039-0.211-1.415-0.586-0.375-0.375-0.585-0.884-0.585-1.414s0.21-1.039 0.585-1.414c0.376-0.375 0.884-0.586 1.415-0.586h39.72c-0.48 0.556-0.744 1.266-0.744 2s0.264 1.444 0.744 2z" fill="#F5F5F5"/>
<g opacity=".3">
<path d="m109.61 365.54h-17.11c-1.0078 0-1.9744-0.4-2.687-1.113-0.7127-0.713-1.1131-1.679-1.1131-2.687 0-1.024 0.4067-2.006 1.1306-2.73 0.7239-0.723 1.7057-1.13 2.7295-1.13h17.47c-3.94 1.68-3.64 5.7-0.42 7.66z" fill="#000"/>
</g>
<path d="m116.54 358.18h-17.22c-1.72 0-3.11-1.72-3.11-3.83 0-2.12 1.39-3.83 3.11-3.83h17.22v7.66z" fill="#838383"/>
<path d="m112.13 350.52h35.2c0.239 0 0.467 0.095 0.636 0.264 0.169 0.168 0.264 0.397 0.264 0.636s-0.095 0.468-0.264 0.636c-0.169 0.169-0.397 0.264-0.636 0.264h-35.2v-1.8z" fill="#838383"/>
<path d="m112.13 356.37h35.2c0.239 0 0.467 0.095 0.636 0.264s0.264 0.397 0.264 0.636-0.095 0.468-0.264 0.637c-0.169 0.168-0.397 0.263-0.636 0.263h-35.2v-1.8z" fill="#838383"/>
<path d="m147.16 356.37h-32.3c-0.481-0.053-0.923-0.292-1.231-0.665s-0.458-0.852-0.419-1.335c-0.037-0.482 0.115-0.959 0.422-1.332 0.308-0.373 0.748-0.612 1.228-0.668h32.3c-0.395 0.592-0.606 1.288-0.606 2s0.211 1.408 0.606 2z" fill="#F5F5F5"/>
<g opacity=".3">
<path d="m113.21 358.18h-13.91c-1.71 0-3.0901-1.7-3.0901-3.8 0-2.13 1.4101-3.86 3.1401-3.86h14.2c-3.2 1.68-2.96 5.7-0.34 7.66z" fill="#000"/>
</g>
<path d="m120.7 369.3v4.16l1.44-0.92 1.61 0.92v-4.16h-3.05z" fill="#838383"/>
<path d="m14.551 184.61v53.13h15.76v-53.13h-15.76z" fill="#838383"/>
<g opacity=".4">
<path d="m30.322 188.8h-15.76v6.28h15.76v-6.28z" fill="#000"/>
</g>
<g opacity=".4">
<path d="m30.322 226.76h-15.76v6.28h15.76v-6.28z" fill="#000"/>
</g>
<path d="m119.09 190.92v46.65c0 0.094 0.076 0.17 0.17 0.17h13.61c0.094 0 0.17-0.076 0.17-0.17v-46.65c0-0.094-0.076-0.17-0.17-0.17h-13.61c-0.094 0-0.17 0.076-0.17 0.17z" fill="#838383"/>
<g opacity=".4">
<path d="m132.9 194.45h-13.67c-0.078 0-0.14 0.063-0.14 0.14v5.27c0 0.078 0.062 0.14 0.14 0.14h13.67c0.077 0 0.14-0.062 0.14-0.14v-5.27c0-0.077-0.063-0.14-0.14-0.14z" fill="#000"/>
</g>
<g opacity=".4">
<path d="m132.9 228.02h-13.67c-0.078 0-0.14 0.063-0.14 0.14v5.27c0 0.077 0.062 0.14 0.14 0.14h13.67c0.077 0 0.14-0.063 0.14-0.14v-5.27c0-0.077-0.063-0.14-0.14-0.14z" fill="#000"/>
</g>
<path d="m127.4 204.93v18.63c0 0.334-0.133 0.655-0.369 0.891s-0.557 0.369-0.891 0.369-0.655-0.133-0.891-0.369-0.369-0.557-0.369-0.891v-18.63c2e-3 -0.332 0.136-0.65 0.372-0.884s0.555-0.366 0.888-0.366c0.332 0 0.651 0.132 0.887 0.366s0.37 0.552 0.373 0.884z" fill="#fff"/>
<path d="m140.91 184.79v52.79c0 0.094 0.076 0.17 0.17 0.17h15.43c0.094 0 0.17-0.076 0.17-0.17v-52.79c0-0.094-0.076-0.17-0.17-0.17h-15.43c-0.094 0-0.17 0.076-0.17 0.17z" fill="#343434"/>
<g opacity=".4">
<path d="m156.54 188.8h-15.49c-0.077 0-0.14 0.062-0.14 0.14v6c0 0.077 0.063 0.14 0.14 0.14h15.49c0.077 0 0.14-0.063 0.14-0.14v-6c0-0.078-0.063-0.14-0.14-0.14z" fill="#000"/>
</g>
<g opacity=".4">
<path d="m156.54 226.76h-15.49c-0.077 0-0.14 0.063-0.14 0.14v6c0 0.078 0.063 0.14 0.14 0.14h15.49c0.077 0 0.14-0.062 0.14-0.14v-6c0-0.077-0.063-0.14-0.14-0.14z" fill="#000"/>
</g>
<path d="m150.3 200.65v21.06c0 0.186-0.037 0.371-0.108 0.543-0.071 0.173-0.176 0.329-0.308 0.461s-0.288 0.237-0.461 0.308c-0.172 0.071-0.357 0.108-0.543 0.108-0.187 0-0.371-0.037-0.543-0.108-0.173-0.071-0.329-0.176-0.461-0.308s-0.237-0.288-0.308-0.461c-0.071-0.172-0.108-0.357-0.108-0.543v-21.06c3e-3 -0.376 0.153-0.735 0.419-1.001 0.265-0.266 0.625-0.416 1.001-0.419 0.376 3e-3 0.735 0.153 1.001 0.419s0.416 0.625 0.419 1.001z" fill="#fff"/>
<path d="m22.441 265.13v53.13h15.76v-53.13h-15.76z" fill="#838383"/>
<g opacity=".4">
<path d="m38.201 269.31h-15.76v6.28h15.76v-6.28z" fill="#000"/>
</g>
<g opacity=".4">
<path d="m38.201 307.27h-15.76v6.28h15.76v-6.28z" fill="#000"/>
</g>
<path d="m28.992 281.02v21.36c0 0.701 0.5686 1.27 1.27 1.27h0.3c0.7014 0 1.27-0.569 1.27-1.27v-21.36c0-0.702-0.5686-1.27-1.27-1.27h-0.3c-0.7014 0-1.27 0.568-1.27 1.27z" fill="#fff"/>
<path d="m31.141 176.38v60.95h7.88v-60.95h-7.88z" fill="#6C6C6C"/>
<path d="m132.99 177.1v60.61c0 0.094 0.076 0.17 0.17 0.17h7.54c0.094 0 0.17-0.076 0.17-0.17v-60.61c0-0.094-0.076-0.17-0.17-0.17h-7.54c-0.094 0-0.17 0.076-0.17 0.17z" fill="#6C6C6C"/>
<g opacity=".4">
<path d="m140.78 183.51h-7.6c-0.077 0-0.14 0.063-0.14 0.14v6c0 0.078 0.063 0.14 0.14 0.14h7.6c0.077 0 0.14-0.062 0.14-0.14v-6c0-0.077-0.063-0.14-0.14-0.14z" fill="#000"/>
</g>
<g opacity=".4">
<path d="m140.73 226.89h-7.6c-0.077 0-0.14 0.063-0.14 0.14v6c0 0.077 0.063 0.14 0.14 0.14h7.6c0.077 0 0.14-0.063 0.14-0.14v-6c0-0.077-0.063-0.14-0.14-0.14z" fill="#000"/>
</g>
<path d="m137.72 195.32v22.49c0 0.188-0.075 0.369-0.208 0.502s-0.314 0.208-0.502 0.208c-0.189 0-0.369-0.075-0.502-0.208s-0.208-0.314-0.208-0.502v-22.49c0-0.093 0.018-0.184 0.054-0.27s0.088-0.163 0.154-0.228 0.145-0.117 0.231-0.151c0.086-0.035 0.178-0.052 0.271-0.051 0.093-1e-3 0.185 0.016 0.271 0.051 0.086 0.034 0.164 0.086 0.23 0.151s0.119 0.142 0.155 0.228c0.035 0.086 0.054 0.177 0.054 0.27z" fill="#fff"/>
<path d="m119.05 30.22v46.65c0 0.0938 0.076 0.1699 0.17 0.1699h13.61c0.094 0 0.17-0.0761 0.17-0.1699v-46.65c0-0.0939-0.076-0.17-0.17-0.17h-13.61c-0.094 0-0.17 0.0761-0.17 0.17z" fill="#838383"/>
<g opacity=".4">
<path d="m132.86 33.74h-13.67c-0.078 0-0.14 0.0627-0.14 0.14v5.27c0 0.0774 0.062 0.14 0.14 0.14h13.67c0.077 0 0.14-0.0626 0.14-0.14v-5.27c0-0.0773-0.063-0.14-0.14-0.14z" fill="#000"/>
</g>
<g opacity=".4">
<path d="m132.86 67.32h-13.67c-0.078 0-0.14 0.0627-0.14 0.14v5.27c0 0.0773 0.062 0.14 0.14 0.14h13.67c0.077 0 0.14-0.0627 0.14-0.14v-5.27c0-0.0773-0.063-0.14-0.14-0.14z" fill="#000"/>
</g>
<path d="m127.35 44.23v18.63c0 0.3315-0.132 0.6494-0.366 0.8838-0.235 0.2345-0.553 0.3662-0.884 0.3662-0.165 0.0013-0.329-0.0301-0.482-0.0923-0.152-0.0622-0.291-0.1541-0.409-0.2703-0.117-0.1162-0.21-0.2544-0.273-0.4068-0.064-0.1523-0.096-0.3156-0.096-0.4806v-18.63c-2e-3 -0.1659 0.03-0.3303 0.093-0.4838s0.156-0.2929 0.273-0.4102c0.117-0.1172 0.257-0.21 0.41-0.2728 0.154-0.0629 0.318-0.0946 0.484-0.0932 0.165 0 0.328 0.0326 0.48 0.0961 0.153 0.0634 0.291 0.1564 0.407 0.2735s0.208 0.2561 0.271 0.4089c0.062 0.1529 0.093 0.3165 0.092 0.4815z" fill="#fff"/>
<path d="m140.86 24.08v52.79c0 0.0939 0.076 0.17 0.17 0.17h15.42c0.094 0 0.17-0.0761 0.17-0.17v-52.79c0-0.0939-0.076-0.17-0.17-0.17h-15.42c-0.094 0-0.17 0.0761-0.17 0.17z" fill="#343434"/>
<g opacity=".4">
<path d="m156.49 28.09h-15.48c-0.077 0-0.14 0.0627-0.14 0.1401v6c0 0.0773 0.063 0.14 0.14 0.14h15.48c0.077 0 0.14-0.0627 0.14-0.14v-6c0-0.0774-0.063-0.1401-0.14-0.1401z" fill="#000"/>
</g>
<g opacity=".4">
<path d="m156.49 66.05h-15.48c-0.077 0-0.14 0.0627-0.14 0.14v6c0 0.0773 0.063 0.14 0.14 0.14h15.48c0.077 0 0.14-0.0627 0.14-0.14v-6c0-0.0773-0.063-0.14-0.14-0.14z" fill="#000"/>
</g>
<path d="m150.26 39.95v21.06c-3e-3 0.3758-0.153 0.7355-0.419 1.0012-0.266 0.2658-0.625 0.4162-1.001 0.4188-0.377 0-0.738-0.1496-1.004-0.4159s-0.416-0.6275-0.416-1.0041v-21.06c-1e-3 -0.1868 0.034-0.3721 0.105-0.545 0.071-0.1728 0.176-0.3299 0.308-0.462 0.132-0.1322 0.289-0.2367 0.462-0.3076s0.358-0.1067 0.545-0.1054c0.377 0 0.738 0.1496 1.004 0.4159s0.416 0.6275 0.416 1.0041z" fill="#fff"/>
<path d="m132.95 16.39v60.61c0 0.0939 0.076 0.17 0.17 0.17h7.54c0.094 0 0.17-0.0761 0.17-0.17v-60.61c0-0.0939-0.076-0.1701-0.17-0.1701h-7.54c-0.094 0-0.17 0.0762-0.17 0.1701z" fill="#6C6C6C"/>
<g opacity=".4">
<path d="m140.73 22.81h-7.6c-0.077 0-0.14 0.0626-0.14 0.14v6c0 0.0773 0.063 0.14 0.14 0.14h7.6c0.077 0 0.14-0.0627 0.14-0.14v-6c0-0.0774-0.063-0.14-0.14-0.14z" fill="#000"/>
</g>
<g opacity=".4">
<path d="m140.69 66.18h-7.6c-0.077 0-0.14 0.0627-0.14 0.14v6c0 0.0773 0.063 0.14 0.14 0.14h7.6c0.077 0 0.14-0.0627 0.14-0.14v-6c0-0.0773-0.063-0.14-0.14-0.14z" fill="#000"/>
</g>
<path d="m137.64 34.65v22.48c2e-3 0.0928-0.015 0.1849-0.05 0.271-0.034 0.0861-0.086 0.1644-0.151 0.2305s-0.143 0.1185-0.228 0.1543c-0.086 0.0358-0.178 0.0542-0.271 0.0542-0.188 0-0.368-0.0748-0.502-0.2079-0.133-0.1332-0.208-0.3138-0.208-0.5021v-22.48c0-0.1883 0.075-0.3689 0.208-0.502 0.134-0.1332 0.314-0.208 0.502-0.208 0.093 0 0.185 0.0185 0.271 0.0543 0.085 0.0358 0.163 0.0882 0.228 0.1543 0.065 0.066 0.117 0.1444 0.151 0.2305 0.035 0.0861 0.052 0.1782 0.05 0.2709z" fill="#fff"/>
<path d="m38.051 257.05v60.95h7.88v-60.95h-7.88z" fill="#6C6C6C"/>
<g opacity=".4">
<path d="m45.982 263.64h-7.88v6.28h7.88v-6.28z" fill="#000"/>
</g>
<g opacity=".4">
<path d="m45.942 307.01h-7.8799v6.28h7.8799v-6.28z" fill="#000"/>
</g>
<path d="m42.721 275.48v22.48c0 0.188-0.0748 0.369-0.208 0.502-0.1331 0.133-0.3138 0.208-0.5021 0.208-0.0932 0-0.1855-0.018-0.2716-0.054-0.0862-0.036-0.1644-0.088-0.2304-0.154-0.0659-0.066-0.1182-0.144-0.1539-0.23s-0.054-0.179-0.054-0.272v-22.48c0-0.093 0.0183-0.186 0.054-0.272s0.088-0.164 0.1539-0.23c0.066-0.066 0.1442-0.118 0.2304-0.154 0.0861-0.036 0.1784-0.054 0.2716-0.054 0.1883 0 0.369 0.075 0.5021 0.208 0.1332 0.133 0.208 0.314 0.208 0.502z" fill="#fff"/>
<path d="m132.87 265.13v53.13h15.76v-53.13h-15.76z" fill="#838383"/>
<g opacity=".4">
<path d="m148.63 269.31h-15.76v6.28h15.76v-6.28z" fill="#000"/>
</g>
<g opacity=".4">
<path d="m148.63 307.27h-15.76v6.28h15.76v-6.28z" fill="#000"/>
</g>
<path d="m116.57 273.22v45.1h15.76v-45.1h-15.76z" fill="#343434"/>
<path d="m45.492 269.31v49h22.95v-49h-22.95z" fill="#343434"/>
<path d="m148.69 257.36v60.95h7.88v-60.95h-7.88z" fill="#6C6C6C"/>
<g opacity=".4">
<path d="m156.62 263.95h-7.88v6.28h7.88v-6.28z" fill="#000"/>
</g>
<g opacity=".4">
<path d="m156.57 307.32h-7.88v6.28h7.88v-6.28z" fill="#000"/>
</g>
<path d="m153.39 275.79v22.53c0 0.188-0.075 0.369-0.208 0.502s-0.314 0.208-0.502 0.208c-0.189 0-0.369-0.075-0.502-0.208-0.134-0.133-0.208-0.314-0.208-0.502v-22.53c0-0.188 0.074-0.369 0.208-0.502 0.133-0.133 0.313-0.208 0.502-0.208 0.188 0 0.369 0.075 0.502 0.208s0.208 0.314 0.208 0.502z" fill="#fff"/>
<path d="m84.73 265.13v53.13h15.76v-53.13h-15.76z" fill="#6C6C6C"/>
<g opacity=".4">
<path d="m100.49 269.31h-15.76v6.28h15.76v-6.28z" fill="#000"/>
</g>
<g opacity=".4">
<path d="m100.49 307.27h-15.76v6.28h15.76v-6.28z" fill="#000"/>
</g>
<path d="m68.434 273.22v45.1h15.76v-45.1h-15.76z" fill="#838383"/>
<g opacity=".4">
<path d="m84.194 276.76h-15.76v5.33h15.76v-5.33z" fill="#000"/>
</g>
<g opacity=".4">
<path d="m84.194 308.98h-15.76v5.33h15.76v-5.33z" fill="#000"/>
</g>
<path d="m103.29 257.36v60.95h5.17v-60.95h-5.17z" fill="#838383"/>
<g opacity=".4">
<path d="m108.49 263.95h-5.17v6.28h5.17v-6.28z" fill="#000"/>
</g>
<g opacity=".4">
<path d="m108.46 307.32h-5.17v6.28h5.17v-6.28z" fill="#000"/>
</g>
<path d="m106.36 275.55v23c0 0.122-0.049 0.239-0.135 0.325-0.086 0.087-0.203 0.135-0.325 0.135-0.123 0-0.241-0.048-0.329-0.134s-0.139-0.203-0.141-0.326v-23c0-0.125 0.049-0.244 0.137-0.332s0.208-0.138 0.333-0.138c0.061 0 0.121 0.012 0.178 0.036 0.056 0.024 0.108 0.059 0.15 0.102 0.043 0.044 0.077 0.096 0.099 0.153 0.023 0.057 0.034 0.118 0.033 0.179z" fill="#fff"/>
<path d="m108.64 257.37v60.95h7.88v-60.95h-7.88z" fill="#6C6C6C"/>
<g opacity=".4">
<path d="m116.56 263.95h-7.88v6.28h7.88v-6.28z" fill="#000"/>
</g>
<g opacity=".4">
<path d="m116.52 307.32h-7.88v6.28h7.88v-6.28z" fill="#000"/>
</g>
<path d="m113.33 275.79v22.53c0 0.188-0.075 0.369-0.208 0.502s-0.314 0.208-0.502 0.208-0.369-0.075-0.502-0.208-0.208-0.314-0.208-0.502v-22.53c0-0.188 0.075-0.369 0.208-0.502s0.314-0.208 0.502-0.208 0.369 0.075 0.502 0.208 0.208 0.314 0.208 0.502z" fill="#fff"/>
<path d="m77.713 142.85h-11.76v13.98h11.76v-13.98z" fill="#F5F5F5"/>
<path d="m66.362 141.94h-53.12v15.77h53.12v-15.77z" fill="#838383"/>
<path d="m78.071 143.26h-13.13v-1.32h13.13c0.1751 0 0.343 0.069 0.4667 0.193 0.1238 0.124 0.1933 0.292 0.1933 0.467-0.0025 0.174-0.0729 0.341-0.1961 0.464s-0.2897 0.193-0.4639 0.196z" fill="#838383"/>
<path d="m78.071 157.7h-13.13v-1.33h13.13c0.176 3e-3 0.3439 0.074 0.4674 0.2 0.1235 0.125 0.1927 0.294 0.1926 0.47-0.0025 0.174-0.0729 0.341-0.1961 0.464s-0.2897 0.194-0.4639 0.196z" fill="#838383"/>
<g opacity=".4">
<path d="m62.19 141.94h-6.2799v15.77h6.2799v-15.77z" fill="#000"/>
</g>
<path d="m50.482 148.48h-21.36c-0.7014 0-1.27 0.569-1.27 1.27v0.3c0 0.701 0.5686 1.27 1.27 1.27h21.36c0.7014 0 1.27-0.569 1.27-1.27v-0.3c0-0.701-0.5686-1.27-1.27-1.27z" fill="#fff"/>
<path d="m100.72 206.17h14.2c0.084 6e-3 0.167-0.021 0.233-0.075 0.065-0.054 0.107-0.131 0.117-0.215-0.01-0.084-0.052-0.161-0.117-0.215-0.066-0.054-0.149-0.081-0.233-0.075h-14.2v0.58z" fill="#6C6C6C"/>
<path d="m116.15 214.95h-13.49v21.73h13.49v-21.73z" fill="#EBEBEB"/>
<path d="m102.67 214.19h-63.31v23.56h63.31v-23.56z" fill="#838383"/>
<path d="m117.21 237.74h-16.28v-1.53h16.28c0.219-0.014 0.436 0.059 0.602 0.203s0.27 0.348 0.288 0.567c-0.018 0.219-0.122 0.421-0.289 0.564-0.166 0.142-0.383 0.213-0.601 0.196z" fill="#838383"/>
<path d="m117.34 215.71h-16.41v-1.52h16.41c0.201 0 0.394 0.08 0.537 0.223 0.143 0.142 0.223 0.335 0.223 0.537s-0.08 0.395-0.223 0.537c-0.143 0.143-0.336 0.223-0.537 0.223z" fill="#838383"/>
<g opacity=".4">
<path d="m89.05 214.19-13.32 23.55h11.25l12.63-23.55h-10.56z" fill="#fff"/>
</g>
<g opacity=".4">
<path d="m68.04 214.19-13.31 23.55h11.24l12.63-23.55h-10.56z" fill="#fff"/>
</g>
<path d="m56.823 303.65c-0.4049-3e-3 -0.7926-0.165-1.0789-0.451-0.2864-0.287-0.4484-0.674-0.451-1.079v-17c0-0.406 0.1612-0.795 0.4481-1.082s0.6761-0.448 1.0818-0.448c0.2013-1e-3 0.4009 0.037 0.5871 0.114 0.1863 0.076 0.3554 0.189 0.4978 0.331 0.1423 0.142 0.255 0.312 0.3314 0.498s0.1151 0.386 0.1138 0.587v17c0 0.406-0.1612 0.795-0.4482 1.082-0.2869 0.287-0.6761 0.448-1.0819 0.448z" fill="#fff"/>
<path d="m45.941 141.78h-16.39l8.19-14.19 8.1999-14.2 8.2 14.2 8.19 14.19h-16.39z" fill="#E0E0E0"/>
<path d="m23.262 372.97v11.08h-3.8399v2.5h3.8399v12.08h71.71v-10.7h-5.31v-3h5.31v-4.61h2.3599v-2.07h-2.7999v-5.27l-71.27-0.01z" fill="#F5F5F5"/>
<path d="m75.934 373.04v25.33h19.04v-10.69h-5.31v-2.8l5.31 0.1v-4.57h2.4099l-0.0499-2.36-2.8-0.07v-5.01l-18.6 0.07z" fill="#E0E0E0"/>
<path d="m24.813 347.11v11.08h-3.84v2.5h3.84v12.08h71.71v-10.7h-5.31v-3.05h5.31v-4.57h2.36v-2.08h-2.8v-5.26h-71.27z" fill="#F5F5F5"/>
<path d="m77.48 347.18v25.33h19.04v-10.69h-5.31v-2.8l5.31 0.1v-4.57h2.4101l-0.0501-2.36-2.8-0.07v-5.01l-18.6 0.07z" fill="#E0E0E0"/>
<path d="m219.05 365.4h-60.045v4.656h60.045v-4.656z" fill="#EBEBEB"/>
<path d="m151.38 370.06v20.973h-3.291v2.285h3.291v14.041h61.498v-12.779h-4.552v-2.788h4.552v-4.169h2.021v-1.901h-2.396v-15.662h-61.123z" fill="#F5F5F5"/>
<path d="m157.46 328.1v20.982h-3.29v2.276h3.29v14.041h61.499v-12.779h-4.552v-2.788h4.552v-4.169h2.037v-1.893h-2.396v-15.67h-61.14z" fill="#F5F5F5"/>
<path d="m215.02 407.14h-60.045v4.656h60.045v-4.656z" fill="#EBEBEB"/>
</svg>
