<?xml version="1.0" encoding="UTF-8"?>
<svg viewBox="0 0 5307 348" xmlns="http://www.w3.org/2000/svg">
<path d="m2675 347.67v-257.76c-2.18-5.1118-7.55-75.229-21.48-75.229-9.02 0-30.44 28.434-28.76 37.938 1.69 9.5029 0.14 23.672-3.45 31.485-3.59 7.8127-4.8 20.425-2.69 28.03 2.11 7.601 0.38 16.067-3.84 18.813-4.22 2.745-10.96-2.266-14.97-11.134-4.02-8.868-6.78-21.826-6.15-28.795 0.64-6.9693-2.3-23.382-6.53-36.474-4.22-13.095-10.44-32.792-13.82-43.77-3.38-10.982-8.04-14.091-10.37-6.9098-2.32 7.181-6.99 21.346-10.36 31.485-3.38 10.134-9.08 25.515-12.68 34.17-3.58 8.6597-7.39 21.443-8.44 28.412-1.06 6.9695-4.51 16.472-7.68 21.116-3.17 4.643-3.69 11.382-1.15 14.975 2.53 3.589 5.64 11.193 6.91 16.896 1.26 5.702-0.98 13.478-5 17.278-4.01 3.8-11.44 3.8-16.51 0-5.06-3.8-8.86-13.994-8.44-22.654s-1.48-23.345-4.23-32.636c-2.74-9.292-7.58-23.806-10.75-32.254s-8.35-9.3096-11.52-1.9205c-3.17 7.3928-7.14 21.558-8.83 31.484-1.69 9.927-5.32 23.746-8.06 30.716-2.75 6.969-5.34 20.272-5.76 29.564-0.42 9.291-4.57 20.176-9.21 24.188-4.65 4.012-12.94-0.825-18.43-10.751-5.49-9.927-11.2-24.437-12.68-32.254-1.47-7.816-4.24-20.254-6.14-27.643s-7.78-22.94-13.05-34.557c-5.28-11.613-12.71-12.133-16.51-1.1517-3.8 10.982-9.68 24.802-13.06 30.716s-6.49 19.909-6.91 31.098c-0.42 11.193-5.78 26.053-11.9 33.019-6.12 6.969-12.69 8.871-14.59 4.224-1.9-4.648-6.39-16.914-9.98-27.261-3.59-10.346-9.64-29.181-13.44-41.849-3.8-12.672-9.85-15.607-13.44-6.527-3.58 9.079-7.04 23.594-7.68 32.253-0.63 8.66-3.57 17.126-6.52 18.813-2.96 1.69-7.28-2.801-9.6-9.982s-6.82-17.546-9.98-23.037c-3.17-5.491-7.32-4.8-9.22 1.534s-6.74 19.121-10.75 28.413c-4.01 9.291-8.85 22.594-10.75 29.564-1.91 6.969-9.16 18.37-16.13 25.34-6.97 6.969-17.68 18.545-23.81 25.726-6.12 7.181-18.73 9.945-28.03 6.145-9.29-3.801-23.97-3.975-32.63-0.383-8.66 3.589-18.68 0.479-22.27-6.91-3.59-7.393-4.11-18.278-1.15-24.188 2.96-5.914 0.02-15.934-6.53-22.272-6.54-6.334-12.42-20.157-13.05-30.715s-9.1-32.674-18.82-49.146v-2.303-2.304c3.38-11.825 1.83-30.485-3.45-41.466-5.28-10.982-12.71-10.982-16.51 0-3.8 10.982-9.5 23.594-12.67 28.03s-5.94 14.975-6.15 23.423-4.18 19.85-8.83 25.34c-4.64 5.491-7.06 14.994-5.37 21.116 1.69 6.123-1.42 10.098-6.91 8.831s-11.89-5.067-14.21-8.448c-2.32-3.377-6.47-0.442-9.21 6.527-2.75 6.97-5.51 19.757-6.15 28.413-0.63 8.659-6.16 12.976-12.28 9.599s-13.73-10.116-16.89-14.975c-3.17-4.856-6.45-18.508-7.3-30.333-0.84-11.825-3.26-28.758-5.38-37.629-2.11-8.868-5.57-20.619-7.68-26.109-2.11-5.4911-7.46-5.8365-11.9-0.7692-4.43 5.0672-9.62 16.643-11.52 25.726-1.9 9.08-7.43 24.46-12.28 34.174-4.86 9.715-12.46 22.844-16.9 29.182-4.43 6.334-9.44 20.503-11.13 31.484-1.69 10.982-9.29 16.684-16.89 12.672s-15.03-15.588-16.51-25.726c-1.48-10.135-5.97-25.515-9.98-34.171-4.02-8.659-7.65-26.28-8.07-39.163-0.42-12.884-3.7-34.305-7.3-47.612-3.58-13.303-8.08-20.908-9.98-16.892-1.9 4.0122-8.12 15.417-13.82 25.34-5.7 9.9269-10.89 27.031-11.52 38.012-0.63 10.982-3.92 24.805-7.3 30.716-3.38 5.914-8.04 19.734-10.37 30.715-2.32 10.982-8.02 14.782-12.67 8.448s-10.17-22.405-12.28-35.708c-2.12-13.304-6.26-26.953-9.22-30.333-2.95-3.381-7.79-0.442-10.75 6.527-2.95 6.969-7.27 20.618-9.6 30.333-2.32 9.715-5.08 25.266-6.14 34.557s-3.82 23.977-6.15 32.636c-2.32 8.66-8.89 15.05-14.59 14.206-5.7-0.843-14.68-10.175-19.96-20.733s-13.05-28.873-17.28-40.698c-4.22-11.825-8.54-30.14-9.6-40.698-1.05-10.558-5.54-30.775-9.98-44.922-4.44-14.15-10.13-19.332-12.67-11.52-2.54 7.8129-5.64 22.844-6.91 33.405-1.27 10.558-5.59 30.43-9.6 44.153-4.01 13.727-7.81 33.941-8.45 44.922-0.63 10.982-5.3 19.448-10.37 18.813-5.06-0.635-12.32-6.334-16.12-12.672-3.8-6.334-7.26-23.787-7.68-38.781-0.43-14.994-3.54-23.115-6.91-18.047-3.38 5.067-8.05 16.297-10.37 24.957s-6.3 20.752-8.83 26.878c-2.53 6.122-4.78 17.873-4.99 26.109s-2.81 21.194-5.76 28.795c-2.96 7.601-9.87 11.231-15.36 8.062s-9.63-10.079-9.21-15.358 0.94-16.339 1.15-24.575-2.73-19.987-6.53-26.109-8.63-14.934-10.75-19.582c-2.11-4.644-4.88-3.262-6.14 3.073-1.27 6.334-5.76 21.714-9.98 34.17-4.23 12.46-10.1 27.146-13.06 32.636-2.96 5.491-10.21 13.267-16.13 17.279-5.91 4.012-13.86 2.63-17.66-3.072-3.8-5.703-12.78-16.068-19.96-23.037-7.18-6.97-14.96-19.582-17.28-28.03s-7.16-21.751-10.75-29.564-8.26-21.636-10.37-30.716c-2.11-9.079-6.6-10.29-9.98-2.689s-7.53 23.843-9.22 36.091-6 27.799-9.59 34.557-10.16 17.817-14.59 24.575c-4.44 6.757-14.11 7.274-21.51 1.151-7.39-6.126-13.61-19.6-13.82-29.95-0.21-10.346-1.76-24.69-3.45-31.867-1.69-7.181-4.98-18.757-7.3-25.727-2.32-6.969-6.47-7.66-9.21-1.534-2.75 6.126-10.7 19.084-17.66 28.799-6.97 9.714-13.71 27.855-14.98 40.315s-5.24 27.662-8.83 33.788c-3.59 6.122-13.44 6.817-21.89 1.534-8.44-5.279-18.29-15.993-21.88-23.805-3.59-7.813-7.22-20.771-8.06-28.795-0.85-8.025-5.51-23.921-10.37-35.323-4.86-11.405-10.56-25.399-12.67-31.102-2.11-5.702-7.99-1.727-13.06 8.831-5.06 10.558-9.56 26.454-9.98 35.322s-4.05 22.52-8.06 30.333-11.61 18.352-16.9 23.423c-5.28 5.067-12.19 15.261-15.35 22.654-3.17 7.393-16.82 17.932-30.34 23.42-13.51 5.49-29.93 5.836-36.475 0.769-6.546-5.068-19.333-8.523-28.412-7.679-9.08 0.843-17.721-4.685-19.2-12.286-1.478-7.601-4.933-21.424-7.679-30.715-2.745-9.292-7.236-21.213-9.982-26.492-2.745-5.279-8.793-2.17-13.437 6.91-4.647 9.079-8.448 23.077-8.448 31.102 0 8.024-3.975 18.393-8.83 23.036-4.86 4.648-13.151 6.892-18.43 4.993-5.279-1.902-14.782-9.673-21.116-17.278-6.335-7.601-12.037-21.599-12.672-31.098-0.636-9.503-4.782-26.091-9.217-36.86-4.436-10.77-10.135-25.11-12.672-31.868-2.534-6.757-8.407-5.892-13.055 1.921-4.647 7.812-11.382 21.636-14.975 30.715-3.588 9.08-12.23 20.485-19.199 25.341-6.969 4.855-15.436 2.611-18.813-4.994-3.38-7.6-6.661-20.733-7.296-29.181s-4.781-19.158-9.213-23.806c-4.432-4.647-11.175-1.534-14.975 6.91-3.801 8.448-9.503 21.926-12.672 29.951-3.169 8.024-9.388 6.817-13.824-2.686-4.435-9.503-12.211-29.72-17.278-44.922-5.067-15.205-9.733-35.419-10.365-44.922-0.635-9.503-4.607-21.079-8.831-25.722-4.224-4.6475-10.272-2.7453-13.437 4.224-3.169 6.9695-7.831 21.484-10.365 32.254-2.533 10.77-8.061 25.63-12.285 33.019s-8.89 20.522-10.365 29.181c-1.479 8.66-3.726 23.862-4.993 33.788-1.267 9.927-6.104 22.539-10.751 28.03-4.648 5.491-16.223 6.587-25.726 2.43-9.503-4.154-19.006-14.924-21.117-23.933-2.11-9.008-7.181-26.057-11.263-37.885-4.083-11.825-9.15-15.28-11.264-7.679-2.11 7.601-7.412 18.085-11.773 23.293-4.365 5.209-7.36 16.959-6.657 26.109 0.702 9.15-5.748 19.173-14.333 22.272-8.589 3.098-17.226-5.889-19.199-19.965-1.973-14.08-8.076-24.329-13.567-22.78s-12.516-3.633-15.614-11.52c-3.099-7.884-3.444-19.404-0.769-25.597 2.674-6.193-0.55-11.955-7.167-12.798-6.616-0.843-10.416-6.72-8.447-13.054 1.972-6.335-1.026-16.243-6.654-22.016-5.632-5.773-12.312-17.635-14.845-26.365-2.534-8.7265-8.522-23.011-13.311-31.741-4.789-8.7303-10.547-11.264-12.798-5.6319-2.252 5.6319-6.977 14.269-10.495 19.199-3.518 4.9261-4.785 13.798-2.816 19.708 1.969 5.915-0.736 13.631-6.015 17.149s-8.388 13.136-6.91 21.372c1.479 8.237 0.959 23.442-1.151 33.788s-5.569 14.496-7.679 9.217-7.296-13.229-11.52-17.661c-4.224-4.436-10.443-13.593-13.824-20.351-3.38-6.757-8.388-7.103-11.134-0.765-2.745 6.334-6.72 15.837-8.83 21.116s-6.776 15.127-10.369 21.885c-3.588 6.758-6.873 23-7.296 36.091-0.424 13.092-4.569 24.151-9.213 24.575-4.648 0.423-13.631-9.945-19.965-23.037v-2.303-2.303c-1.69-10.558-8.08-26.109-14.206-34.557s-14.763-8.619-19.199-0.383-8.752 20.158-9.6 26.492c-0.843 6.334-1.363 17.91-1.151 25.726 0.212 7.813-3.763 16.799-8.831 19.964-5.067 3.166-10.078 0.231-11.134-6.527-1.055-6.757-5.895-16.26-10.751-21.116-4.855-4.855-11.249-15.395-14.206-23.423-2.957-8.024-7.103-9.581-9.217-3.455-2.11 6.123-6.26 14.764-9.213 19.199-2.957 4.436-5.547 14.976-5.758 23.42-0.212 8.448-4.358 14.321-9.213 13.054-4.856-1.267-12.806-4.721-17.662-7.679-4.859-2.957-5.546-11.769-1.534-19.581 4.012-7.813 3.841-17.316-0.383-21.117-4.223-3.8-11.133-11.405-15.357-16.895-4.2243-5.491-7.3338-18.104-6.9102-28.03 0.4235-9.927-3.3807-21.328-8.448-25.34-5.0672-4.012-12.672-16.454-16.896-27.643-4.2239-11.194-10.097-12.747-13.054-3.455-2.9571 9.291-7.4486 20.176-9.9822 24.188s-4.9521 11.442-5.3756 16.509c-0.4235 5.068-4.0493 12.152-8.0615 15.741s-7.9873 10.502-8.8306 15.358c-0.8433 4.855-0.3269 13.496 1.1516 19.199 1.4786 5.702 0.0966 14.34-3.0723 19.199-3.1689 4.856-9.5624 10.733-14.206 13.055-4.6475 2.321-4.4729 9.406 0.3826 15.74 4.8555 6.334 3.819 15.321-2.3033 19.968-2.3776 1.806-5.2196 3.633-8.1061 5.275v68.234h2675v-0.011z" fill="#424242"/>
<path d="m2632 347.67v-257.76c2.19-5.1118 7.55-75.229 21.48-75.229 9.02 0 30.45 28.434 28.76 37.938-1.69 9.5029-0.13 23.672 3.46 31.485 3.58 7.8127 4.8 20.425 2.68 28.03-2.11 7.601-0.38 16.067 3.84 18.813 4.23 2.745 10.97-2.266 14.98-11.134s6.77-21.826 6.14-28.795 2.31-23.382 6.53-36.474c4.22-13.095 10.44-32.792 13.82-43.77 3.38-10.982 8.05-14.091 10.37-6.9098 2.32 7.181 6.99 21.346 10.37 31.485 3.37 10.134 9.08 25.515 12.67 34.17 3.59 8.6597 7.39 21.443 8.45 28.412 1.05 6.9695 4.51 16.472 7.68 21.116 3.17 4.643 3.68 11.382 1.15 14.975-2.54 3.589-5.65 11.193-6.91 16.896-1.27 5.702 0.98 13.478 4.99 17.278s11.44 3.8 16.51 0 8.87-13.994 8.45-22.654c-0.43-8.66 1.48-23.345 4.22-32.636 2.75-9.292 7.58-23.806 10.75-32.254s8.35-9.3096 11.52-1.9205c3.17 7.3928 7.14 21.558 8.83 31.484 1.69 9.927 5.32 23.746 8.07 30.716 2.74 6.969 5.33 20.272 5.75 29.564 0.43 9.291 4.57 20.176 9.22 24.188 4.64 4.012 12.94-0.825 18.43-10.751 5.49-9.927 11.19-24.437 12.67-32.254 1.48-7.816 4.24-20.254 6.14-27.643 1.91-7.389 7.78-22.94 13.06-34.557 5.28-11.613 12.71-12.133 16.51-1.1517 3.8 10.982 9.67 24.802 13.05 30.716s6.49 19.909 6.91 31.098c0.43 11.193 5.78 26.053 11.91 33.019 6.12 6.969 12.69 8.871 14.58 4.224 1.91-4.648 6.4-16.914 9.99-27.261 3.58-10.346 9.63-29.181 13.43-41.849 3.8-12.672 9.85-15.607 13.44-6.527 3.59 9.079 7.04 23.594 7.68 32.253 0.63 8.66 3.57 17.126 6.53 18.813 2.95 1.69 7.27-2.801 9.6-9.982 2.32-7.181 6.81-17.546 9.98-23.037s7.31-4.8 9.22 1.534c1.9 6.334 6.73 19.121 10.75 28.413 4.01 9.291 8.85 22.594 10.75 29.564 1.9 6.969 9.15 18.37 16.12 25.34 6.97 6.969 17.68 18.545 23.81 25.726 6.12 7.181 18.74 9.945 28.03 6.145 9.29-3.801 23.98-3.975 32.64-0.383 8.66 3.589 18.68 0.479 22.26-6.91 3.59-7.393 4.11-18.278 1.16-24.188-2.96-5.914-0.02-15.934 6.52-22.272 6.55-6.334 12.42-20.157 13.06-30.715 0.63-10.558 9.09-32.674 18.81-49.146v-2.303-2.304c-3.38-11.825-1.82-30.485 3.45-41.466 5.28-10.982 12.71-10.982 16.51 0 3.8 10.982 9.51 23.594 12.68 28.03 3.16 4.4357 5.93 14.975 6.14 23.423s4.19 19.85 8.83 25.34c4.65 5.491 7.07 14.994 5.38 21.116-1.69 6.123 1.42 10.098 6.91 8.831s11.88-5.067 14.2-8.448c2.32-3.377 6.47-0.442 9.22 6.527 2.74 6.97 5.51 19.757 6.14 28.413 0.64 8.659 6.16 12.976 12.29 9.599 6.12-3.377 13.72-10.116 16.89-14.975 3.17-4.856 6.45-18.508 7.29-30.333 0.85-11.825 3.27-28.758 5.38-37.629 2.11-8.868 5.57-20.619 7.68-26.109 2.11-5.4911 7.47-5.8365 11.9-0.7692 4.44 5.0672 9.62 16.643 11.52 25.726 1.9 9.08 7.43 24.46 12.29 34.174 4.85 9.715 12.46 22.844 16.89 29.182 4.44 6.334 9.44 20.503 11.13 31.484 1.69 10.982 9.29 16.684 16.9 12.672 7.6-4.012 15.03-15.588 16.51-25.726 1.47-10.135 5.97-25.515 9.98-34.171 4.01-8.659 7.64-26.28 8.06-39.163 0.43-12.884 3.71-34.305 7.3-47.612 3.59-13.303 8.08-20.908 9.98-16.892 1.9 4.0122 8.12 15.417 13.82 25.34 5.71 9.9269 10.89 27.031 11.52 38.012 0.64 10.982 3.92 24.805 7.3 30.716 3.38 5.914 8.04 19.734 10.37 30.715 2.32 10.982 8.02 14.782 12.67 8.448s10.18-22.405 12.29-35.708c2.11-13.304 6.26-26.953 9.21-30.333 2.96-3.381 7.79-0.442 10.75 6.527s7.28 20.618 9.6 30.333 5.09 25.266 6.15 34.557c1.05 9.291 3.81 23.977 6.14 32.636 2.32 8.66 8.89 15.05 14.59 14.206 5.7-0.843 14.68-10.175 19.96-20.733s13.06-28.873 17.28-40.698c4.23-11.825 8.55-30.14 9.6-40.698 1.06-10.558 5.55-30.775 9.98-44.922 4.44-14.15 10.14-19.332 12.68-11.52 2.53 7.8129 5.64 22.844 6.91 33.405 1.26 10.558 5.58 30.43 9.6 44.153 4.01 13.727 7.81 33.941 8.44 44.922 0.64 10.982 5.3 19.448 10.37 18.813s12.33-6.334 16.13-12.672c3.8-6.334 7.25-23.787 7.68-38.781 0.42-14.994 3.53-23.115 6.91-18.047 3.38 5.067 8.04 16.297 10.36 24.957s6.3 20.752 8.83 26.878c2.54 6.122 4.78 17.873 5 26.109 0.21 8.236 2.8 21.194 5.75 28.795 2.96 7.601 9.87 11.23 15.36 8.062 5.49-3.169 9.64-10.079 9.21-15.358-0.42-5.279-0.93-16.339-1.15-24.575-0.21-8.236 2.73-19.987 6.53-26.109s8.64-14.934 10.75-19.582c2.11-4.644 4.88-3.262 6.15 3.073 1.26 6.334 5.75 21.714 9.98 34.17 4.22 12.46 10.1 27.146 13.05 32.636 2.96 5.491 10.22 13.267 16.13 17.279s13.86 2.63 17.66-3.072c3.8-5.703 12.79-16.068 19.97-23.037 7.18-6.97 14.95-19.582 17.27-28.03 2.33-8.448 7.16-21.751 10.76-29.564 3.58-7.813 8.25-21.636 10.36-30.716 2.11-9.079 6.61-10.29 9.99-2.689s7.52 23.843 9.21 36.091 6.01 27.799 9.6 34.557 10.16 17.817 14.59 24.575c4.43 6.757 14.11 7.274 21.5 1.151 7.39-6.126 13.61-19.6 13.82-29.95 0.21-10.346 1.77-24.69 3.46-31.867 1.69-7.181 4.97-18.757 7.29-25.727 2.33-6.969 6.47-7.66 9.22-1.534 2.74 6.126 10.69 19.084 17.66 28.799 6.97 9.714 13.71 27.855 14.97 40.315 1.27 12.46 5.25 27.662 8.83 33.788 3.59 6.122 13.44 6.817 21.89 1.534 8.45-5.279 18.3-15.993 21.88-23.805 3.59-7.813 7.22-20.771 8.07-28.795 0.84-8.025 5.51-23.921 10.36-35.323 4.86-11.405 10.56-25.399 12.68-31.102 2.11-5.702 7.98-1.727 13.05 8.831s9.56 26.454 9.98 35.322c0.43 8.868 4.05 22.52 8.06 30.333 4.02 7.813 11.62 18.352 16.9 23.423 5.28 5.067 12.19 15.261 15.36 22.654s16.82 17.932 30.33 23.42c13.52 5.49 29.93 5.836 36.48 0.769 6.54-5.068 19.33-8.523 28.41-7.679 9.08 0.843 17.72-4.685 19.2-12.286s4.93-21.424 7.68-30.715c2.74-9.292 7.24-21.213 9.98-26.492 2.75-5.279 8.8-2.17 13.44 6.91 4.65 9.079 8.45 23.077 8.45 31.102 0 8.024 3.97 18.393 8.83 23.036 4.86 4.648 13.15 6.892 18.43 4.993 5.28-1.902 14.78-9.673 21.11-17.278 6.34-7.601 12.04-21.599 12.68-31.098 0.63-9.503 4.78-26.091 9.21-36.86 4.44-10.77 10.14-25.11 12.67-31.868 2.54-6.757 8.41-5.892 13.06 1.921 4.65 7.812 11.38 21.636 14.97 30.715 3.59 9.08 12.23 20.485 19.2 25.341 6.97 4.855 15.44 2.611 18.82-4.994 3.38-7.6 6.66-20.733 7.29-29.181 0.64-8.448 4.78-19.158 9.22-23.806 4.43-4.647 11.17-1.534 14.97 6.91 3.8 8.448 9.5 21.926 12.67 29.951 3.17 8.024 9.39 6.817 13.83-2.686 4.43-9.503 12.21-29.72 17.27-44.922 5.07-15.205 9.74-35.419 10.37-44.922s4.61-21.079 8.83-25.722c4.22-4.6475 10.27-2.7453 13.44 4.224 3.17 6.9695 7.83 21.484 10.36 32.254 2.54 10.77 8.06 25.63 12.29 33.019 4.22 7.389 8.89 20.522 10.36 29.181 1.48 8.66 3.73 23.862 4.99 33.788 1.27 9.927 6.11 22.539 10.76 28.03 4.64 5.491 16.22 6.587 25.72 2.43 9.51-4.154 19.01-14.924 21.12-23.933 2.11-9.008 7.18-26.057 11.26-37.885 4.09-11.825 9.15-15.28 11.27-7.679 2.11 7.601 7.41 18.085 11.77 23.293 4.36 5.209 7.36 16.959 6.66 26.109-0.71 9.15 5.74 19.173 14.33 22.272 8.59 3.098 17.23-5.889 19.2-19.965 1.97-14.08 8.07-24.329 13.57-22.78 5.49 1.549 12.51-3.633 15.61-11.52 3.1-7.884 3.44-19.404 0.77-25.597-2.68-6.193 0.55-11.955 7.16-12.798 6.62-0.843 10.42-6.72 8.45-13.054-1.97-6.335 1.03-16.243 6.66-22.016s12.31-17.635 14.84-26.365c2.53-8.7265 8.52-23.011 13.31-31.741 4.79-8.7303 10.55-11.264 12.8-5.6319 2.25 5.6319 6.98 14.269 10.49 19.199 3.52 4.9261 4.79 13.798 2.82 19.708-1.97 5.915 0.74 13.631 6.02 17.149 5.27 3.518 8.38 13.136 6.91 21.372-1.48 8.237-0.96 23.442 1.15 33.788s5.57 14.496 7.68 9.217 7.29-13.229 11.52-17.661c4.22-4.436 10.44-13.593 13.82-20.351 3.38-6.757 8.39-7.103 11.13-0.765 2.75 6.334 6.72 15.837 8.83 21.116s6.78 15.127 10.37 21.885 6.88 23 7.3 36.091c0.42 13.092 4.57 24.151 9.21 24.575 4.65 0.423 13.63-9.945 19.97-23.037v-2.303-2.303c1.69-10.558 8.08-26.109 14.2-34.557 6.13-8.448 14.77-8.619 19.2-0.383 4.44 8.236 8.75 20.158 9.6 26.492 0.84 6.334 1.36 17.91 1.15 25.726-0.21 7.813 3.77 16.799 8.83 19.964 5.07 3.166 10.08 0.231 11.14-6.527 1.05-6.757 5.89-16.26 10.75-21.116 4.85-4.855 11.25-15.395 14.2-23.423 2.96-8.024 7.11-9.581 9.22-3.455 2.11 6.123 6.26 14.764 9.21 19.199 2.96 4.436 5.55 14.976 5.76 23.42 0.21 8.448 4.36 14.321 9.22 13.054 4.85-1.267 12.8-4.721 17.66-7.679 4.86-2.957 5.54-11.769 1.53-19.581-4.01-7.813-3.84-17.316 0.38-21.117 4.23-3.8 11.14-11.405 15.36-16.895 4.23-5.491 7.34-18.104 6.91-28.03-0.42-9.927 3.38-21.328 8.45-25.34s12.67-16.454 16.9-27.643c4.22-11.194 10.09-12.747 13.05-3.455 2.96 9.291 7.45 20.176 9.98 24.188 2.54 4.012 4.95 11.442 5.38 16.509 0.42 5.068 4.05 12.152 8.06 15.741s7.99 10.502 8.83 15.358c0.84 4.855 0.33 13.496-1.15 19.199-1.48 5.702-0.1 14.34 3.07 19.199 3.17 4.856 9.56 10.733 14.21 13.055 4.64 2.321 4.47 9.406-0.39 15.74-4.85 6.334-3.81 15.321 2.31 19.968 2.38 1.806 5.22 3.633 8.1 5.275v68.234h-2675v-0.011z" fill="#424242"/>
</svg>
