<?xml version="1.0" encoding="UTF-8"?>
<svg viewBox="0 0 5293 612" xmlns="http://www.w3.org/2000/svg">
<path d="m0 174.96c1.1982 2.788 2.1648 6.616 2.4588 10.205 0.4484 5.505 1.246 12.614 1.7715 15.796 0.52558 3.185 2.3817 9.291 4.1238 13.572 1.7421 4.28 2.5691 10.524 1.834 13.88-0.73506 3.356 0.8968 5.824 3.624 5.494 2.7271-0.334 5.6417 4.774 6.476 11.344 0.8343 6.571 3.5762 11.671 6.0975 11.334 2.5213-0.338 6.1306-6.266 8.0234-13.171s4.6861-13.895 6.2004-15.536 6.4393-11.151 10.942-21.137l0.0735-2.302 0.0735-2.301c0.2021-6.326 0.9703-14.248 1.7054-17.604 0.7351-3.352 2.4-7.272 3.7011-8.709 1.3011-1.436 2.9366-4.491 3.6386-6.789s1.9921-5.194 2.8669-6.434c0.8747-1.24 3.1204-1.856 4.9838-1.373 1.8671 0.482 4.4215 6.095 5.6785 12.469s2.503 15.573 2.7639 20.436c0.261 4.867 2.514 14.611 5.0022 21.661 2.492 7.049 4.2414 16.434 3.8886 20.855s0.0772 12.384 0.9519 17.689c0.8748 5.308 2.8558 12.8 4.4068 16.653 1.5474 3.85 7.5089 9.919 13.25 13.486l0.073-2.301 0.074-2.302c7.112-0.189 13.955-5.49 15.201-11.782 1.25-6.293 3.312-17.281 4.587-24.419 1.275-7.135 3.576-14.834 5.113-17.106 1.536-2.272 3.98-9.103 5.428-15.176s1.871-13.835 0.934-17.243 0.591-13.724 3.396-22.919l4.73-5.22c2.249-4.993 5.065-12.673 6.252-17.069 1.187-4.395 2.407-10.401 2.709-13.345 0.305-2.944 2.789-5.802 5.524-6.344 2.734-0.542 6.538 3.553 8.45 9.106 1.911 5.554 5.921 13.802 8.912 18.335 2.988 4.532 5.458 12.903 5.484 18.605s0.331 12.102 0.684 14.225c0.349 2.124 3.26 7.403 6.465 11.727 3.205 4.329 6.88 7.039 8.166 6.025 1.287-1.013 3.779-4.042 5.539-6.726 1.761-2.688 3.999-8.486 4.977-12.889 0.977-4.403 1.838-9.901 1.915-12.221s-0.405-8.727-1.063-14.236c-0.657-5.513-0.477-11.207 0.408-12.655 0.883-1.448 3.371-4.303 5.525-6.344 2.157-2.042 4.84-5.754 5.965-8.249 1.124-2.498 1.94-6.615 1.815-9.154-0.128-2.539 0.309-10.814 0.971-18.394l-0.688-2.324-0.683-2.328c1.051-6.7224 3.683-14.061 5.844-16.315 2.161-2.2496 5.182-5.78 6.711-7.8402 1.529-2.0603 3.569-7.0052 4.535-10.985 0.963-3.9795 3.683-3.3743 6.039 1.3513 2.356 4.722 4.822 13.093 5.484 18.606 0.658 5.5126 3.749 10.45 6.869 10.973 3.121 0.5234 6.392 5.1231 7.274 10.22 0.882 5.096 1.646 13.241 1.698 18.097 0.051 4.859 1.551 11.47 3.326 14.696 1.779 3.226 3.999 8.654 4.932 12.061 0.938 3.408 1.607 9.132 1.493 12.718s1.426 8.817 3.425 11.631c1.999 2.81 5.432 7.758 7.627 10.999 2.194 3.241 4.182 10.558 4.417 16.267 0.236 5.709 1.566 12.143 2.963 14.299 1.393 2.157 4.05 4.663 5.902 5.569 1.853 0.906 5.326-0.709 7.719-3.586 2.392-2.877 5.296-8.137 6.457-11.69 1.162-3.549 4.352-7.072 7.094-7.829 2.742-0.754 6.222 2.643 7.737 7.547 1.514 4.904 2.995 12.035 3.289 15.847 0.294 3.813 1.268 10.751 2.165 15.428 0.893 4.674 2.734 11.3 4.087 14.723s4.506 6.463 7.005 6.756c2.5 0.294 6.502-1.822 8.895-4.699s5.601-6.916 7.13-8.98c1.529-2.061 6.333-7.777 10.67-12.703l0.073-2.302 0.074-2.302c0.121-3.797 1.694-10.138 3.495-14.088 1.801-3.953 5.076-10.063 7.277-13.579 2.202-3.515 5.785-8.583 7.965-11.255 2.176-2.673 4.903-0.628 6.061 4.551 1.158 5.175 4.759 11.916 8.005 14.979 3.245 3.062 8.067 9.095 10.717 13.404 2.65 4.31 4.389 10.469 3.867 13.691-0.522 3.219-1.474 8.026-2.117 10.68s2.782 9.559 7.615 15.347c-2.925 12.187-3.219 14.251-3.58 16.771-0.36 2.521 2.658 4.463 6.704 4.314 4.047-0.148 11.273-1.522 16.062-3.055s10.228-7.573 12.088-13.424c1.86-5.85 3.562-12.588 3.775-14.975 0.217-2.387-0.019-5.731-0.522-7.439-0.504-1.704 2.76-3.901 7.251-4.881 0 0 0-1e-3 3.055-0.413 3.054-0.412 3.054-0.412 3.054-0.412 2.326-3.021 3.12-6.448 1.764-7.617-1.356-1.173-4.737-2.435-7.512-2.807-2.775-0.371-7.428-1.102-10.336-1.618-2.911-0.516-5.465-2.558-5.682-4.536-0.213-1.979 0.449-4.834 1.47-6.348 1.026-1.515 3.143-3.52 4.705-4.451 1.562-0.936 4.26-3.263 5.994-5.179 1.735-1.915 3.327-5.316 3.536-7.561 0.213-2.246 2.371-9.084 4.797-15.198l1.518 0.048c1.517 0.048 1.518 0.048 1.518 0.048 4.061-4.934 7.663-10.572 8.005-12.532 0.341-1.96 0.029-6.46-0.691-10.005-0.725-3.541-3.114-7.19-5.315-8.107-2.202-0.917-3.359-3.835-2.58-6.482 0.783-2.65 3.289-6.136 5.572-7.751 2.282-1.615 5.91-4.488 8.06-6.389 2.15-1.9 5.337-5.249 7.079-7.443s3.543-8.586 4.002-14.199l1.062-1.499c1.063-1.5 5.245-5.458 7.318-6.928l2.073-1.466c1.437-1.359 2.672-4.3136 2.746-6.5632 0.073-2.2496 2.183-0.5679 4.693 3.7383 2.51 4.3059 5.337 12.113 6.281 17.351 0.945 5.238 0.838 12.146-0.239 15.346-1.08 3.2-0.628 6.901 1.004 8.223 1.628 1.321 4.756 3.382 6.946 4.577 2.191 1.199 5.987 3.742 8.432 5.65 2.447 1.908 4.98 4.64 5.63 6.07 0.651 1.429-0.106 3.708-1.683 5.063s-4.598 3.1-6.711 3.875c-2.117 0.776-2.845 2.135-1.617 3.019 1.227 0.883 4.322 3.864 6.88 6.622s5.531 6.081 6.605 7.384c1.073 1.303 0.529 4.05-1.21 6.103-1.738 2.056-4.219 4.736-5.513 5.961-1.293 1.225-1.815 3.278-1.161 4.57 0.654 1.288 2.161 4.102 3.344 6.252 1.184 2.149 2.121 4.944 2.081 6.21-0.041 1.266 3.006 5.743 6.774 9.949 3.767 4.206 7.453 6.515 8.196 5.13 0.742-1.384 2.969-6.838 4.95-12.12 1.981-5.283 4.029-8.672 4.551-7.529 0.521 1.144 2.793 4.904 5.05 8.357 2.256 3.452 5.454 6.897 7.1 7.654 1.647 0.758 4.635 0.049 6.638-1.574l1.096-2.524c1.095-2.524 8.872-23.766 8.872-23.766l3.477 2.161c1.83 3.719 4.241 10.364 5.351 14.763 1.114 4.399 3.459 9.429 5.216 11.174 1.756 1.749 6.005 4.306 9.445 5.684 3.441 1.38 7.226 0.697 8.41-1.515 1.187-2.213 2.969-8.03 3.962-12.922 0.992-4.893 2.981-9.897 4.41-11.115 1.434-1.217 5.462 1.103 8.957 5.157 3.492 4.057 10.688 7.287 15.985 7.179l-0.048 1.533-0.052 1.533c2.323 5.706 4.183 11.757 4.128 13.442s1.966 6.244 4.487 10.127c2.522 3.883 5.918 8.256 7.542 9.715 1.625 1.463 5.833 1.83 9.351 0.82 3.517-1.009 6.924-4.124 7.571-6.916 0.647-2.795 2.488-6.878 4.094-9.076 1.603-2.198 4.628-7.629 6.723-12.065s5.028-10.557 6.52-13.605 3.374-1.258 4.179 3.976c0.808 5.234 1.657 14.244 1.889 20.024 0.231 5.78 1.841 15.966 3.58 22.637 1.735 6.671 3.01 13.163 2.83 14.422-0.18 1.262 3.587 1.154 8.369-0.238 4.781-1.392 9.111-1.247 9.618 0.316 0.507 1.566 2.749 2.791 4.98 2.721 2.231-0.067 4.551-4.83 5.157-10.58 0.603-5.75 2.047-11.693 3.212-13.201 1.165-1.51 4.131-5.212 6.601-8.23 2.466-3.014 5.91-7.279 7.652-9.473l0.052-1.533 0.048-1.534c2.308-2.457 5.737-6.258 7.619-8.452 1.882-2.19 4.403-2.569 5.601-0.839s2.654 6.151 3.231 9.83 1.415 9.581 1.86 13.111c0.444 3.534 2.525 9.704 4.627 13.717l-0.096 3.066c1.526 4.555 4.187 10.513 5.91 13.245 1.724 2.733 3.768 6.597 4.536 8.594 0.772 1.997 2.848 1.259 4.612-1.641 1.765-2.899 5.26-10.557 7.77-17.02 2.507-6.463 6.109-12.046 8.002-12.406 1.892-0.36 3.954 4.718 4.579 11.281s2.904 15.45 5.065 19.745c2.161 4.292 7.347 7.918 11.522 8.056 4.175 0.137 10.221-1.737 13.437-4.165 3.213-2.428 9.762-3.943 14.551-3.36 4.789 0.579 11.379-2.312 14.651-6.429 3.267-4.117 6.703-9.875 7.633-12.8s0.96-9.143 0.067-13.817c-0.894-4.674-0.622-13.13 0.602-18.791 1.228-5.661 4.091-14.894 6.362-20.521 2.272-5.628 5.083-13.309 6.252-17.069 1.165-3.761 2.448-11.668 2.845-17.563 0.401-5.898 1.191-14.511 1.757-19.136 0.566-4.626 1.308-11.686 1.646-15.684 0.338-4.002 2.632-11.527 5.098-16.724s6.678-13.869 9.362-19.27c0 0-1e-3 0 1.591-2.25 1.591-2.249 5.024-14.422 6.641-17.44 1.618-3.0181 1.618-3.018 1.618-3.018 3.182-7.9182 7.905-16.575 10.5-19.233 2.595-2.658 6.704-13.409 9.13-23.884 0 0 0 1e-4 0.125-3.8346s0.125-3.8348 0.125-3.8348c3.385-14.244 8.663-24.092 11.724-21.88 3.066 2.2124 6.315 12.855 7.222 23.654 0.908 10.799 2.514 24.668 3.569 30.826 1.055 6.1585 3.485 15.74 5.396 21.29 1.911 5.5535 4.388 24.289 5.502 41.64l-0.099 3.066-0.1 3.066c-0.154 17.73 1.956 37.319 4.679 43.53 2.723 6.21 7.483 17.77 10.573 25.681 3.09 7.915 5.54 16.801 5.45 19.756-0.1 2.952 2.52 1.485 5.81-3.263 3.28-4.748 7.87-14.444 10.19-21.545 2.32-7.102 4.22-18.268 4.22-24.813s1.82-15.294 4.05-19.444c2.22-4.151 6.26-12.826 8.98-19.282 2.72-6.455 6.7-7.881 8.84-3.163 2.15 4.715 4.25 19.122 4.67 32.015 0.43 12.892 2.5 38.699 4.62 57.35 2.12 18.65 6.61 27.778 9.99 20.287s7.31-18.071 8.74-23.513 3.56-18.673 4.74-29.401 3.59-21.705 5.35-24.393c1.75-2.688 4.72-9.845 6.59-15.907s6.25-4.016 9.74 4.544c3.48 8.56 7.81 23.038 9.6 32.177 1.8 9.136 4.51 20.625 6.02 25.533 1.52 4.904 5.52 7.974 8.9 6.82 3.39-1.155 6.3-6.761 6.49-12.455 0.18-5.695 1.79-13.241 3.58-16.772 1.78-3.53 4.83-7.751 6.76-9.373 1.93-1.626 4.36 2.598 5.4 9.392 1.04 6.789 2.84 14.451 4.01 17.02 1.18 2.573 5.65-3.671 9.95-13.876s9.32-27.83 11.14-39.171c1.83-11.341 4.74-16.601 6.46-11.686s3.61 15.509 4.18 23.554c0.58 8.04 1.55 20.339 2.16 27.325 0.61 6.987 1.9 14.805 2.87 17.37 0.96 2.565 3.94 5.427 6.64 6.359 2.68 0.932 6.02-1.723 7.4-5.899 1.39-4.176 2.7-12.944 2.91-19.482 0.21-6.537 2.81-18.197 5.78-25.915 2.96-7.714 6.92-18.988 8.78-25.046 1.87-6.062 4.97-6.652 6.89-1.31 1.92 5.341 5.34 15.992 7.6 23.665s4 17.407 3.87 21.624c-0.14 4.217 2.02 11.37 4.81 15.895 2.78 4.526 6.76 3.1 8.84-3.162 2.08-6.267 7.16-15.254 11.28-19.976 4.13-4.722 9.43-10.246 11.8-12.28 2.36-2.034 5.86 0.843 7.78 6.396 1.91 5.554 3.2 13.368 2.86 17.37s2.61 13.423 6.55 20.944c3.94 7.517 7.22 16.954 7.3 20.97 0.08 4.013 3.5 9.481 7.59 12.15l0.2-6.132c3.35-12.982 7.08-28.061 8.3-33.507 1.22-5.449 3.87-13.482 5.9-17.848 2.02-4.369 4.86-2.372 6.31 4.429 1.46 6.804 3.85 17.421 5.33 23.591 1.47 6.17 3.78 14.192 5.12 17.826 1.35 3.634 4.85 6.511 7.78 6.396s6.48-4.143 7.89-8.954c1.41-4.807 2.86-12.707 3.23-17.551 0.36-4.845 2.66-12.544 5.11-17.106 2.45-4.566 5.53-9.819 6.84-11.675s6.12 2.966 10.67 10.713c4.56 7.752 7.51 17.177 6.55 20.945s-2.29 13.397-2.97 21.401l-0.2 6.132c5.59 8.208 12.61 13.446 15.59 11.646 2.98-1.801 10.76-14.849 17.27-28.993 6.52-14.143 11.25-28.153 10.51-31.134s0.56-11.746 2.91-19.482c2.33-7.736 7.13-18.461 10.64-23.832 3.52-5.376 8.59-14.018 11.26-19.207 2.68-5.19 7.29-15.406 10.24-22.697 2.95-7.2943 7.11-8.8833 9.23-3.534 2.13 5.346 5.09 19.782 6.57 32.077 1.49 12.295 2.55 27.185 2.36 33.091l2.2 2.376c2.21 2.376 2.21 2.376 2.21 2.376 2.92 0.096 8.8-12.496 13.06-27.979l1.66-4.551c1.67-4.552 1.67-4.552 1.67-4.552 3.75-12.543 7.74-25.024 8.87-27.73s3.84 3.601 6.01 14.017c2.17 10.417 5.53 23.135 7.45 28.269 1.93 5.13 2.81 15.005 1.96 21.947-0.85 6.938 1.03 12.354 4.17 12.035 3.14-0.32 7.71-4.143 10.15-8.498 2.44-4.354 5.32-3.396 6.4 2.131 1.07 5.524 2.56 12.31 3.31 15.079 0.75 2.77 3.87 6.846 6.93 9.058s6.88 5.965 8.47 8.338c1.6 2.372 6.64 10.487 11.2 18.026 4.57 7.54 12.16 10.725 16.88 7.079 4.71-3.645 11.41-14.997 14.87-25.232 3.47-10.231 6.98-23.936 7.82-30.451 0.84-6.519 4.43-17.11 7.98-23.539 3.55-6.43 9.08-8.148 12.28-3.82l2.28 0.074 2.28 0.075c7.22-3.564 14.57-8.68 16.33-11.364 1.76-2.687 4.39-9.856 5.83-15.932 1.45-6.077 3.61-19.824 4.79-30.552 1.18-10.728 5.06-25.11 8.63-31.962 3.56-6.8491 9.59-2.6802 13.38 9.2694 3.8 11.946 10.98 28.076 15.95 35.838 4.98 7.762 8.68 20.324 8.23 27.908-0.46 7.584-1.18 19.308-1.6 26.053-0.43 6.745 3.43 14.47 8.57 17.173 5.14 2.702 11.18 0.998 13.42-3.783 2.25-4.782 7.52-14.456 11.71-21.498 4.2-7.042 9.1-21.219 10.9-31.502 1.79-10.286 5.33-19.325 7.87-20.086 2.53-0.761 8.4 8.241 13.04 20.005s8.74 27.793 9.11 35.615c0.38 7.825-0.81 18.32-2.65 23.327-1.83 5.008 1.15 8.041 6.63 6.742 5.47-1.3 11.48-7.492 13.36-13.765 1.87-6.274 4.11-17.255 4.96-24.404 0.86-7.15 2.92-17.793 4.57-23.651s4.08-6.986 5.4-2.509 6.72 17.265 12.01 28.417c5.28 11.151 10.08 26.683 10.67 34.512 0.58 7.829 3.7 17.262 6.93 20.956 3.22 3.693 8.94 1.291 12.71-5.342 3.77-6.634 8.08-18.409 9.58-26.171 1.51-7.763 3.75-18.918 4.98-24.787 1.24-5.873 5.16-16.107 8.72-22.745 3.55-6.637 8.59-3.708 11.19 6.512 2.6 10.219 7.45 24.025 10.79 30.677 3.34 6.656 7.75 18.547 9.79 26.424 2.05 7.877 6.36 17.347 9.59 21.045 3.23 3.693 7.71 2.631 9.96-2.361 2.25-4.993 5.34-15.948 6.86-24.342 1.53-8.397 5.82-19.481 9.54-24.637 3.72-5.157 8.59-18.298 10.82-29.204 2.23-10.907 6.97-14.552 10.52-8.101 3.55 6.449 9.69 17.708 13.64 25.013 3.94 7.31 8.89 23.71 10.99 36.447l2.23 1.607 2.22 1.608c5.46 12.425 12.82 17.503 16.36 11.285s9.42-18.635 13.05-27.593 7.84-22.641 9.34-30.403c1.51-7.762 4.41-18.205 6.45-23.205s4.22-14.259 4.84-20.57c0.62-6.3145 3.36-6.3962 6.09-0.1819 2.73 6.2105 6.53 21.018 8.44 32.906 1.92 11.886 5.58 25.48 8.15 30.21 2.57 4.729 6.48 15.914 8.7 24.853s7.23 18.086 11.13 20.328c3.9 2.239 8.78-0.538 10.84-6.17 2.06-5.631 4.98-16.419 6.47-23.969 1.5-7.551 5.61-18.302 9.13-23.885 3.53-5.583 7.3-16.516 8.39-24.293s4.13-17.521 6.77-21.657c2.65-4.135 6.29-0.56 8.11 7.945 1.82 8.504 4.14 21.363 5.16 28.576s2.04 18.301 2.25 24.642c0.22 6.34 2.58 17.818 5.26 25.506s5.57 19.011 6.42 25.162c0.84 6.151 4.42 6.441 7.96 0.646 3.53-5.795 7.8-16.367 9.49-23.487 1.7-7.124 5.26-22.036 7.91-33.139 2.66-11.104 7.73-25.273 11.28-31.491 3.54-6.218 6.96-16.987 7.61-23.933 0.64-6.9454 3.3-20.506 5.91-30.132s6.48-7.9441 8.62 3.7383c2.13 11.682 5.36 28.373 7.17 37.085 1.81 8.717 4.41 23.484 5.78 32.82s4.88 11.868 7.8 5.632c2.92-6.237 6.48-15.796 7.91-21.238s4.51-16.222 6.85-23.959c2.34-7.736 6.94-17.948 10.23-22.696s6.13-2.7545 6.32 4.4286c0.19 7.1832 2.34 19.864 4.79 28.18 2.46 8.315 5.54 18.78 6.86 23.257s4.77 8.735 7.68 9.466c2.9 0.728 6.69-5.538 8.43-13.928 1.73-8.39 5.03-20.543 7.33-27.014 2.29-6.47 4.51-16.76 4.91-22.871 0.41-6.1103 2.19-13.479 3.95-16.378 1.77-2.8992 4.44-0.9095 5.94 4.4176 1.5 5.327 6.1 16.705 10.21 25.288 4.11 8.579 8.86 20.484 10.55 26.449 1.69 5.966 2.63 19.3 2.09 29.628-0.54 10.327 2.97 23.398 7.8 29.044 4.84 5.65 14.55 6.831 21.58 2.628 7.04-4.202 11.61-13.378 10.16-20.394-1.45-7.017-0.36-19.419 2.41-27.56 2.77-8.145 7.92-19.374 11.44-24.961 3.53-5.587 10.53-15.892 15.56-22.904s14.85-19.82 21.82-28.458 15.91-20.955 19.88-27.37 8.07-16.991 9.12-23.502c1.05-6.5112 3.66-13.16 5.8-14.778s4.8 6.0694 5.91 17.084c1.11 11.014 0.3 30.682-1.79 43.704s-0.98 31.714 2.46 41.54c3.45 9.826 6.58 24.092 6.97 31.705 0.38 7.614 2.55 14.423 4.83 15.132 2.27 0.709 5.25-6.623 6.6-16.29 1.36-9.666 4.54-23.383 7.06-30.477 2.53-7.094 8.53-18.127 13.33-24.512 4.81-6.3887 11.29-16.538 14.41-22.559s8.06-15.877 10.97-21.906c2.91-6.0249 7.28-3.4672 9.7 5.6945 2.42 9.1581 7.23 24.515 10.68 34.13 3.46 9.6146 6.54 30.618 6.86 46.674l-0.07 2.301-0.08 2.302c-0.7 8.846 1.98 21.367 5.95 27.834 3.97 6.463 10.02 9.774 13.45 7.35 3.42-2.42 9.42-13.627 13.34-24.898 3.91-11.27 9.64-24.385 12.72-29.141 3.08-4.755 8.61-11.827 12.29-15.717 1.98-2.0974 4.59-5.067 7.13-8.0665l32.12 529.9h-2678.6v-437.04z" fill="#686868"/>
<path d="m5293 174.96c-1.2 2.788-2.16 6.616-2.46 10.205-0.45 5.505-1.24 12.614-1.77 15.796-0.53 3.185-2.38 9.291-4.12 13.572-1.75 4.28-2.57 10.524-1.84 13.88 0.74 3.356-0.9 5.824-3.62 5.494-2.73-0.334-5.64 4.774-6.48 11.344-0.83 6.571-3.57 11.671-6.1 11.334-2.52-0.338-6.13-6.266-8.02-13.171s-4.69-13.895-6.2-15.536-6.44-11.151-10.94-21.137l-0.07-2.302-0.08-2.301c-0.2-6.326-0.97-14.248-1.7-17.604-0.74-3.352-2.4-7.272-3.7-8.709-1.31-1.436-2.94-4.491-3.64-6.789-0.71-2.298-2-5.194-2.87-6.434s-3.12-1.856-4.98-1.373c-1.87 0.482-4.43 6.095-5.68 12.469-1.26 6.374-2.51 15.573-2.77 20.436-0.26 4.867-2.51 14.611-5 21.661-2.49 7.049-4.24 16.434-3.89 20.855 0.36 4.421-0.07 12.384-0.95 17.689-0.87 5.308-2.86 12.8-4.41 16.653-1.54 3.85-7.5 9.919-13.25 13.486l-0.07-2.301-0.07-2.302c-7.11-0.189-13.96-5.49-15.2-11.782-1.25-6.293-3.32-17.281-4.59-24.419-1.28-7.135-3.58-14.834-5.11-17.106-1.54-2.272-3.98-9.103-5.43-15.176s-1.87-13.835-0.94-17.243c0.94-3.408-0.59-13.724-3.39-22.919l-4.73-5.22c-2.25-4.993-5.07-12.673-6.25-17.069-1.19-4.395-2.41-10.401-2.71-13.345-0.31-2.944-2.79-5.802-5.53-6.344-2.73-0.542-6.54 3.553-8.45 9.106-1.91 5.554-5.92 13.802-8.91 18.335-2.99 4.532-5.46 12.903-5.48 18.605-0.03 5.702-0.33 12.102-0.69 14.225-0.35 2.124-3.26 7.403-6.46 11.727-3.21 4.329-6.88 7.039-8.17 6.025-1.28-1.013-3.78-4.042-5.54-6.726-1.76-2.688-4-8.486-4.97-12.889-0.98-4.403-1.84-9.901-1.92-12.221s0.41-8.727 1.06-14.236c0.66-5.513 0.48-11.207-0.4-12.655-0.89-1.448-3.37-4.303-5.53-6.344-2.16-2.042-4.84-5.754-5.96-8.249-1.13-2.498-1.94-6.615-1.82-9.154 0.13-2.539-0.31-10.814-0.97-18.394l0.69-2.324 0.68-2.328c-1.05-6.7224-3.68-14.061-5.84-16.315-2.16-2.2496-5.19-5.78-6.71-7.8402-1.53-2.0603-3.57-7.0052-4.54-10.985-0.96-3.9795-3.68-3.3743-6.04 1.3513-2.35 4.722-4.82 13.093-5.48 18.606-0.66 5.5126-3.75 10.45-6.87 10.973-3.12 0.5234-6.39 5.1231-7.28 10.22-0.88 5.096-1.64 13.241-1.69 18.097-0.05 4.859-1.55 11.47-3.33 14.696s-4 8.654-4.93 12.061c-0.94 3.408-1.61 9.132-1.49 12.718 0.11 3.586-1.43 8.817-3.43 11.631-2 2.81-5.43 7.758-7.63 10.999-2.19 3.241-4.18 10.558-4.41 16.267-0.24 5.709-1.57 12.143-2.97 14.299-1.39 2.157-4.05 4.663-5.9 5.569s-5.32-0.709-7.72-3.586c-2.39-2.877-5.29-8.137-6.45-11.69-1.17-3.549-4.36-7.072-7.1-7.829-2.74-0.754-6.22 2.643-7.73 7.547-1.52 4.904-3 12.035-3.29 15.847-0.3 3.813-1.27 10.751-2.17 15.428-0.89 4.674-2.73 11.3-4.09 14.723-1.35 3.423-4.5 6.463-7 6.756-2.5 0.294-6.5-1.822-8.9-4.699-2.39-2.877-5.6-6.916-7.13-8.98-1.53-2.061-6.33-7.777-10.67-12.703l-0.14-4.604c-0.12-3.797-1.7-10.138-3.5-14.088-1.8-3.953-5.07-10.063-7.28-13.579-2.2-3.515-5.78-8.583-7.96-11.255-2.18-2.673-4.9-0.628-6.06 4.551-1.16 5.175-4.76 11.916-8.01 14.979-3.24 3.062-8.06 9.095-10.71 13.404-2.65 4.31-4.39 10.469-3.87 13.691 0.52 3.219 1.47 8.026 2.12 10.68 0.64 2.654-2.78 9.559-7.62 15.347 2.93 12.187 3.22 14.251 3.58 16.771 0.36 2.521-2.66 4.463-6.7 4.314-4.05-0.148-11.27-1.522-16.06-3.055s-10.23-7.573-12.09-13.424c-1.86-5.85-3.56-12.588-3.78-14.975-0.21-2.387 0.02-5.731 0.53-7.439 0.5-1.704-2.77-3.901-7.26-4.881 0 0 0-1e-3 -3.05-0.413-3.06-0.412-3.05-0.412-3.05-0.412-2.33-3.021-3.13-6.448-1.77-7.617 1.36-1.173 4.74-2.435 7.51-2.807 2.78-0.371 7.43-1.102 10.34-1.618s5.46-2.558 5.68-4.536c0.21-1.979-0.45-4.834-1.47-6.348-1.02-1.515-3.14-3.52-4.7-4.451-1.57-0.936-4.26-3.263-6-5.179-1.73-1.915-3.32-5.316-3.53-7.561-0.22-2.246-2.37-9.084-4.8-15.198l-3.04 0.096c-4.06-4.934-7.66-10.572-8-12.532s-0.03-6.46 0.69-10.005c0.72-3.541 3.11-7.19 5.31-8.107 2.21-0.917 3.36-3.835 2.58-6.482-0.78-2.65-3.29-6.136-5.57-7.751s-5.91-4.488-8.06-6.389c-2.15-1.9-5.33-5.249-7.08-7.443-1.74-2.194-3.54-8.586-4-14.199l-1.06-1.499c-1.06-1.5-5.25-5.458-7.32-6.928l-2.07-1.466c-1.44-1.359-2.67-4.3136-2.75-6.5632-0.07-2.2496-2.18-0.5679-4.69 3.7383-2.51 4.3059-5.34 12.113-6.28 17.351-0.95 5.238-0.84 12.146 0.24 15.346s0.63 6.901-1.01 8.223c-1.63 1.321-4.75 3.382-6.94 4.577-2.19 1.199-5.99 3.742-8.43 5.65-2.45 1.908-4.98 4.64-5.64 6.07-0.65 1.429 0.11 3.708 1.69 5.063 1.57 1.355 4.6 3.1 6.71 3.875 2.12 0.776 2.84 2.135 1.62 3.019-1.23 0.883-4.33 3.864-6.88 6.622-2.56 2.758-5.54 6.081-6.61 7.384s-0.53 4.05 1.21 6.103c1.74 2.056 4.22 4.736 5.51 5.961 1.3 1.225 1.82 3.278 1.17 4.57-0.66 1.288-2.17 4.102-3.35 6.252-1.18 2.149-2.12 4.944-2.08 6.21s-3.01 5.743-6.77 9.949c-3.77 4.206-7.46 6.515-8.2 5.13-0.74-1.384-2.97-6.838-4.95-12.12-1.98-5.283-4.03-8.672-4.55-7.529-0.52 1.144-2.79 4.904-5.05 8.357-2.26 3.452-5.45 6.897-7.1 7.654-1.65 0.758-4.64 0.049-6.64-1.574l-1.09-2.524c-1.1-2.524-8.88-23.766-8.88-23.766l-3.47 2.161c-1.83 3.719-4.25 10.364-5.36 14.763s-3.45 9.429-5.21 11.174c-1.76 1.749-6.01 4.306-9.45 5.684-3.44 1.38-7.22 0.697-8.41-1.515-1.18-2.213-2.97-8.03-3.96-12.922-0.99-4.893-2.98-9.897-4.41-11.115-1.43-1.217-5.46 1.103-8.96 5.157-3.49 4.057-10.68 7.287-15.98 7.179l0.1 3.066c-2.32 5.706-4.18 11.757-4.13 13.442 0.06 1.685-1.96 6.244-4.49 10.127-2.52 3.883-5.91 8.256-7.54 9.715-1.62 1.463-5.83 1.83-9.35 0.82-3.52-1.009-6.92-4.124-7.57-6.916-0.65-2.795-2.49-6.878-4.09-9.076-1.61-2.198-4.63-7.629-6.73-12.065-2.09-4.436-5.02-10.557-6.52-13.605-1.49-3.048-3.37-1.258-4.17 3.976-0.81 5.234-1.66 14.244-1.89 20.024-0.24 5.78-1.85 15.966-3.58 22.637-1.74 6.671-3.01 13.163-2.83 14.422 0.18 1.262-3.59 1.154-8.37-0.238s-9.11-1.247-9.62 0.316c-0.51 1.566-2.75 2.791-4.98 2.721-2.23-0.067-4.55-4.83-5.16-10.58-0.6-5.75-2.05-11.693-3.21-13.201-1.17-1.51-4.13-5.212-6.6-8.23-2.47-3.014-5.91-7.279-7.65-9.473l-0.06-1.533-0.04-1.534c-2.31-2.457-5.74-6.258-7.62-8.452-1.88-2.19-4.41-2.569-5.6-0.839-1.2 1.73-2.66 6.151-3.23 9.83-0.58 3.679-1.42 9.581-1.86 13.111-0.45 3.534-2.53 9.704-4.63 13.717l0.05 1.533 0.04 1.533c-1.52 4.555-4.18 10.513-5.91 13.245-1.72 2.733-3.76 6.597-4.53 8.594s-2.85 1.259-4.61-1.641c-1.77-2.899-5.26-10.557-7.77-17.02s-6.11-12.046-8-12.406c-1.9-0.36-3.96 4.718-4.58 11.281-0.63 6.563-2.91 15.45-5.07 19.745-2.16 4.292-7.35 7.918-11.52 8.056-4.18 0.137-10.22-1.737-13.44-4.165-3.21-2.428-9.76-3.943-14.55-3.36-4.79 0.579-11.38-2.312-14.65-6.429s-6.7-9.875-7.63-12.8-0.96-9.143-0.07-13.817 0.62-13.13-0.6-18.791c-1.23-5.661-4.09-14.894-6.36-20.521-2.28-5.628-5.09-13.309-6.26-17.069-1.16-3.761-2.44-11.668-2.84-17.563-0.4-5.898-1.19-14.511-1.76-19.136-0.56-4.626-1.31-11.686-1.64-15.684-0.34-4.002-2.64-11.527-5.1-16.724-2.47-5.197-6.68-13.869-9.36-19.27l-1.6-2.25c-1.59-2.249-5.02-14.422-6.64-17.44-1.61-3.0181-1.61-3.018-1.61-3.018-3.19-7.9182-7.91-16.575-10.5-19.233-2.6-2.658-6.71-13.409-9.13-23.884 0 0 0 1e-4 -0.13-3.8346-0.12-3.8347-0.12-3.8348-0.12-3.8348-3.39-14.244-8.67-24.092-11.73-21.88-3.06 2.2124-6.31 12.855-7.22 23.654-0.91 10.799-2.51 24.668-3.57 30.826-1.05 6.1585-3.48 15.74-5.39 21.29-1.92 5.5535-4.39 24.289-5.51 41.64l0.2 6.132c0.16 17.73-1.95 37.319-4.68 43.53-2.72 6.21-7.48 17.77-10.57 25.681-3.09 7.915-5.54 16.801-5.45 19.756 0.1 2.952-2.52 1.485-5.81-3.263s-7.87-14.444-10.19-21.545c-2.32-7.102-4.22-18.268-4.22-24.813s-1.82-15.294-4.05-19.444c-2.22-4.151-6.26-12.826-8.98-19.282-2.72-6.455-6.7-7.881-8.84-3.163-2.15 4.715-4.25 19.122-4.67 32.015-0.43 12.892-2.5 38.699-4.62 57.35-2.12 18.65-6.61 27.778-9.99 20.287s-7.31-18.071-8.74-23.513-3.56-18.673-4.74-29.401-3.59-21.705-5.35-24.393c-1.75-2.688-4.72-9.845-6.59-15.907s-6.25-4.016-9.74 4.544c-3.48 8.56-7.81 23.038-9.6 32.177-1.8 9.136-4.51 20.625-6.02 25.533-1.52 4.904-5.52 7.974-8.91 6.82-3.38-1.155-6.29-6.761-6.48-12.455-0.18-5.695-1.79-13.241-3.58-16.772-1.78-3.53-4.83-7.751-6.76-9.373-1.93-1.626-4.36 2.598-5.4 9.392-1.04 6.789-2.84 14.451-4.01 17.02-1.18 2.573-5.65-3.671-9.95-13.876s-9.32-27.83-11.14-39.171c-1.83-11.341-4.74-16.601-6.46-11.686s-3.61 15.509-4.18 23.554c-0.58 8.04-1.55 20.339-2.16 27.325-0.61 6.987-1.9 14.805-2.87 17.37-0.96 2.565-3.94 5.427-6.64 6.359-2.68 0.932-6.02-1.723-7.41-5.899-1.38-4.176-2.69-12.944-2.9-19.482-0.21-6.537-2.81-18.197-5.78-25.915-2.96-7.714-6.92-18.988-8.78-25.046-1.87-6.062-4.97-6.652-6.89-1.31-1.92 5.341-5.34 15.992-7.6 23.665s-4 17.407-3.87 21.624c0.14 4.217-2.02 11.37-4.81 15.895-2.78 4.526-6.76 3.1-8.84-3.162-2.08-6.267-7.16-15.254-11.28-19.976-4.13-4.722-9.43-10.246-11.8-12.28-2.36-2.034-5.86 0.843-7.78 6.396-1.91 5.554-3.2 13.368-2.86 17.37s-2.61 13.423-6.55 20.944c-3.94 7.517-7.22 16.954-7.3 20.97-0.08 4.013-3.5 9.481-7.59 12.15l-0.2-6.132c-3.35-12.982-7.08-28.061-8.3-33.507-1.22-5.449-3.88-13.482-5.9-17.848-2.02-4.369-4.86-2.372-6.31 4.429-1.46 6.804-3.85 17.421-5.33 23.591-1.47 6.17-3.78 14.192-5.12 17.826-1.35 3.634-4.85 6.511-7.78 6.396s-6.48-4.143-7.89-8.954c-1.41-4.807-2.86-12.707-3.23-17.551-0.36-4.845-2.66-12.544-5.11-17.106-2.45-4.566-5.53-9.819-6.84-11.675s-6.12 2.966-10.67 10.713c-4.56 7.752-7.51 17.177-6.55 20.945 0.95 3.768 2.29 13.397 2.97 21.401l0.2 6.132c-5.59 8.208-12.61 13.446-15.59 11.646-2.98-1.801-10.76-14.849-17.27-28.993-6.52-14.143-11.25-28.153-10.51-31.134s-0.56-11.746-2.91-19.482c-2.33-7.736-7.13-18.461-10.64-23.832-3.52-5.376-8.59-14.018-11.26-19.207-2.68-5.19-7.29-15.406-10.24-22.697-2.95-7.2943-7.11-8.8833-9.23-3.534-2.13 5.346-5.09 19.782-6.57 32.077-1.49 12.295-2.55 27.185-2.36 33.091l-2.2 2.376c-2.21 2.376-2.21 2.376-2.21 2.376-2.92 0.096-8.8-12.496-13.06-27.979l-1.67-4.551-1.66-4.552c-3.75-12.543-7.74-25.024-8.87-27.73s-3.84 3.601-6.01 14.017c-2.17 10.417-5.53 23.135-7.45 28.269-1.93 5.13-2.81 15.005-1.96 21.947 0.85 6.938-1.03 12.354-4.17 12.035-3.14-0.32-7.71-4.143-10.15-8.498-2.44-4.354-5.32-3.396-6.4 2.131-1.07 5.524-2.56 12.31-3.31 15.079-0.75 2.77-3.87 6.846-6.93 9.058s-6.88 5.965-8.47 8.338c-1.6 2.372-6.64 10.487-11.2 18.026-4.57 7.54-12.16 10.725-16.88 7.079-4.71-3.645-11.41-14.997-14.87-25.232-3.47-10.231-6.98-23.936-7.82-30.451-0.84-6.519-4.43-17.11-7.98-23.539-3.55-6.43-9.08-8.148-12.28-3.82l-2.28 0.074-2.28 0.075c-7.22-3.564-14.57-8.68-16.33-11.364-1.76-2.687-4.39-9.856-5.84-15.932-1.44-6.077-3.6-19.824-4.78-30.552-1.18-10.728-5.06-25.11-8.63-31.962-3.56-6.8491-9.59-2.6802-13.38 9.2694-3.8 11.946-10.98 28.076-15.95 35.838-4.98 7.762-8.68 20.324-8.23 27.908 0.46 7.584 1.18 19.308 1.6 26.053 0.43 6.745-3.43 14.47-8.57 17.173-5.14 2.702-11.18 0.998-13.42-3.783-2.25-4.782-7.52-14.456-11.71-21.498-4.2-7.042-9.1-21.219-10.9-31.502-1.79-10.286-5.33-19.325-7.87-20.086-2.53-0.761-8.4 8.241-13.04 20.005s-8.74 27.793-9.11 35.615c-0.38 7.825 0.81 18.32 2.65 23.327 1.83 5.008-1.15 8.041-6.63 6.742-5.47-1.3-11.48-7.492-13.36-13.765-1.87-6.274-4.11-17.255-4.96-24.404-0.86-7.15-2.92-17.793-4.57-23.651s-4.08-6.986-5.4-2.509-6.72 17.265-12.01 28.417c-5.28 11.151-10.08 26.683-10.67 34.512-0.58 7.829-3.7 17.262-6.93 20.956-3.22 3.693-8.94 1.291-12.71-5.342-3.77-6.634-8.08-18.409-9.58-26.171-1.51-7.763-3.75-18.918-4.98-24.787-1.24-5.873-5.16-16.107-8.72-22.745-3.55-6.637-8.59-3.708-11.19 6.512-2.6 10.219-7.45 24.025-10.79 30.677-3.34 6.656-7.75 18.547-9.79 26.424-2.05 7.877-6.36 17.347-9.59 21.045-3.23 3.693-7.71 2.631-9.96-2.361-2.25-4.993-5.34-15.948-6.86-24.342-1.53-8.397-5.82-19.481-9.54-24.637-3.72-5.157-8.59-18.298-10.82-29.204-2.23-10.907-6.97-14.552-10.52-8.101-3.55 6.449-9.69 17.708-13.64 25.013-3.94 7.31-8.89 23.71-10.99 36.447l-2.23 1.607-2.22 1.608c-5.46 12.425-12.82 17.503-16.36 11.285s-9.42-18.635-13.05-27.593-7.84-22.641-9.34-30.403c-1.51-7.762-4.41-18.205-6.45-23.205s-4.22-14.259-4.84-20.57c-0.62-6.3145-3.36-6.3962-6.09-0.1819-2.73 6.2105-6.53 21.018-8.44 32.906-1.92 11.886-5.59 25.48-8.15 30.21-2.57 4.729-6.48 15.914-8.7 24.853s-7.23 18.086-11.13 20.328c-3.9 2.239-8.78-0.538-10.84-6.17-2.06-5.631-4.98-16.419-6.47-23.969-1.5-7.551-5.61-18.302-9.13-23.885-3.53-5.583-7.3-16.516-8.39-24.293s-4.13-17.521-6.78-21.657c-2.64-4.135-6.28-0.56-8.1 7.945-1.82 8.504-4.14 21.363-5.16 28.576s-2.04 18.301-2.25 24.642c-0.22 6.34-2.58 17.818-5.26 25.506s-5.57 19.011-6.42 25.162c-0.84 6.151-4.42 6.441-7.96 0.646-3.53-5.795-7.8-16.367-9.49-23.487-1.7-7.124-5.26-22.036-7.91-33.139-2.66-11.104-7.73-25.273-11.28-31.491-3.54-6.218-6.96-16.987-7.61-23.933-0.64-6.9454-3.3-20.506-5.91-30.132s-6.48-7.9441-8.62 3.7383c-2.13 11.682-5.36 28.373-7.17 37.085-1.81 8.717-4.41 23.484-5.78 32.82s-4.88 11.868-7.8 5.632c-2.92-6.237-6.48-15.796-7.91-21.238s-4.51-16.222-6.85-23.959c-2.34-7.736-6.94-17.948-10.23-22.696s-6.13-2.7545-6.32 4.4286c-0.19 7.1832-2.34 19.864-4.79 28.18-2.46 8.315-5.54 18.78-6.86 23.257s-4.77 8.735-7.68 9.466c-2.9 0.728-6.69-5.538-8.43-13.928-1.73-8.39-5.03-20.543-7.33-27.014-2.29-6.47-4.51-16.76-4.91-22.871-0.41-6.1103-2.19-13.479-3.95-16.378-1.77-2.8992-4.44-0.9095-5.94 4.4176-1.5 5.327-6.1 16.705-10.21 25.288-4.11 8.579-8.86 20.484-10.55 26.449-1.69 5.966-2.63 19.3-2.09 29.628 0.54 10.327-2.97 23.398-7.8 29.044-4.84 5.65-14.55 6.831-21.58 2.628-7.04-4.202-11.61-13.378-10.16-20.394 1.45-7.017 0.36-19.419-2.41-27.56-2.77-8.145-7.92-19.374-11.44-24.961-3.53-5.587-10.53-15.892-15.56-22.904s-14.85-19.82-21.82-28.458-15.91-20.955-19.88-27.37-8.07-16.991-9.12-23.502c-1.05-6.5112-3.66-13.16-5.8-14.778s-4.8 6.0694-5.91 17.084c-1.11 11.014-0.3 30.682 1.79 43.704s0.98 31.714-2.46 41.54c-3.45 9.826-6.58 24.092-6.97 31.705-0.38 7.614-2.55 14.423-4.83 15.132-2.27 0.709-5.25-6.623-6.6-16.29-1.36-9.666-4.54-23.383-7.06-30.477-2.53-7.094-8.53-18.127-13.33-24.512-4.81-6.3887-11.29-16.538-14.41-22.559s-8.06-15.877-10.97-21.906c-2.91-6.0249-7.28-3.4672-9.7 5.6945-2.42 9.1581-7.23 24.515-10.68 34.13-3.46 9.6146-6.54 30.618-6.86 46.674l0.07 2.301 0.08 2.302c0.7 8.846-1.98 21.367-5.95 27.834-3.97 6.463-10.02 9.774-13.45 7.35-3.42-2.42-9.42-13.627-13.34-24.898-3.91-11.27-9.64-24.385-12.72-29.141-3.08-4.755-8.61-11.827-12.29-15.717-1.98-2.0974-4.59-5.067-7.13-8.0665l-30.18 529.9h2676.7v-437.04z" fill="#686868"/>
</svg>
