<?xml version="1.0" encoding="UTF-8"?>
<svg viewBox="0 0 5293 479" xmlns="http://www.w3.org/2000/svg">
<path d="m2666.9 150.97v327.91h-2553.6c-0.243 0.159-0.472 0.161-0.686 0h0.686c10.52-6.862 47.773-306.1 53.699-309.91 6.064-3.896 12.538-14.856 14.386-24.352 1.852-9.5 5.774-24.614 8.722-33.591 2.949-8.977 8.312-23.232 11.919-31.682 3.608-8.4448 9.652-5.6819 13.43 6.1454 3.782 11.827 9.378 12.02 12.438 0.4269 3.059-11.593 8.581-27.473 12.27-35.294s10.097-19.295 14.241-25.5c4.145-6.2051 9.619-6.3061 12.164-0.2249 2.544 6.0811 6.481 16.775 8.748 23.765s3.711 18.317 3.211 25.178c-0.496 6.8614 1.933 21.121 5.408 31.691 3.474 10.575 6.97 24.522 7.778 30.994 0.807 6.471 4.048 8.628 7.2 4.782s5.27-15.976 4.7-26.964c-0.567-10.983 3.407-26.693 8.837-34.903s9.671-21.709 9.426-29.997c-0.244-8.2842 3.348-26.05 7.989-39.475 4.641-13.424 12.734-13.278 17.99 0.32574 5.255 13.604 9.63 30.925 9.718 38.493 0.089 7.5728 1.812 21.993 3.823 32.049 2.015 10.056 5.318 27.546 7.344 38.864 2.026 11.323 3.589 32.384 3.471 46.805-0.119 14.42 5 24.356 11.374 22.075s10.323-10.317 8.778-17.858c-1.544-7.54 0.233-18.046 3.952-23.342s7.008-18.923 7.308-30.287c0.3-11.363-0.419-31.553-1.597-44.872-1.177-13.319 0.845-23.384 4.493-22.37s8.856 8.587 11.574 16.83c2.715 8.2428 5.493 21.466 6.171 29.383 0.674 7.9218 4.182 12.575 7.793 10.345 3.611-2.231 8.148-10.868 10.085-19.194 1.937-8.3301 5.645-6.7741 8.241 3.4514 2.596 10.225 5.874 25.357 7.282 33.623 1.407 8.266 4.285 19.864 6.392 25.775 2.108 5.911 5.66 14.397 7.897 18.863s6.396 3.947 9.245-1.152c2.848-5.099 5.948-14.742 6.885-21.429s3.27-10.712 5.182-8.945c1.914 1.767 3.918 10.134 4.455 18.597s4.393 22.255 8.567 30.649c4.174 8.395 8.334 7.729 9.241-1.482s6.345-22.292 12.082-29.066 12.337-21.943 14.67-33.701c2.33-11.763 7.204-32.058 10.83-45.102s10.627-34.559 15.56-47.81c4.933-13.25 9.741-19.386 10.682-13.636 0.94 5.7507 4.878 16.293 8.744 23.434 3.867 7.1368 9.138 19.726 11.708 27.969 2.57 8.2428 3.445 21.502 1.941 29.46s1.266 20.74 6.159 28.4 10.723 7.554 12.956-0.239c2.237-7.793 5.685-17.885 7.667-22.429 1.982-4.5435 5.341-2.249 7.467 5.104 2.126 7.352 2.27 19.588 0.326 27.197-1.945 7.605-3.326 21.498-3.067 30.865 0.256 9.368 6.719 22.081 14.356 28.249s17.504 5.25 21.926-2.042c4.423-7.289 12.012-9.496 16.867-4.897 4.856 4.598 9.427-1.386 10.156-13.296 0.73-11.91 4.193-30.704 7.697-41.765 3.5-11.061 9.363-18.542 13.022-16.628 3.66 1.918 9.549-8.22 13.086-22.526 3.537-14.306 7.381-21.163 8.544-15.233 1.163 5.9251 3.456 18.496 5.097 27.928 1.641 9.436 8.074 25.022 14.3 34.642 6.223 9.62 9.23 22.177 6.682 27.9-2.552 5.723-1.004 15.65 3.437 22.057s11.6 7.826 15.908 3.149c4.307-4.677 11.063-7.233 15.007-5.687 3.945 1.552 6.215-2.694 5.045-9.431-1.174-6.738 2.456-16.762 8.063-22.274 5.608-5.512 9.926-17.761 9.593-27.216-0.33-9.459 0.918-24.301 2.778-32.989 1.859-8.6834 6.863-8.3347 11.119 0.7802 4.255 9.1152 9.418 22.957 11.478 30.759 2.059 7.802 7.196 19.432 11.419 25.844 4.222 6.412 6.848 16.981 5.837 23.489-1.012 6.508 3.355 13.287 9.704 15.063 6.352 1.776 16.137-0.84 21.752-5.81 5.611-4.966 8.019-12.754 5.345-17.303-2.675-4.548 0.322-22.521 6.659-39.943s12.097-28.148 12.804-23.833c0.707 4.314 4.082 17.747 7.5 29.85 3.419 12.107 8.8 29.263 11.963 38.126 3.16 8.862 7.664 27.142 10.008 40.617 2.345 13.475 6.115 30.218 8.382 37.208 2.266 6.985 9.241 7.963 15.5 2.171 6.256-5.797 13.923-21.424 17.038-34.729 3.115-13.306 7.478-36.396 9.704-51.307 2.22-14.912 7.59-13.461 11.94 3.222 4.34 16.683 10.47 36.482 13.62 43.995 3.14 7.509 7.23 21.149 9.09 30.31 1.85 9.161 7.18 21.451 11.83 27.312 4.65 5.866 10.18 5.54 12.29-0.716 2.11-6.26 7.34-16.311 11.64-22.337 4.29-6.031 9.3-19.396 11.14-29.704s6.13-24.77 9.54-32.131c3.4-7.367 9.55-1.065 13.65 14.002 4.11 15.068 10.31 40.614 13.78 56.773 3.46 16.16 9.83 25.775 14.14 21.369s8.27-16.646 8.79-27.202c0.53-10.556 3.48-22.627 6.56-26.831s6.85-2.505 8.38 3.778 3.6 20.4 4.61 31.378c1 10.974 3.48 28.777 5.5 39.553 2.02 10.777 7.19 15.55 11.5 10.602 4.3-4.943 7.38-16.504 6.83-25.687-0.55-9.184-0.76-27.171-0.48-39.976s4.31-34.114 8.95-47.359c4.64-13.246 9.55-20.708 10.91-16.587s6.72 14.347 11.91 22.723 9.15 20.837 8.8 27.693c-0.36 6.857-0.57 18.363-0.49 25.573 0.09 7.21 3.65 16.436 7.92 20.502 4.26 4.066 5.33 13.19 2.36 20.277-2.97 7.081-3.55 18.743-1.28 25.912s8.26 10.598 13.32 7.619c5.05-2.974 13.96-14.2 19.8-24.944 5.83-10.744 10.94-31.485 11.35-46.093 0.4-14.609 4.6-21.47 9.33-15.247 4.73 6.224 8.56 17.656 8.51 25.408-0.06 7.752 2.63 23.186 5.96 34.302 3.34 11.116 8.16 26.216 10.72 33.559 2.57 7.344 7.84 10.933 11.74 7.977 3.88-2.96 10.2-12.071 14.03-20.254s9.96-23.044 13.63-33.026c3.66-9.983 7.81-11.236 9.22-2.791 1.41 8.45 5.86 22.526 9.89 31.283 4.04 8.757 8.27 24.017 9.4 33.912 1.14 9.891 5.66 19.396 10.05 21.117 4.38 1.721 11.77-6.972 16.43-19.313 4.65-12.346 8.03-28.483 7.5-35.863-0.53-7.385 2.06-19.818 5.75-27.638 3.69-7.817 10.09-10.148 14.22-5.177 4.13 4.97 9.43 0.445 11.78-10.052 2.35-10.496 6.69-25.77 9.64-33.935 2.96-8.169 8.22-6.347 11.69 4.044 3.47 10.39 6.69 10.923 7.15 1.179 0.47-9.744 3.17-23.067 6-29.607s8.58-23.021 12.78-36.616c4.2-13.594 7.04-34.885 6.31-47.309s2.48-32.54 7.13-44.702c4.66-12.167 10.76-9.7712 13.56 5.3193 2.8 15.09 7.67 34.614 10.83 43.39 3.16 8.77 5.76 26.569 5.77 39.548s3.29 28.699 7.29 34.936c4.01 6.232 9.93 4.355 13.18-4.177 3.24-8.536 5.91-23.921 5.93-34.197 0.03-10.276 2.23-15.035 4.9-10.579 2.67 4.457 8.01 12.769 11.86 18.464 3.86 5.701 9.86 10.455 13.36 10.57 3.49 0.115 7.2-7.623 8.25-17.197 1.05-9.569 4.19-25.261 6.99-34.867 2.79-9.606 6.8-12.484 8.91-6.393 2.11 6.09 6.57 20.313 9.9 31.608 3.34 11.29 7.25 29.359 8.68 40.15 1.45 10.79 7.26 19.533 12.93 19.427 5.67-0.101 8.44-7.972 6.14-17.481-2.3-9.515 0.68-20.038 6.6-23.393s13.64-14.705 17.15-25.225c3.51-10.519 5.48-24.861 4.38-31.87-1.1-7.012 0.24-24.586 2.97-39.057 2.74-14.471 7.73-34.619 11.1-44.776s10.42-7.7793 15.67 5.2826c5.24 13.062 7.7 29.534 5.46 36.606-2.24 7.0726 0.6 15.724 6.31 19.221 5.72 3.498 8.3 10.088 5.73 14.641-2.56 4.553-5.9 14.053-7.41 21.112-1.52 7.059 2.29 16.72 8.45 21.475 6.17 4.75 12.1 13.048 13.19 18.436 1.08 5.388-2.87 13.278-8.79 17.532-5.91 4.255-8.93 10.06-6.72 12.906 2.22 2.846 6.84 10.721 10.26 17.509 3.43 6.784 10.44 15.65 15.58 19.703s10.38-5.925 11.64-22.172 4.6-34.895 7.43-41.435 6.42-5.135 7.97 3.13c1.56 8.266 6.55 17.023 11.08 19.46 4.54 2.442 11.78 11.157 16.1 19.368s10.39 7.949 13.49-0.578c3.1-8.532 11.31-18.12 18.25-21.314 6.95-3.194 11.48-12.272 10.08-20.18-1.41-7.904 1.6-14.893 6.68-15.527 5.09-0.633 10.44-10.909 11.9-22.833 1.45-11.924 4.79-33.742 7.42-48.48 2.62-14.742 7-19.652 9.72-10.914 2.72 8.734 5.95 24.604 7.17 35.262 1.21 10.657 5.28 22.416 9.04 26.133 3.75 3.718 6.19 13.296 5.41 21.287-0.77 7.99-1.24 20.832-1.04 28.533 0.2 7.706 3.8 17.922 8 22.713 4.21 4.792 12.07 5.641 17.48 1.892 5.41-3.75 13.8 3.281 18.64 15.632 4.84 12.35 12.18 21.176 16.3 19.611 4.13-1.565 9.98 2.198 13 8.362 3.02 6.159 10.29 9.454 16.15 7.32 5.87-2.134 14.11-6.935 18.32-10.661 4.21-3.727 13.22-4.227 20.02-1.106 6.81 3.121 14.7-0.785 17.56-8.679 2.85-7.894 8.24-19.387 11.99-25.541 3.75-6.155 7.19-16.394 7.66-22.755s2.1-19.556 3.62-29.318c1.52-9.758 5.89-17.473 9.71-17.138s8.94-4.516 11.37-10.781l1-2.564c2.62-6.751 6.81-17.534 9.97-25.662 3.6-9.257 9.55-11.799 13.22-5.649 3.68 6.154 9.6 1.877 13.18-9.501 3.57-11.377 7.76-34.279 9.31-50.889 1.54-16.614 5.52-21.998 8.84-11.965 3.33 10.033 8.04 25.578 10.47 34.546s5.47 24.247 6.76 33.958c1.28 9.712 4.15 31.191 6.39 47.732 2.24 16.545 6.55 38.584 9.58 48.984s10.44 12.915 16.46 5.595c6.03-7.321 10.13-21.851 9.14-32.288-1-10.437 0.95-26.105 4.34-34.821 3.38-8.715 9.37-25.637 13.3-37.607 3.93-11.97 10.81-13.576 15.29-3.561 4.49 10.014 7.56 27.95 6.83 39.86s2.05 25.133 6.17 29.382c4.12 4.25 9.96 14.173 12.96 22.049s6.03 22.273 6.73 31.993c0.7 9.721 2.58 26.794 4.16 37.942 1.59 11.149 5.7 16.381 9.14 11.63 3.43-4.75 6.15-16.302 6.04-25.674-0.12-9.367 4.49-22.135 10.24-28.372 5.74-6.238 11.26-21.971 12.27-34.968 1.01-12.998 4.6-31.351 7.97-40.788 3.38-9.436 8.17-7.458 10.64 4.393 2.47 11.85 7.4 26.211 10.96 31.916 3.56 5.7 4.16 16.311 1.34 23.571-2.82 7.261-4.98 25.592-4.8 40.728 0.18 15.141 4.67 31.87 9.97 37.18s12.88 2.515 16.85-6.209c3.97-8.725 12.46-15.077 18.88-14.113 6.41 0.959 12.07-2.685 12.59-8.101s-1.05-16.894-3.48-25.499c-2.43-8.61-3.04-19.805-1.35-24.885 1.68-5.081 7.76-14.338 13.5-20.571 5.74-6.232 5.58-19.501-0.35-29.488l-12.82-10.253c7.42-12.396 17.95-27.633 23.4-33.861s11.43-24.036 13.28-39.572c1.85-15.536 3.9-22.948 4.56-16.472 0.66 6.4758 2.21 16.476 3.44 22.223 1.23 5.7461 3.31 20.162 4.62 32.035 1.3 11.874 2.54 35.45 2.74 52.39s6.06 28.924 13.02 26.634c6.95-2.291 10.91-9.148 8.8-15.238-2.1-6.086-4.86-17.243-6.11-24.793-1.26-7.545 1.73-16.449 6.64-19.785 4.9-3.337 5.95-15.449 2.32-26.918l-3.21-2.561c-3.2-2.5613-3.2-2.5612-3.2-2.5612 5.08-13.071 12.19-35.326 15.8-49.452 3.62-14.127 9.05-17.179 12.09-6.779 3.04 10.4 8.21 24.756 11.49 31.907 3.29 7.1506 5.1 18.918 4.02 26.147-1.08 7.233-0.5 15.48 1.28 18.331 1.78 2.854 5.42 8.981 8.1 13.617 2.67 4.635 5.62 12.254 6.55 16.921 0.93 4.673 0.09 14.421-1.86 21.668s-1.32 19.918 1.4 28.161 9.15 9.01 14.3 1.703c5.15-7.306 10.93-21.571 12.85-31.7 1.91-10.129 5.44-13.732 7.83-8.009 2.4 5.724 6.95 7.706 10.11 4.402 3.16-3.305 6.14-13.094 6.61-21.755 0.48-8.665 2.45-23.154 4.38-32.2 1.92-9.046 7.07-16.812 11.43-17.252s8.92 3.3089 10.15 8.3344c1.22 5.026 3.05 18.854 4.07 30.732 1.01 11.878 3.51 21.566 5.55 21.53 2.04-0.037 5.47-11.309 7.63-25.05s4.32-32.361 4.79-41.384c0.48-9.0231 4.04-29.736 7.92-46.029 3.87-16.298 8.3-24.045 9.84-17.225s2.92 22.723 3.07 35.34 0.8 27.354 1.45 32.747c0.65 5.3973 3.66 18.318 6.7 28.716 2.33 8 5.94 19.708 8.99 29.263z" fill="#565656"/>
<path d="m2626.1 150.97v327.91h2553.6c0.24 0.159 0.47 0.161 0.69 0h-0.69c-10.52-6.862-47.77-306.1-53.7-309.91-6.06-3.896-12.54-14.856-14.38-24.352-1.86-9.5-5.78-24.614-8.73-33.591-2.94-8.977-8.31-23.232-11.92-31.682-3.6-8.4448-9.65-5.6819-13.43 6.1454s-9.37 12.02-12.43 0.4269c-3.06-11.593-8.58-27.473-12.27-35.294s-10.1-19.295-14.24-25.5c-4.15-6.2051-9.62-6.3061-12.17-0.2249-2.54 6.0811-6.48 16.775-8.75 23.765-2.26 6.9899-3.71 18.317-3.21 25.178s-1.93 21.121-5.4 31.691c-3.48 10.575-6.98 24.522-7.78 30.994-0.81 6.471-4.05 8.628-7.2 4.782s-5.27-15.976-4.7-26.964c0.56-10.983-3.41-26.693-8.84-34.903s-9.67-21.709-9.43-29.997c0.25-8.2842-3.34-26.05-7.99-39.475-4.64-13.424-12.73-13.278-17.98 0.32574-5.26 13.604-9.63 30.925-9.72 38.493-0.09 7.5728-1.81 21.993-3.83 32.049-2.01 10.056-5.31 27.546-7.34 38.864-2.03 11.323-3.59 32.384-3.47 46.805 0.12 14.42-5 24.356-11.38 22.075-6.37-2.281-10.32-10.317-8.77-17.858 1.54-7.54-0.24-18.046-3.96-23.342-3.71-5.296-7-18.923-7.3-30.287-0.3-11.363 0.42-31.553 1.59-44.872 1.18-13.319-0.84-23.384-4.49-22.37s-8.86 8.587-11.57 16.83c-2.72 8.2428-5.5 21.466-6.17 29.383-0.68 7.9218-4.19 12.575-7.8 10.345-3.61-2.231-8.15-10.868-10.08-19.194-1.94-8.3301-5.65-6.7741-8.24 3.4514-2.6 10.225-5.88 25.357-7.28 33.623-1.41 8.266-4.29 19.864-6.4 25.775-2.1 5.911-5.66 14.397-7.89 18.863-2.24 4.466-6.4 3.947-9.25-1.152s-5.95-14.742-6.88-21.429c-0.94-6.687-3.27-10.712-5.19-8.945-1.91 1.767-3.91 10.134-4.45 18.597s-4.39 22.255-8.57 30.649c-4.17 8.395-8.33 7.729-9.24-1.482s-6.34-22.292-12.08-29.066-12.34-21.943-14.67-33.701c-2.33-11.763-7.21-32.058-10.83-45.102-3.63-13.044-10.63-34.559-15.56-47.81-4.93-13.25-9.74-19.386-10.68-13.636s-4.88 16.293-8.75 23.434c-3.86 7.1368-9.13 19.726-11.7 27.969-2.58 8.2428-3.45 21.502-1.95 29.46 1.51 7.9583-1.26 20.74-6.16 28.4-4.89 7.66-10.72 7.554-12.95-0.239-2.24-7.793-5.69-17.885-7.67-22.429-1.98-4.5435-5.34-2.249-7.46 5.104-2.13 7.352-2.28 19.588-0.33 27.197 1.94 7.605 3.33 21.498 3.07 30.865-0.26 9.368-6.72 22.081-14.36 28.249s-17.5 5.25-21.93-2.042c-4.42-7.289-12.01-9.496-16.86-4.897-4.86 4.598-9.43-1.386-10.16-13.296s-4.19-30.704-7.7-41.765c-3.5-11.061-9.36-18.542-13.02-16.628-3.66 1.918-9.55-8.22-13.08-22.526-3.54-14.306-7.39-21.163-8.55-15.233-1.16 5.9251-3.45 18.496-5.09 27.928-1.65 9.436-8.08 25.022-14.31 34.642-6.22 9.62-9.23 22.177-6.68 27.9 2.56 5.723 1.01 15.65-3.43 22.057-4.45 6.407-11.6 7.826-15.91 3.149s-11.06-7.233-15.01-5.687c-3.94 1.552-6.21-2.694-5.04-9.431 1.17-6.738-2.46-16.762-8.07-22.274-5.6-5.512-9.92-17.761-9.59-27.216 0.33-9.459-0.92-24.301-2.78-32.989-1.86-8.6834-6.86-8.3347-11.12 0.7802-4.25 9.1152-9.42 22.957-11.47 30.759-2.06 7.802-7.2 19.432-11.42 25.844-4.23 6.412-6.85 16.981-5.84 23.489s-3.36 13.287-9.7 15.063c-6.36 1.776-16.14-0.84-21.76-5.81-5.61-4.966-8.02-12.754-5.34-17.303 2.67-4.548-0.32-22.521-6.66-39.943s-12.1-28.148-12.81-23.833c-0.7 4.314-4.08 17.747-7.5 29.85-3.41 12.107-8.8 29.263-11.96 38.126-3.16 8.862-7.66 27.142-10.01 40.617-2.34 13.475-6.11 30.218-8.38 37.208-2.26 6.985-9.24 7.963-15.5 2.171-6.25-5.797-13.92-21.424-17.04-34.729-3.11-13.306-7.47-36.396-9.7-51.307-2.22-14.912-7.59-13.461-11.94 3.222-4.34 16.683-10.47 36.482-13.62 43.995-3.14 7.509-7.23 21.149-9.09 30.31-1.85 9.161-7.18 21.451-11.83 27.312-4.65 5.866-10.18 5.54-12.29-0.716-2.11-6.26-7.34-16.311-11.64-22.337-4.29-6.031-9.3-19.396-11.14-29.704s-6.13-24.77-9.54-32.131c-3.4-7.367-9.55-1.065-13.65 14.002-4.11 15.068-10.31 40.614-13.78 56.773-3.46 16.16-9.83 25.775-14.14 21.369s-8.27-16.646-8.8-27.202c-0.52-10.556-3.47-22.627-6.55-26.831s-6.85-2.505-8.38 3.778-3.6 20.4-4.61 31.378c-1 10.974-3.48 28.777-5.5 39.553-2.02 10.777-7.19 15.55-11.5 10.602-4.3-4.943-7.38-16.504-6.83-25.687 0.55-9.184 0.76-27.171 0.48-39.976s-4.31-34.114-8.95-47.359c-4.64-13.246-9.55-20.708-10.91-16.587s-6.72 14.347-11.91 22.723-9.15 20.837-8.8 27.693c0.36 6.857 0.57 18.363 0.49 25.573-0.09 7.21-3.65 16.436-7.92 20.502-4.26 4.066-5.33 13.19-2.36 20.277 2.97 7.081 3.55 18.743 1.28 25.912s-8.26 10.598-13.32 7.619c-5.05-2.974-13.96-14.2-19.8-24.944-5.83-10.744-10.94-31.485-11.35-46.093-0.4-14.609-4.6-21.47-9.33-15.247-4.73 6.224-8.56 17.656-8.51 25.408 0.06 7.752-2.63 23.186-5.96 34.302-3.34 11.116-8.16 26.216-10.72 33.559-2.57 7.344-7.84 10.933-11.74 7.977-3.88-2.96-10.2-12.071-14.03-20.254s-9.96-23.044-13.63-33.026c-3.66-9.983-7.81-11.236-9.22-2.791-1.41 8.45-5.86 22.526-9.89 31.283-4.04 8.757-8.27 24.017-9.4 33.912-1.14 9.891-5.66 19.396-10.05 21.117-4.38 1.721-11.77-6.972-16.43-19.313-4.65-12.346-8.03-28.483-7.5-35.863 0.53-7.385-2.06-19.818-5.75-27.638-3.69-7.817-10.09-10.148-14.22-5.177-4.13 4.97-9.43 0.445-11.78-10.052-2.35-10.496-6.69-25.77-9.64-33.935-2.96-8.169-8.22-6.347-11.69 4.044-3.47 10.39-6.69 10.923-7.15 1.179-0.47-9.744-3.17-23.067-6-29.607s-8.58-23.021-12.78-36.616c-4.2-13.594-7.04-34.885-6.31-47.309s-2.48-32.54-7.13-44.702c-4.66-12.167-10.76-9.7712-13.56 5.3193-2.8 15.09-7.67 34.614-10.83 43.39-3.16 8.77-5.76 26.569-5.77 39.548s-3.29 28.699-7.29 34.936c-4.01 6.232-9.93 4.355-13.18-4.177-3.24-8.536-5.91-23.921-5.93-34.197-0.03-10.276-2.23-15.035-4.9-10.579-2.68 4.457-8.01 12.769-11.86 18.464-3.86 5.701-9.86 10.455-13.36 10.57-3.49 0.115-7.2-7.623-8.25-17.197-1.05-9.569-4.19-25.261-6.99-34.867-2.79-9.606-6.81-12.484-8.91-6.393-2.11 6.09-6.57 20.313-9.9 31.608-3.34 11.29-7.25 29.359-8.68 40.15-1.45 10.79-7.26 19.533-12.93 19.427-5.67-0.101-8.44-7.972-6.14-17.481 2.3-9.515-0.68-20.038-6.6-23.393s-13.64-14.705-17.15-25.225c-3.51-10.519-5.48-24.861-4.38-31.87 1.1-7.012-0.24-24.586-2.97-39.057-2.74-14.471-7.73-34.619-11.1-44.776s-10.42-7.7793-15.67 5.2826c-5.24 13.062-7.7 29.534-5.46 36.606 2.24 7.0726-0.6 15.724-6.31 19.221-5.72 3.498-8.3 10.088-5.73 14.641 2.56 4.553 5.9 14.053 7.41 21.112 1.52 7.059-2.29 16.72-8.45 21.475-6.17 4.75-12.1 13.048-13.19 18.436-1.08 5.388 2.87 13.278 8.79 17.532 5.91 4.255 8.93 10.06 6.72 12.906-2.22 2.846-6.84 10.721-10.26 17.509-3.43 6.784-10.44 15.65-15.58 19.703s-10.38-5.925-11.64-22.172-4.6-34.895-7.43-41.435-6.42-5.135-7.98 3.13c-1.55 8.266-6.54 17.023-11.07 19.46-4.54 2.442-11.78 11.157-16.1 19.368s-10.39 7.949-13.49-0.578c-3.1-8.532-11.31-18.12-18.25-21.314-6.95-3.194-11.48-12.272-10.08-20.18 1.41-7.904-1.6-14.893-6.68-15.527-5.09-0.633-10.44-10.909-11.9-22.833-1.45-11.924-4.79-33.742-7.42-48.48-2.62-14.742-7-19.652-9.72-10.914-2.72 8.734-5.95 24.604-7.17 35.262-1.21 10.657-5.28 22.416-9.04 26.133-3.75 3.718-6.19 13.296-5.41 21.287 0.77 7.99 1.24 20.832 1.04 28.533-0.2 7.706-3.8 17.922-8 22.713-4.21 4.792-12.07 5.641-17.48 1.892-5.41-3.75-13.8 3.281-18.64 15.632-4.84 12.35-12.18 21.176-16.3 19.611-4.13-1.565-9.98 2.198-13 8.362-3.02 6.159-10.29 9.454-16.15 7.32-5.87-2.134-14.11-6.935-18.32-10.661-4.21-3.727-13.22-4.227-20.02-1.106-6.81 3.121-14.7-0.785-17.56-8.679-2.85-7.894-8.24-19.387-11.99-25.541-3.75-6.155-7.19-16.394-7.66-22.755s-2.1-19.556-3.62-29.318c-1.52-9.758-5.89-17.473-9.71-17.138s-8.94-4.516-11.37-10.781l-1-2.564c-2.62-6.751-6.81-17.534-9.97-25.662-3.6-9.257-9.55-11.799-13.22-5.649-3.68 6.154-9.6 1.877-13.18-9.501-3.57-11.377-7.76-34.279-9.31-50.889-1.54-16.614-5.52-21.998-8.84-11.965-3.33 10.033-8.04 25.578-10.47 34.546s-5.47 24.247-6.76 33.958c-1.28 9.712-4.15 31.191-6.39 47.732-2.24 16.545-6.55 38.584-9.58 48.984s-10.44 12.915-16.46 5.595c-6.03-7.321-10.13-21.851-9.14-32.288 1-10.437-0.95-26.105-4.34-34.821-3.38-8.715-9.37-25.637-13.3-37.607-3.93-11.97-10.81-13.576-15.29-3.561-4.49 10.014-7.56 27.95-6.83 39.86s-2.05 25.133-6.17 29.382c-4.12 4.25-9.96 14.173-12.96 22.049-3.01 7.876-6.03 22.273-6.73 31.993-0.7 9.721-2.58 26.794-4.16 37.942-1.59 11.149-5.7 16.381-9.14 11.63-3.43-4.75-6.15-16.302-6.04-25.674 0.12-9.367-4.49-22.135-10.24-28.372-5.74-6.238-11.26-21.971-12.27-34.968-1.01-12.998-4.6-31.351-7.97-40.788-3.38-9.436-8.17-7.458-10.64 4.393-2.47 11.85-7.4 26.211-10.96 31.916-3.56 5.7-4.16 16.311-1.34 23.571 2.82 7.261 4.98 25.592 4.8 40.728-0.18 15.141-4.67 31.87-9.97 37.18s-12.88 2.515-16.85-6.209c-3.97-8.725-12.46-15.077-18.88-14.113-6.41 0.959-12.07-2.685-12.59-8.101s1.05-16.894 3.48-25.499c2.43-8.61 3.04-19.805 1.35-24.885-1.68-5.081-7.76-14.338-13.5-20.571-5.74-6.232-5.58-19.501 0.35-29.488l12.82-10.253c-7.42-12.396-17.95-27.633-23.4-33.861s-11.43-24.036-13.28-39.572c-1.85-15.536-3.9-22.948-4.56-16.472-0.66 6.4758-2.21 16.476-3.44 22.223-1.23 5.7461-3.31 20.162-4.62 32.035-1.3 11.874-2.54 35.45-2.74 52.39s-6.06 28.924-13.02 26.634c-6.95-2.291-10.91-9.148-8.8-15.238 2.1-6.086 4.86-17.243 6.11-24.793 1.26-7.545-1.73-16.449-6.64-19.785-4.9-3.337-5.95-15.449-2.32-26.918l3.21-2.561c3.2-2.5613 3.2-2.5612 3.2-2.5612-5.08-13.071-12.19-35.326-15.8-49.452-3.62-14.127-9.05-17.179-12.09-6.779-3.04 10.4-8.21 24.756-11.49 31.907-3.29 7.1506-5.1 18.918-4.02 26.147 1.08 7.233 0.5 15.48-1.28 18.331-1.78 2.854-5.42 8.981-8.1 13.617-2.67 4.635-5.62 12.254-6.55 16.921-0.93 4.673-0.09 14.421 1.86 21.668s1.32 19.918-1.4 28.161-9.15 9.01-14.3 1.703c-5.15-7.306-10.93-21.571-12.85-31.7-1.91-10.129-5.44-13.732-7.83-8.009-2.4 5.724-6.95 7.706-10.11 4.402-3.16-3.305-6.14-13.094-6.61-21.755-0.48-8.665-2.45-23.154-4.38-32.2-1.92-9.046-7.07-16.812-11.43-17.252s-8.92 3.3089-10.15 8.3344c-1.22 5.026-3.06 18.854-4.07 30.732s-3.51 21.566-5.55 21.53c-2.04-0.037-5.47-11.309-7.63-25.05s-4.32-32.361-4.79-41.384c-0.48-9.0231-4.04-29.736-7.92-46.029-3.87-16.298-11.37-24.858-12.91-18.037s0.15 23.536 0 36.152-0.8 27.354-1.45 32.747c-0.65 5.3973-3.66 18.318-6.7 28.716-2.33 8-5.94 19.708-8.99 29.263z" fill="#565656"/>
</svg>
