
<svg width="16" height="16" viewBox="0 0 16 16" fill="none" xmlns="http://www.w3.org/2000/svg">
<path d="M14.0591 0.897461H1.78666C1.19898 0.897461 0.722656 1.35922 0.722656 1.92914V14.2653C0.722656 14.8352 1.19914 15.2975 1.78666 15.2975H14.0591C14.6468 15.2975 15.1225 14.8351 15.1225 14.2653V1.92914C15.1225 1.35938 14.6468 0.897461 14.0591 0.897461ZM5.08826 12.9512H2.91258V6.44978H5.08826V12.9512ZM4.00058 5.56162H3.98602C3.25642 5.56162 2.78346 5.06258 2.78346 4.43794C2.78346 3.80066 3.27034 3.31522 4.01434 3.31522C4.7585 3.31522 5.21626 3.8005 5.23066 4.43794C5.23066 5.06274 4.75866 5.56162 4.00058 5.56162ZM12.9311 12.9512H10.7561V9.47282C10.7561 8.59858 10.4409 8.00226 9.65434 8.00226C9.05258 8.00226 8.69546 8.40466 8.53866 8.79298C8.48042 8.93186 8.46618 9.12578 8.46618 9.3197V12.9511H6.29146C6.29146 12.9511 6.31994 7.05938 6.29146 6.44962H8.46634V7.37138C8.75514 6.9285 9.27098 6.29666 10.4262 6.29666C11.8577 6.29666 12.9311 7.2253 12.9311 9.22322V12.9512ZM8.45226 7.39202C8.4561 7.38594 8.46122 7.37842 8.46634 7.37138V7.39202H8.45226Z" fill="white"/>
</svg>
