<svg width="16" height="16" viewBox="0 0 16 16" fill="none" xmlns="http://www.w3.org/2000/svg">
<g clip-path="url(#clip0_313_72)">
<path d="M14.4 1H1.6C0.72 1 0 1.7875 0 2.75V13.25C0 14.2125 0.72 15 1.6 15H14.4C15.28 15 16 14.2125 16 13.25V2.75C16 1.7875 15.28 1 14.4 1ZM14.08 4.71875L8.848 8.2975C8.328 8.65625 7.672 8.65625 7.152 8.2975L1.92 4.71875C1.72 4.57875 1.6 4.3425 1.6 4.08875C1.6 3.5025 2.184 3.1525 2.64 3.45875L8 7.125L13.36 3.45875C13.816 3.1525 14.4 3.5025 14.4 4.08875C14.4 4.3425 14.28 4.57875 14.08 4.71875Z" fill="white"/>
</g>
<defs>
<clipPath id="clip0_313_72">
<rect width="16" height="16" fill="white"/>
</clipPath>
</defs>
</svg>
